STARTFONT 2.1
FONT -FontForge-FreeMono-Bold-R-Normal--20-190-75-75-P-111-ISO10646-1
SIZE 19 75 75
FONTBOUNDINGBOX 27 21 -12 -5
COMMENT "Generated by fontforge, http://fontforge.sourceforge.net"
COMMENT "Copyright 2002, 2003, 2005, 2008, 2009, 2010, 2012 GNU Freefont contributors."
STARTPROPERTIES 40
FOUNDRY "FontForge"
FAMILY_NAME "FreeMono"
WEIGHT_NAME "Bold"
SLANT "R"
SETWIDTH_NAME "Normal"
ADD_STYLE_NAME ""
PIXEL_SIZE 20
POINT_SIZE 190
RESOLUTION_X 75
RESOLUTION_Y 75
SPACING "P"
AVERAGE_WIDTH 111
CHARSET_REGISTRY "ISO10646"
CHARSET_ENCODING "1"
FONTNAME_REGISTRY ""
CHARSET_COLLECTIONS "ASCII ISOLatin1Encoding ISO8859-2 ISO8859-5 ISO8859-7 ISO8859-9 ISO8859-8 ISO8859-4 ISO10646-1"
FONT_NAME "FreeMonoBold"
FACE_NAME "FreeMono Bold"
COPYRIGHT "Copyright 2002, 2003, 2005, 2008, 2009, 2010, 2012 GNU Freefont contributors."
FONT_VERSION "0412.2261"
FONT_ASCENT 16
FONT_DESCENT 4
UNDERLINE_POSITION -2
UNDERLINE_THICKNESS 1
X_HEIGHT 8
CAP_HEIGHT 11
RAW_ASCENT 800
RAW_DESCENT 200
NORM_SPACE 12
RELATIVE_WEIGHT 70
RELATIVE_SETWIDTH 50
SUPERSCRIPT_X -3
SUPERSCRIPT_Y 9
SUPERSCRIPT_SIZE 13
SUBSCRIPT_X 0
SUBSCRIPT_Y 2
SUBSCRIPT_SIZE 13
FIGURE_WIDTH 12
AVG_LOWERCASE_WIDTH 119
AVG_UPPERCASE_WIDTH 120
ENDPROPERTIES
CHARS 2035
STARTCHAR space
ENCODING 32
SWIDTH 600 0
DWIDTH 12 0
BBX 1 1 0 0
BITMAP
00
ENDCHAR
STARTCHAR exclam
ENCODING 33
SWIDTH 600 0
DWIDTH 12 0
BBX 4 13 4 0
BITMAP
60
F0
F0
60
60
60
60
60
60
00
00
60
60
ENDCHAR
STARTCHAR quotedbl
ENCODING 34
SWIDTH 600 0
DWIDTH 12 0
BBX 6 6 3 6
BITMAP
CC
CC
CC
CC
CC
44
ENDCHAR
STARTCHAR numbersign
ENCODING 35
SWIDTH 600 0
DWIDTH 12 0
BBX 10 15 1 -2
BITMAP
1B00
1B00
1B00
1B00
7FC0
7FC0
3300
3300
7F80
FF80
3600
3600
3600
3600
3200
ENDCHAR
STARTCHAR dollar
ENCODING 36
SWIDTH 600 0
DWIDTH 12 0
BBX 8 16 2 -2
BITMAP
18
18
3E
7F
E3
C3
F0
7E
0F
83
C3
FF
FE
18
18
18
ENDCHAR
STARTCHAR percent
ENCODING 37
SWIDTH 600 0
DWIDTH 12 0
BBX 8 12 2 0
BITMAP
78
88
88
C8
71
1E
F0
9E
13
11
13
1E
ENDCHAR
STARTCHAR ampersand
ENCODING 38
SWIDTH 600 0
DWIDTH 12 0
BBX 8 11 2 0
BITMAP
3C
7E
60
60
70
72
FF
DE
CE
FF
7F
ENDCHAR
STARTCHAR quotesingle
ENCODING 39
SWIDTH 600 0
DWIDTH 12 0
BBX 2 6 5 6
BITMAP
C0
C0
C0
C0
C0
40
ENDCHAR
STARTCHAR parenleft
ENCODING 40
SWIDTH 600 0
DWIDTH 12 0
BBX 5 16 5 -3
BITMAP
10
38
30
70
60
60
E0
E0
E0
E0
60
60
70
30
38
18
ENDCHAR
STARTCHAR parenright
ENCODING 41
SWIDTH 600 0
DWIDTH 12 0
BBX 5 16 2 -3
BITMAP
40
E0
60
70
30
30
38
18
18
18
38
30
30
60
60
C0
ENDCHAR
STARTCHAR asterisk
ENCODING 42
SWIDTH 600 0
DWIDTH 12 0
BBX 8 8 2 4
BITMAP
18
18
FF
FF
3C
3C
66
66
ENDCHAR
STARTCHAR plus
ENCODING 43
SWIDTH 600 0
DWIDTH 12 0
BBX 10 11 1 0
BITMAP
0C00
0C00
0C00
0C00
FFC0
FFC0
0C00
0C00
0C00
0C00
0C00
ENDCHAR
STARTCHAR comma
ENCODING 44
SWIDTH 600 0
DWIDTH 12 0
BBX 4 6 3 -3
BITMAP
70
60
60
C0
C0
80
ENDCHAR
STARTCHAR hyphen
ENCODING 45
SWIDTH 600 0
DWIDTH 12 0
BBX 10 2 1 5
BITMAP
7FC0
FFC0
ENDCHAR
STARTCHAR period
ENCODING 46
SWIDTH 600 0
DWIDTH 12 0
BBX 2 2 5 0
BITMAP
C0
C0
ENDCHAR
STARTCHAR slash
ENCODING 47
SWIDTH 600 0
DWIDTH 12 0
BBX 8 16 2 -2
BITMAP
01
03
03
06
06
0C
0C
18
18
30
30
70
60
E0
C0
C0
ENDCHAR
STARTCHAR zero
ENCODING 48
SWIDTH 600 0
DWIDTH 12 0
BBX 8 13 2 0
BITMAP
1C
7E
E7
C3
C3
C3
C3
C3
C3
C3
C3
7E
3C
ENDCHAR
STARTCHAR one
ENCODING 49
SWIDTH 600 0
DWIDTH 12 0
BBX 8 13 2 0
BITMAP
18
78
F8
98
18
18
18
18
18
18
18
FF
FF
ENDCHAR
STARTCHAR two
ENCODING 50
SWIDTH 600 0
DWIDTH 12 0
BBX 9 13 1 0
BITMAP
1C00
3F00
6380
E180
4180
0380
0700
0E00
1C00
3800
7180
FF80
FF80
ENDCHAR
STARTCHAR three
ENCODING 51
SWIDTH 600 0
DWIDTH 12 0
BBX 10 13 1 0
BITMAP
1E00
7F00
6380
0180
0180
0F00
1F00
0380
0180
00C0
0180
FF80
7F00
ENDCHAR
STARTCHAR four
ENCODING 52
SWIDTH 600 0
DWIDTH 12 0
BBX 9 12 1 0
BITMAP
0700
0F00
0F00
1B00
3B00
3300
6300
7F80
FF80
0300
0F80
0F80
ENDCHAR
STARTCHAR five
ENCODING 53
SWIDTH 600 0
DWIDTH 12 0
BBX 10 12 1 0
BITMAP
7F80
7F00
6000
6000
7F00
7F80
0180
00C0
00C0
4180
FF80
7F00
ENDCHAR
STARTCHAR six
ENCODING 54
SWIDTH 600 0
DWIDTH 12 0
BBX 9 13 2 0
BITMAP
0700
1F80
3900
7000
6000
DE00
FF00
F300
E180
E180
6380
7F00
3E00
ENDCHAR
STARTCHAR seven
ENCODING 55
SWIDTH 600 0
DWIDTH 12 0
BBX 9 12 1 0
BITMAP
FF80
7F80
4180
0380
0300
0300
0700
0600
0600
0E00
0C00
0C00
ENDCHAR
STARTCHAR eight
ENCODING 56
SWIDTH 600 0
DWIDTH 12 0
BBX 8 13 2 0
BITMAP
3C
7E
E7
C3
C3
E7
7E
7E
C3
C3
C3
FF
7E
ENDCHAR
STARTCHAR nine
ENCODING 57
SWIDTH 600 0
DWIDTH 12 0
BBX 9 13 2 0
BITMAP
1C00
7E00
6700
C300
C180
E380
7F80
3D80
0300
0300
0700
FE00
F800
ENDCHAR
STARTCHAR colon
ENCODING 58
SWIDTH 600 0
DWIDTH 12 0
BBX 2 9 5 0
BITMAP
C0
C0
C0
00
00
00
00
C0
C0
ENDCHAR
STARTCHAR semicolon
ENCODING 59
SWIDTH 600 0
DWIDTH 12 0
BBX 4 12 3 -3
BITMAP
20
70
70
00
00
00
70
60
60
C0
C0
80
ENDCHAR
STARTCHAR less
ENCODING 60
SWIDTH 600 0
DWIDTH 12 0
BBX 10 9 1 1
BITMAP
00C0
03C0
0F00
3C00
F000
3C00
0F00
03C0
00C0
ENDCHAR
STARTCHAR equal
ENCODING 61
SWIDTH 600 0
DWIDTH 12 0
BBX 10 5 1 3
BITMAP
FFC0
7F80
0000
FFC0
FFC0
ENDCHAR
STARTCHAR greater
ENCODING 62
SWIDTH 600 0
DWIDTH 12 0
BBX 10 9 1 1
BITMAP
C000
F000
3C00
0F00
03C0
0F00
3C00
F000
C000
ENDCHAR
STARTCHAR question
ENCODING 63
SWIDTH 600 0
DWIDTH 12 0
BBX 8 12 2 0
BITMAP
3C
FF
C3
C3
03
0F
1E
18
00
00
18
18
ENDCHAR
STARTCHAR at
ENCODING 64
SWIDTH 600 0
DWIDTH 12 0
BBX 8 15 2 -3
BITMAP
3C
66
C3
83
8F
9F
93
B3
93
9F
87
C0
C0
7F
3E
ENDCHAR
STARTCHAR A
ENCODING 65
SWIDTH 600 0
DWIDTH 12 0
BBX 12 12 0 0
BITMAP
3E00
7F00
0F00
0F00
1980
1980
39C0
3FC0
3FC0
6060
F9F0
F9F0
ENDCHAR
STARTCHAR B
ENCODING 66
SWIDTH 600 0
DWIDTH 12 0
BBX 11 12 0 0
BITMAP
7F00
FFC0
30C0
3060
30C0
3FC0
3FC0
30E0
3060
3060
FFE0
FFC0
ENDCHAR
STARTCHAR C
ENCODING 67
SWIDTH 600 0
DWIDTH 12 0
BBX 10 12 1 0
BITMAP
1EC0
7FC0
61C0
C0C0
C0C0
C000
C000
C000
C000
E0C0
7FC0
3F80
ENDCHAR
STARTCHAR D
ENCODING 68
SWIDTH 600 0
DWIDTH 12 0
BBX 11 12 0 0
BITMAP
7E00
FF80
61C0
60E0
6060
6060
6060
6060
6060
60C0
FFC0
FF00
ENDCHAR
STARTCHAR E
ENCODING 69
SWIDTH 600 0
DWIDTH 12 0
BBX 11 12 0 0
BITMAP
7FE0
FFE0
3060
3060
3340
3F00
3F00
3300
3260
3060
FFE0
FFE0
ENDCHAR
STARTCHAR F
ENCODING 70
SWIDTH 600 0
DWIDTH 12 0
BBX 11 12 0 0
BITMAP
7FE0
FFE0
3060
3060
3360
3F00
3F00
3300
3200
3000
FE00
FE00
ENDCHAR
STARTCHAR G
ENCODING 71
SWIDTH 600 0
DWIDTH 12 0
BBX 11 12 1 0
BITMAP
1FC0
7FC0
61C0
C0C0
C000
C000
C7C0
C7E0
C0C0
E0C0
7FC0
3F80
ENDCHAR
STARTCHAR H
ENCODING 72
SWIDTH 600 0
DWIDTH 12 0
BBX 11 12 1 0
BITMAP
F3C0
FBC0
6180
6180
6180
7F80
7F80
6180
6180
6180
F3E0
F3E0
ENDCHAR
STARTCHAR I
ENCODING 73
SWIDTH 600 0
DWIDTH 12 0
BBX 8 12 2 0
BITMAP
FF
FF
18
18
18
18
18
18
18
18
FF
FF
ENDCHAR
STARTCHAR J
ENCODING 74
SWIDTH 600 0
DWIDTH 12 0
BBX 11 12 1 0
BITMAP
0FE0
1FE0
0180
0180
0180
0180
4180
C180
C180
C380
FF00
7E00
ENDCHAR
STARTCHAR K
ENCODING 75
SWIDTH 600 0
DWIDTH 12 0
BBX 12 12 0 0
BITMAP
79E0
FDE0
31C0
3380
3700
3E00
3F00
3380
3180
31C0
FCF0
FCF0
ENDCHAR
STARTCHAR L
ENCODING 76
SWIDTH 600 0
DWIDTH 12 0
BBX 10 12 1 0
BITMAP
FC00
FE00
3000
3000
3000
3000
3000
3040
30C0
30C0
FFC0
FFC0
ENDCHAR
STARTCHAR M
ENCODING 77
SWIDTH 600 0
DWIDTH 12 0
BBX 12 12 0 0
BITMAP
E070
F0F0
70E0
79E0
79E0
7FE0
6F60
6F60
6660
6060
F9F0
F9F0
ENDCHAR
STARTCHAR N
ENCODING 78
SWIDTH 600 0
DWIDTH 12 0
BBX 12 12 0 0
BITMAP
F1E0
F1F0
7860
7C60
6C60
6E60
6760
6360
63E0
61E0
F8E0
F8E0
ENDCHAR
STARTCHAR O
ENCODING 79
SWIDTH 600 0
DWIDTH 12 0
BBX 12 12 0 0
BITMAP
0F00
3FC0
30E0
6060
6060
C030
C030
6060
6060
70E0
3FC0
1F80
ENDCHAR
STARTCHAR P
ENCODING 80
SWIDTH 600 0
DWIDTH 12 0
BBX 11 12 0 0
BITMAP
7F00
FF80
31C0
30E0
30E0
30C0
3FC0
3F00
3000
3000
FE00
FE00
ENDCHAR
STARTCHAR Q
ENCODING 81
SWIDTH 600 0
DWIDTH 12 0
BBX 12 15 0 -3
BITMAP
0F00
3FC0
30C0
6060
6060
C030
C030
6060
6060
70E0
3FC0
1F80
1820
3FF0
19C0
ENDCHAR
STARTCHAR R
ENCODING 82
SWIDTH 600 0
DWIDTH 12 0
BBX 12 12 0 0
BITMAP
FE00
FF80
31C0
30C0
30C0
33C0
3F80
3F80
31C0
30C0
FCF0
FC70
ENDCHAR
STARTCHAR S
ENCODING 83
SWIDTH 600 0
DWIDTH 12 0
BBX 10 12 1 0
BITMAP
1E80
7F80
6180
6180
6000
7E00
1F80
03C0
C0C0
E1C0
FF80
FF00
ENDCHAR
STARTCHAR T
ENCODING 84
SWIDTH 600 0
DWIDTH 12 0
BBX 10 12 1 0
BITMAP
FFC0
FFC0
CCC0
CCC0
CCC0
0C00
0C00
0C00
0C00
0C00
7F80
7F80
ENDCHAR
STARTCHAR U
ENCODING 85
SWIDTH 600 0
DWIDTH 12 0
BBX 12 12 0 0
BITMAP
79E0
F9F0
6060
6060
6060
6060
6060
6060
6060
30C0
3FC0
1F80
ENDCHAR
STARTCHAR V
ENCODING 86
SWIDTH 600 0
DWIDTH 12 0
BBX 12 12 0 0
BITMAP
F0F0
F9F0
6060
70E0
30C0
38C0
1980
1980
0F00
0F00
0F00
0600
ENDCHAR
STARTCHAR W
ENCODING 87
SWIDTH 600 0
DWIDTH 12 0
BBX 12 12 0 0
BITMAP
F9F0
F9F0
6060
6660
6760
6F60
6F60
6FE0
39C0
39C0
39C0
30C0
ENDCHAR
STARTCHAR X
ENCODING 88
SWIDTH 600 0
DWIDTH 12 0
BBX 12 12 0 0
BITMAP
70E0
F9F0
30C0
1980
1F80
0F00
0F00
1F80
1980
30C0
F9F0
F9F0
ENDCHAR
STARTCHAR Y
ENCODING 89
SWIDTH 600 0
DWIDTH 12 0
BBX 12 12 0 0
BITMAP
70E0
F9F0
30C0
1980
1F80
0F00
0600
0600
0600
0600
3FC0
3FC0
ENDCHAR
STARTCHAR Z
ENCODING 90
SWIDTH 600 0
DWIDTH 12 0
BBX 10 12 1 0
BITMAP
7F80
7F80
6380
6300
6600
0E00
1C00
3880
30C0
60C0
FFC0
FFC0
ENDCHAR
STARTCHAR bracketleft
ENCODING 91
SWIDTH 600 0
DWIDTH 12 0
BBX 4 15 5 -3
BITMAP
F0
F0
C0
C0
C0
C0
C0
C0
C0
C0
C0
C0
C0
F0
F0
ENDCHAR
STARTCHAR backslash
ENCODING 92
SWIDTH 600 0
DWIDTH 12 0
BBX 8 16 2 -2
BITMAP
80
C0
C0
60
60
30
30
18
18
0C
0C
0E
06
07
03
03
ENDCHAR
STARTCHAR bracketright
ENCODING 93
SWIDTH 600 0
DWIDTH 12 0
BBX 4 15 3 -3
BITMAP
F0
F0
30
30
30
30
30
30
30
30
30
30
30
F0
F0
ENDCHAR
STARTCHAR asciicircum
ENCODING 94
SWIDTH 600 0
DWIDTH 12 0
BBX 8 6 2 7
BITMAP
10
18
3C
7E
E7
C3
ENDCHAR
STARTCHAR underscore
ENCODING 95
SWIDTH 600 0
DWIDTH 12 0
BBX 12 2 0 -4
BITMAP
FFF0
FFF0
ENDCHAR
STARTCHAR grave
ENCODING 96
SWIDTH 600 0
DWIDTH 12 0
BBX 4 3 3 10
BITMAP
C0
60
30
ENDCHAR
STARTCHAR a
ENCODING 97
SWIDTH 600 0
DWIDTH 12 0
BBX 10 9 1 0
BITMAP
3E00
7F00
0180
1F80
7F80
E180
C380
FFC0
7FC0
ENDCHAR
STARTCHAR b
ENCODING 98
SWIDTH 600 0
DWIDTH 12 0
BBX 11 12 0 0
BITMAP
E000
6000
6000
6F80
7FC0
78E0
7060
6060
7060
7060
FFC0
EF80
ENDCHAR
STARTCHAR c
ENCODING 99
SWIDTH 600 0
DWIDTH 12 0
BBX 10 9 1 0
BITMAP
1FC0
7FC0
61C0
C0C0
C000
C000
E040
7FC0
3F80
ENDCHAR
STARTCHAR d
ENCODING 100
SWIDTH 600 0
DWIDTH 12 0
BBX 11 12 1 0
BITMAP
03C0
01C0
00C0
3EC0
7FC0
E1C0
C1C0
C0C0
C1C0
C1C0
7FE0
3EE0
ENDCHAR
STARTCHAR e
ENCODING 101
SWIDTH 600 0
DWIDTH 12 0
BBX 10 9 1 0
BITMAP
3E00
7F80
E180
C0C0
FFC0
FFC0
C000
7FC0
3F80
ENDCHAR
STARTCHAR f
ENCODING 102
SWIDTH 600 0
DWIDTH 12 0
BBX 9 12 2 0
BITMAP
1F80
3F80
3000
FF00
FF00
3000
3000
3000
3000
3000
FF00
FF00
ENDCHAR
STARTCHAR g
ENCODING 103
SWIDTH 600 0
DWIDTH 12 0
BBX 11 13 1 -4
BITMAP
3DC0
7FE0
E380
C180
C180
C180
C380
7F80
3F80
0180
0180
3F80
3E00
ENDCHAR
STARTCHAR h
ENCODING 104
SWIDTH 600 0
DWIDTH 12 0
BBX 12 12 0 0
BITMAP
F000
7000
3000
3780
3FC0
38C0
30C0
30C0
30C0
30C0
79F0
79F0
ENDCHAR
STARTCHAR i
ENCODING 105
SWIDTH 600 0
DWIDTH 12 0
BBX 10 12 1 0
BITMAP
1C00
1C00
0000
7C00
7C00
0C00
0C00
0C00
0C00
0C00
FFC0
FFC0
ENDCHAR
STARTCHAR j
ENCODING 106
SWIDTH 600 0
DWIDTH 12 0
BBX 7 16 2 -4
BITMAP
0C
0C
00
FE
FE
06
06
06
06
06
06
06
06
06
FC
F8
ENDCHAR
STARTCHAR k
ENCODING 107
SWIDTH 600 0
DWIDTH 12 0
BBX 10 12 1 0
BITMAP
E000
E000
6000
6780
6780
6E00
7C00
7C00
7E00
6700
E3C0
E3C0
ENDCHAR
STARTCHAR l
ENCODING 108
SWIDTH 600 0
DWIDTH 12 0
BBX 10 12 1 0
BITMAP
7C00
3C00
0C00
0C00
0C00
0C00
0C00
0C00
0C00
0C00
FFC0
FFC0
ENDCHAR
STARTCHAR m
ENCODING 109
SWIDTH 600 0
DWIDTH 12 0
BBX 12 9 0 0
BITMAP
FDC0
FFE0
6660
6660
6660
6660
6660
F770
F770
ENDCHAR
STARTCHAR n
ENCODING 110
SWIDTH 600 0
DWIDTH 12 0
BBX 10 9 1 0
BITMAP
EF00
FF80
7180
6180
6180
6180
6180
F3C0
F3C0
ENDCHAR
STARTCHAR o
ENCODING 111
SWIDTH 600 0
DWIDTH 12 0
BBX 10 9 1 0
BITMAP
1E00
7F80
E1C0
C0C0
C0C0
C0C0
E1C0
7F80
3F00
ENDCHAR
STARTCHAR p
ENCODING 112
SWIDTH 600 0
DWIDTH 12 0
BBX 12 13 0 -4
BITMAP
F780
FFC0
3860
3060
3030
3060
38E0
3FC0
3780
3000
3000
FC00
FC00
ENDCHAR
STARTCHAR q
ENCODING 113
SWIDTH 600 0
DWIDTH 12 0
BBX 12 13 0 -4
BITMAP
1EF0
3FF0
61C0
60C0
C0C0
60C0
71C0
3FC0
1EC0
00C0
00C0
03F0
03F0
ENDCHAR
STARTCHAR r
ENCODING 114
SWIDTH 600 0
DWIDTH 12 0
BBX 10 9 1 0
BITMAP
7BC0
7FC0
1E40
1800
1800
1800
1800
FF80
FF80
ENDCHAR
STARTCHAR s
ENCODING 115
SWIDTH 600 0
DWIDTH 12 0
BBX 10 9 1 0
BITMAP
3F80
7F80
6180
7800
3F80
0780
C1C0
FF80
7F00
ENDCHAR
STARTCHAR t
ENCODING 116
SWIDTH 600 0
DWIDTH 12 0
BBX 11 12 0 0
BITMAP
1000
3000
3000
7F80
FF80
3000
3000
3000
3000
3040
3FE0
1FC0
ENDCHAR
STARTCHAR u
ENCODING 117
SWIDTH 600 0
DWIDTH 12 0
BBX 11 9 0 0
BITMAP
71C0
F3C0
30C0
30C0
30C0
30C0
30C0
3FE0
1FE0
ENDCHAR
STARTCHAR v
ENCODING 118
SWIDTH 600 0
DWIDTH 12 0
BBX 12 9 0 0
BITMAP
F9F0
F9F0
30C0
30C0
1980
1D80
0F00
0F00
0600
ENDCHAR
STARTCHAR w
ENCODING 119
SWIDTH 600 0
DWIDTH 12 0
BBX 12 9 0 0
BITMAP
F0F0
F0F0
6660
7660
3FC0
3FC0
3FC0
39C0
1980
ENDCHAR
STARTCHAR x
ENCODING 120
SWIDTH 600 0
DWIDTH 12 0
BBX 10 9 1 0
BITMAP
F3C0
F3C0
7380
3F00
1E00
3F00
7380
F3C0
F3C0
ENDCHAR
STARTCHAR y
ENCODING 121
SWIDTH 600 0
DWIDTH 12 0
BBX 12 13 0 -4
BITMAP
79E0
F9F0
30C0
30C0
1980
1980
0F00
0F00
0600
0600
0C00
7E00
7E00
ENDCHAR
STARTCHAR z
ENCODING 122
SWIDTH 600 0
DWIDTH 12 0
BBX 8 9 2 0
BITMAP
FF
FF
C6
CC
18
30
63
FF
FF
ENDCHAR
STARTCHAR braceleft
ENCODING 123
SWIDTH 600 0
DWIDTH 12 0
BBX 6 15 3 -3
BITMAP
1C
38
30
30
30
30
F0
E0
70
30
30
30
30
3C
1C
ENDCHAR
STARTCHAR bar
ENCODING 124
SWIDTH 600 0
DWIDTH 12 0
BBX 2 15 5 -3
BITMAP
C0
C0
C0
C0
C0
C0
C0
C0
C0
C0
C0
C0
C0
C0
C0
ENDCHAR
STARTCHAR braceright
ENCODING 125
SWIDTH 600 0
DWIDTH 12 0
BBX 6 15 3 -3
BITMAP
E0
70
30
30
30
30
3C
1C
38
30
30
30
30
F0
E0
ENDCHAR
STARTCHAR asciitilde
ENCODING 126
SWIDTH 600 0
DWIDTH 12 0
BBX 10 4 1 4
BITMAP
3000
7CC0
EF80
C780
ENDCHAR
STARTCHAR nonbreakingspace
ENCODING 160
SWIDTH 600 0
DWIDTH 12 0
BBX 1 1 0 0
BITMAP
00
ENDCHAR
STARTCHAR exclamdown
ENCODING 161
SWIDTH 600 0
DWIDTH 12 0
BBX 4 13 4 -4
BITMAP
60
60
00
00
60
60
60
60
60
60
F0
F0
60
ENDCHAR
STARTCHAR cent
ENCODING 162
SWIDTH 600 0
DWIDTH 12 0
BBX 8 14 2 -1
BITMAP
18
18
18
7F
F7
C3
C0
C0
E3
7F
3E
18
18
18
ENDCHAR
STARTCHAR sterling
ENCODING 163
SWIDTH 600 0
DWIDTH 12 0
BBX 10 12 1 0
BITMAP
1E00
3F00
3300
3000
3000
FC00
FE00
3000
3000
30C0
FFC0
FF80
ENDCHAR
STARTCHAR currency
ENCODING 164
SWIDTH 600 0
DWIDTH 12 0
BBX 10 9 1 1
BITMAP
ED80
7F80
7380
6180
6180
7380
7F80
FFC0
4080
ENDCHAR
STARTCHAR yen
ENCODING 165
SWIDTH 600 0
DWIDTH 12 0
BBX 12 12 0 0
BITMAP
70E0
F9F0
30C0
19C0
1F80
0F00
1F80
1F80
3FC0
0600
1F80
1F80
ENDCHAR
STARTCHAR brokenbar
ENCODING 166
SWIDTH 600 0
DWIDTH 12 0
BBX 2 15 5 -3
BITMAP
C0
C0
C0
C0
C0
C0
00
00
C0
C0
C0
C0
C0
C0
C0
ENDCHAR
STARTCHAR section
ENCODING 167
SWIDTH 600 0
DWIDTH 12 0
BBX 10 15 1 -3
BITMAP
0F80
3F80
3080
2080
7000
FC00
CF00
E380
70C0
1CC0
0FC0
0380
4100
4300
7F00
ENDCHAR
STARTCHAR dieresis
ENCODING 168
SWIDTH 600 0
DWIDTH 12 0
BBX 6 2 3 11
BITMAP
CC
CC
ENDCHAR
STARTCHAR copyright
ENCODING 169
SWIDTH 600 0
DWIDTH 12 0
BBX 12 12 0 0
BITMAP
0F00
3FC0
6060
CFB0
D9B0
9010
9010
9030
DFB0
6660
30C0
1F80
ENDCHAR
STARTCHAR ordfeminine
ENCODING 170
SWIDTH 600 0
DWIDTH 12 0
BBX 8 9 2 3
BITMAP
7C
7E
3E
7E
C6
7F
30
7E
7E
ENDCHAR
STARTCHAR guillemotleft
ENCODING 171
SWIDTH 600 0
DWIDTH 12 0
BBX 10 8 1 0
BITMAP
0CC0
1980
7300
EE00
6700
3180
1CC0
0440
ENDCHAR
STARTCHAR logicalnot
ENCODING 172
SWIDTH 600 0
DWIDTH 12 0
BBX 8 7 1 2
BITMAP
FF
FF
03
03
03
03
01
ENDCHAR
STARTCHAR softhyphen
ENCODING 173
SWIDTH 600 0
DWIDTH 12 0
BBX 10 2 1 5
BITMAP
7FC0
FFC0
ENDCHAR
STARTCHAR registered
ENCODING 174
SWIDTH 600 0
DWIDTH 12 0
BBX 12 12 0 0
BITMAP
0F00
3FC0
6060
DF30
C930
8910
8E10
8B30
DDB0
6060
30C0
1F80
ENDCHAR
STARTCHAR macron
ENCODING 175
SWIDTH 600 0
DWIDTH 12 0
BBX 6 2 3 11
BITMAP
FC
FC
ENDCHAR
STARTCHAR degree
ENCODING 176
SWIDTH 600 0
DWIDTH 12 0
BBX 6 7 3 5
BITMAP
78
CC
84
84
84
CC
78
ENDCHAR
STARTCHAR plusminus
ENCODING 177
SWIDTH 600 0
DWIDTH 12 0
BBX 10 12 1 0
BITMAP
0C00
0C00
0C00
FFC0
FFC0
0C00
0C00
0C00
0C00
0000
FFC0
FFC0
ENDCHAR
STARTCHAR twosuperior
ENCODING 178
SWIDTH 600 0
DWIDTH 12 0
BBX 6 8 3 7
BITMAP
78
C8
08
18
30
60
FC
FC
ENDCHAR
STARTCHAR threesuperior
ENCODING 179
SWIDTH 600 0
DWIDTH 12 0
BBX 6 8 3 7
BITMAP
78
4C
08
38
0C
0C
F8
30
ENDCHAR
STARTCHAR acute
ENCODING 180
SWIDTH 600 0
DWIDTH 12 0
BBX 4 3 5 10
BITMAP
30
60
C0
ENDCHAR
STARTCHAR micro
ENCODING 181
SWIDTH 600 0
DWIDTH 12 0
BBX 11 12 0 -3
BITMAP
71C0
F3C0
30C0
30C0
30C0
30C0
30C0
3FE0
3FE0
3000
3000
3000
ENDCHAR
STARTCHAR paragraph
ENCODING 182
SWIDTH 600 0
DWIDTH 12 0
BBX 10 15 1 -3
BITMAP
0FC0
7FC0
ED00
CD00
CD00
CD00
7D00
3D00
0D00
0D00
0D00
0D00
0D00
0D00
3FC0
ENDCHAR
STARTCHAR middot
ENCODING 183
SWIDTH 600 0
DWIDTH 12 0
BBX 2 2 5 4
BITMAP
C0
C0
ENDCHAR
STARTCHAR cedilla
ENCODING 184
SWIDTH 600 0
DWIDTH 12 0
BBX 4 4 4 -4
BITMAP
60
30
F0
E0
ENDCHAR
STARTCHAR onesuperior
ENCODING 185
SWIDTH 600 0
DWIDTH 12 0
BBX 6 8 3 7
BITMAP
70
F0
30
30
30
30
FC
78
ENDCHAR
STARTCHAR ordmasculine
ENCODING 186
SWIDTH 600 0
DWIDTH 12 0
BBX 6 9 3 3
BITMAP
78
FC
84
84
CC
FC
30
FC
FC
ENDCHAR
STARTCHAR guillemotright
ENCODING 187
SWIDTH 600 0
DWIDTH 12 0
BBX 10 8 1 0
BITMAP
CC00
6700
3380
1DC0
3980
6300
C600
8000
ENDCHAR
STARTCHAR onequarter
ENCODING 188
SWIDTH 600 0
DWIDTH 12 0
BBX 14 13 -1 0
BITMAP
1000
F020
3040
30C0
3080
3198
3138
FF38
0678
0458
0CFC
0818
003C
ENDCHAR
STARTCHAR onehalf
ENCODING 189
SWIDTH 600 0
DWIDTH 12 0
BBX 14 13 -1 0
BITMAP
1000
F020
3040
30C0
3080
31B0
31F8
FFC8
0608
0410
0C60
08CC
00FC
ENDCHAR
STARTCHAR threequarters
ENCODING 190
SWIDTH 600 0
DWIDTH 12 0
BBX 14 13 -1 0
BITMAP
3000
7820
0C40
38C0
3880
0D98
0D18
FB28
0668
0448
0CFC
0808
003C
ENDCHAR
STARTCHAR questiondown
ENCODING 191
SWIDTH 600 0
DWIDTH 12 0
BBX 8 12 2 -4
BITMAP
18
18
00
00
18
78
F0
C0
C3
C3
FF
3C
ENDCHAR
STARTCHAR Agrave
ENCODING 192
SWIDTH 600 0
DWIDTH 12 0
BBX 12 16 0 0
BITMAP
0800
0C00
0600
0000
3E00
7F00
0F00
0F00
1980
1980
39C0
3FC0
3FC0
6060
F9F0
F9F0
ENDCHAR
STARTCHAR Aacute
ENCODING 193
SWIDTH 600 0
DWIDTH 12 0
BBX 12 16 0 0
BITMAP
0300
0600
0C00
0000
3E00
7F00
0F00
0F00
1980
1980
39C0
3FC0
3FC0
6060
F9F0
F9F0
ENDCHAR
STARTCHAR Acircumflex
ENCODING 194
SWIDTH 600 0
DWIDTH 12 0
BBX 12 16 0 0
BITMAP
0400
0F00
3980
0000
3E00
7F00
0F00
0F00
1980
1980
39C0
3FC0
3FC0
6060
F9F0
F9F0
ENDCHAR
STARTCHAR Atilde
ENCODING 195
SWIDTH 600 0
DWIDTH 12 0
BBX 12 15 0 0
BITMAP
1C80
3780
0000
3E00
7F00
0F00
0F00
1980
1980
39C0
3FC0
3FC0
6060
F9F0
F9F0
ENDCHAR
STARTCHAR Adieresis
ENCODING 196
SWIDTH 600 0
DWIDTH 12 0
BBX 12 15 0 0
BITMAP
1980
1980
0000
3E00
7F00
0F00
0F00
1980
1980
39C0
3FC0
3FC0
6060
F9F0
F9F0
ENDCHAR
STARTCHAR Aring
ENCODING 197
SWIDTH 600 0
DWIDTH 12 0
BBX 12 16 0 0
BITMAP
0600
0B00
0F00
0600
3E00
7F00
0F00
0F00
1980
1980
39C0
3FC0
3FC0
6060
F9F0
F9F0
ENDCHAR
STARTCHAR AE
ENCODING 198
SWIDTH 600 0
DWIDTH 12 0
BBX 12 12 0 0
BITMAP
3FF0
3FF0
1E30
1E30
1EF0
37C0
37C0
3EC0
3E10
6630
FFF0
FFF0
ENDCHAR
STARTCHAR Ccedilla
ENCODING 199
SWIDTH 600 0
DWIDTH 12 0
BBX 10 16 1 -4
BITMAP
1EC0
7FC0
61C0
C0C0
C0C0
C000
C000
C000
C000
E0C0
7FC0
3F80
0C00
0600
1A00
1E00
ENDCHAR
STARTCHAR Egrave
ENCODING 200
SWIDTH 600 0
DWIDTH 12 0
BBX 11 16 0 0
BITMAP
0800
0C00
0600
0000
7FE0
FFE0
3060
3060
3340
3F00
3F00
3300
3260
3060
FFE0
FFE0
ENDCHAR
STARTCHAR Eacute
ENCODING 201
SWIDTH 600 0
DWIDTH 12 0
BBX 11 16 0 0
BITMAP
0300
0600
0C00
0000
7FE0
FFE0
3060
3060
3340
3F00
3F00
3300
3260
3060
FFE0
FFE0
ENDCHAR
STARTCHAR Ecircumflex
ENCODING 202
SWIDTH 600 0
DWIDTH 12 0
BBX 11 16 0 0
BITMAP
0400
0F00
3980
0000
7FE0
FFE0
3060
3060
3340
3F00
3F00
3300
3260
3060
FFE0
FFE0
ENDCHAR
STARTCHAR Edieresis
ENCODING 203
SWIDTH 600 0
DWIDTH 12 0
BBX 11 15 0 0
BITMAP
1980
1980
0000
7FE0
FFE0
3060
3060
3340
3F00
3F00
3300
3260
3060
FFE0
FFE0
ENDCHAR
STARTCHAR Igrave
ENCODING 204
SWIDTH 600 0
DWIDTH 12 0
BBX 8 16 2 0
BITMAP
20
38
0C
00
FF
FF
18
18
18
18
18
18
18
18
FF
FF
ENDCHAR
STARTCHAR Iacute
ENCODING 205
SWIDTH 600 0
DWIDTH 12 0
BBX 8 16 2 0
BITMAP
06
0C
18
00
FF
FF
18
18
18
18
18
18
18
18
FF
FF
ENDCHAR
STARTCHAR Icircumflex
ENCODING 206
SWIDTH 600 0
DWIDTH 12 0
BBX 8 16 2 0
BITMAP
10
3C
E6
00
FF
FF
18
18
18
18
18
18
18
18
FF
FF
ENDCHAR
STARTCHAR Idieresis
ENCODING 207
SWIDTH 600 0
DWIDTH 12 0
BBX 8 15 2 0
BITMAP
66
66
00
FF
FF
18
18
18
18
18
18
18
18
FF
FF
ENDCHAR
STARTCHAR Eth
ENCODING 208
SWIDTH 600 0
DWIDTH 12 0
BBX 11 12 0 0
BITMAP
7E00
FF80
61C0
60E0
6060
FC60
FC60
6060
6060
60C0
FFC0
FF00
ENDCHAR
STARTCHAR Ntilde
ENCODING 209
SWIDTH 600 0
DWIDTH 12 0
BBX 12 15 0 0
BITMAP
1CC0
3780
0000
F1E0
F1F0
7860
7C60
6C60
6E60
6760
6360
63E0
61E0
F8E0
F8E0
ENDCHAR
STARTCHAR Ograve
ENCODING 210
SWIDTH 600 0
DWIDTH 12 0
BBX 12 16 0 0
BITMAP
0800
0E00
0300
0000
0F00
3FC0
30E0
6060
6060
C030
C030
6060
6060
70E0
3FC0
1F80
ENDCHAR
STARTCHAR Oacute
ENCODING 211
SWIDTH 600 0
DWIDTH 12 0
BBX 12 16 0 0
BITMAP
0300
0600
0C00
0000
0F00
3FC0
30E0
6060
6060
C030
C030
6060
6060
70E0
3FC0
1F80
ENDCHAR
STARTCHAR Ocircumflex
ENCODING 212
SWIDTH 600 0
DWIDTH 12 0
BBX 12 15 0 0
BITMAP
0F00
1980
0000
0F00
3FC0
30E0
6060
6060
C030
C030
6060
6060
70E0
3FC0
1F80
ENDCHAR
STARTCHAR Otilde
ENCODING 213
SWIDTH 600 0
DWIDTH 12 0
BBX 12 15 0 0
BITMAP
1EC0
3780
0000
0F00
3FC0
30E0
6060
6060
C030
C030
6060
6060
70E0
3FC0
1F80
ENDCHAR
STARTCHAR Odieresis
ENCODING 214
SWIDTH 600 0
DWIDTH 12 0
BBX 12 15 0 0
BITMAP
1980
1980
0000
0F00
3FC0
30E0
6060
6060
C030
C030
6060
6060
70E0
3FC0
1F80
ENDCHAR
STARTCHAR multiply
ENCODING 215
SWIDTH 600 0
DWIDTH 12 0
BBX 8 7 2 2
BITMAP
E7
7E
3C
3C
7E
E7
C3
ENDCHAR
STARTCHAR Oslash
ENCODING 216
SWIDTH 600 0
DWIDTH 12 0
BBX 12 14 0 -1
BITMAP
0020
0F70
3FE0
30C0
61E0
63E0
C730
C630
6C60
7860
78E0
7FC0
7F80
C000
ENDCHAR
STARTCHAR Ugrave
ENCODING 217
SWIDTH 600 0
DWIDTH 12 0
BBX 12 16 0 0
BITMAP
0800
0E00
0300
0000
79E0
F9F0
6060
6060
6060
6060
6060
6060
6060
30C0
3FC0
1F80
ENDCHAR
STARTCHAR Uacute
ENCODING 218
SWIDTH 600 0
DWIDTH 12 0
BBX 12 16 0 0
BITMAP
0300
0600
0C00
0000
79E0
F9F0
6060
6060
6060
6060
6060
6060
6060
30C0
3FC0
1F80
ENDCHAR
STARTCHAR Ucircumflex
ENCODING 219
SWIDTH 600 0
DWIDTH 12 0
BBX 12 16 0 0
BITMAP
0600
0F00
1980
0000
79E0
F9F0
6060
6060
6060
6060
6060
6060
6060
30C0
3FC0
1F80
ENDCHAR
STARTCHAR Udieresis
ENCODING 220
SWIDTH 600 0
DWIDTH 12 0
BBX 12 15 0 0
BITMAP
1980
1980
0000
79E0
F9F0
6060
6060
6060
6060
6060
6060
6060
30C0
3FC0
1F80
ENDCHAR
STARTCHAR Yacute
ENCODING 221
SWIDTH 600 0
DWIDTH 12 0
BBX 12 16 0 0
BITMAP
0100
0300
0600
0000
70E0
F9F0
30C0
1980
1F80
0F00
0600
0600
0600
0600
3FC0
3FC0
ENDCHAR
STARTCHAR Thorn
ENCODING 222
SWIDTH 600 0
DWIDTH 12 0
BBX 10 12 0 0
BITMAP
7E00
FE00
3000
3F00
3FC0
30C0
30C0
3FC0
3F80
3000
FE00
FE00
ENDCHAR
STARTCHAR germandbls
ENCODING 223
SWIDTH 600 0
DWIDTH 12 0
BBX 11 12 0 0
BITMAP
1F00
3F80
3180
3180
3700
3780
31C0
30C0
3060
36E0
FFC0
FBC0
ENDCHAR
STARTCHAR agrave
ENCODING 224
SWIDTH 600 0
DWIDTH 12 0
BBX 10 13 1 0
BITMAP
1000
1C00
0400
0000
3E00
7F00
0180
1F80
7F80
E180
C380
FFC0
7FC0
ENDCHAR
STARTCHAR aacute
ENCODING 225
SWIDTH 600 0
DWIDTH 12 0
BBX 10 13 1 0
BITMAP
0600
0C00
1800
0000
3E00
7F00
0180
1F80
7F80
E180
C380
FFC0
7FC0
ENDCHAR
STARTCHAR acircumflex
ENCODING 226
SWIDTH 600 0
DWIDTH 12 0
BBX 10 13 1 0
BITMAP
0C00
3E00
6300
0000
3E00
7F00
0180
1F80
7F80
E180
C380
FFC0
7FC0
ENDCHAR
STARTCHAR atilde
ENCODING 227
SWIDTH 600 0
DWIDTH 12 0
BBX 10 12 1 0
BITMAP
3D00
4700
0000
3E00
7F00
0180
1F80
7F80
E180
C380
FFC0
7FC0
ENDCHAR
STARTCHAR adieresis
ENCODING 228
SWIDTH 600 0
DWIDTH 12 0
BBX 10 12 1 0
BITMAP
3300
3300
0000
3E00
7F00
0180
1F80
7F80
E180
C380
FFC0
7FC0
ENDCHAR
STARTCHAR aring
ENCODING 229
SWIDTH 600 0
DWIDTH 12 0
BBX 10 13 1 0
BITMAP
1C00
1600
1C00
0000
3E00
7F00
0180
1F80
7F80
E180
C380
FFC0
7FC0
ENDCHAR
STARTCHAR ae
ENCODING 230
SWIDTH 600 0
DWIDTH 12 0
BBX 12 9 0 0
BITMAP
3DC0
7FE0
0730
3E30
FFF0
C7F0
C700
FFF0
7FF0
ENDCHAR
STARTCHAR ccedilla
ENCODING 231
SWIDTH 600 0
DWIDTH 12 0
BBX 10 13 1 -4
BITMAP
1FC0
7FC0
61C0
C0C0
C000
C000
E040
7FC0
3F80
0C00
0600
1A00
1E00
ENDCHAR
STARTCHAR egrave
ENCODING 232
SWIDTH 600 0
DWIDTH 12 0
BBX 10 13 1 0
BITMAP
1800
0C00
0400
0000
3E00
7F80
E180
C0C0
FFC0
FFC0
C000
7FC0
3F80
ENDCHAR
STARTCHAR eacute
ENCODING 233
SWIDTH 600 0
DWIDTH 12 0
BBX 10 13 1 0
BITMAP
0600
0C00
0800
0000
3E00
7F80
E180
C0C0
FFC0
FFC0
C000
7FC0
3F80
ENDCHAR
STARTCHAR ecircumflex
ENCODING 234
SWIDTH 600 0
DWIDTH 12 0
BBX 10 13 1 0
BITMAP
0C00
3E00
6300
0000
3E00
7F80
E180
C0C0
FFC0
FFC0
C000
7FC0
3F80
ENDCHAR
STARTCHAR edieresis
ENCODING 235
SWIDTH 600 0
DWIDTH 12 0
BBX 10 12 1 0
BITMAP
3300
3300
0000
3E00
7F80
E180
C0C0
FFC0
FFC0
C000
7FC0
3F80
ENDCHAR
STARTCHAR igrave
ENCODING 236
SWIDTH 600 0
DWIDTH 12 0
BBX 10 13 1 0
BITMAP
1000
1C00
0400
0000
7C00
7C00
0C00
0C00
0C00
0C00
0C00
FFC0
FFC0
ENDCHAR
STARTCHAR iacute
ENCODING 237
SWIDTH 600 0
DWIDTH 12 0
BBX 10 13 1 0
BITMAP
0600
0C00
1800
0000
7C00
7C00
0C00
0C00
0C00
0C00
0C00
FFC0
FFC0
ENDCHAR
STARTCHAR icircumflex
ENCODING 238
SWIDTH 600 0
DWIDTH 12 0
BBX 10 13 1 0
BITMAP
0C00
3E00
6300
0000
7C00
7C00
0C00
0C00
0C00
0C00
0C00
FFC0
FFC0
ENDCHAR
STARTCHAR idieresis
ENCODING 239
SWIDTH 600 0
DWIDTH 12 0
BBX 10 12 1 0
BITMAP
3300
3300
0000
7C00
7C00
0C00
0C00
0C00
0C00
0C00
FFC0
FFC0
ENDCHAR
STARTCHAR eth
ENCODING 240
SWIDTH 600 0
DWIDTH 12 0
BBX 10 13 1 0
BITMAP
3300
3E00
3E00
2300
1F80
7FC0
E1C0
C0C0
C0C0
C0C0
E1C0
7F80
3F00
ENDCHAR
STARTCHAR ntilde
ENCODING 241
SWIDTH 600 0
DWIDTH 12 0
BBX 10 13 1 0
BITMAP
1000
7F00
0200
0000
EF00
FF80
7180
6180
6180
6180
6180
F3C0
F3C0
ENDCHAR
STARTCHAR ograve
ENCODING 242
SWIDTH 600 0
DWIDTH 12 0
BBX 10 13 1 0
BITMAP
1800
0C00
0400
0000
1E00
7F80
E1C0
C0C0
C0C0
C0C0
E1C0
7F80
3F00
ENDCHAR
STARTCHAR oacute
ENCODING 243
SWIDTH 600 0
DWIDTH 12 0
BBX 10 13 1 0
BITMAP
0600
0C00
0800
0000
1E00
7F80
E1C0
C0C0
C0C0
C0C0
E1C0
7F80
3F00
ENDCHAR
STARTCHAR ocircumflex
ENCODING 244
SWIDTH 600 0
DWIDTH 12 0
BBX 10 13 1 0
BITMAP
0C00
3E00
6300
0000
1E00
7F80
E1C0
C0C0
C0C0
C0C0
E1C0
7F80
3F00
ENDCHAR
STARTCHAR otilde
ENCODING 245
SWIDTH 600 0
DWIDTH 12 0
BBX 10 13 1 0
BITMAP
3100
7F00
0200
0000
1E00
7F80
E1C0
C0C0
C0C0
C0C0
E1C0
7F80
3F00
ENDCHAR
STARTCHAR odieresis
ENCODING 246
SWIDTH 600 0
DWIDTH 12 0
BBX 10 12 1 0
BITMAP
3300
3300
0000
1E00
7F80
E1C0
C0C0
C0C0
C0C0
E1C0
7F80
3F00
ENDCHAR
STARTCHAR divide
ENCODING 247
SWIDTH 600 0
DWIDTH 12 0
BBX 10 10 1 1
BITMAP
0C00
0C00
0C00
0000
FFC0
FFC0
0000
0000
0C00
0C00
ENDCHAR
STARTCHAR oslash
ENCODING 248
SWIDTH 600 0
DWIDTH 12 0
BBX 11 11 0 -1
BITMAP
0020
0F60
3FC0
71E0
63E0
6760
6E60
7CE0
3FC0
7F80
E000
ENDCHAR
STARTCHAR ugrave
ENCODING 249
SWIDTH 600 0
DWIDTH 12 0
BBX 11 13 0 0
BITMAP
0C00
0600
0200
0000
71C0
F3C0
30C0
30C0
30C0
30C0
30C0
3FE0
1FE0
ENDCHAR
STARTCHAR uacute
ENCODING 250
SWIDTH 600 0
DWIDTH 12 0
BBX 11 13 0 0
BITMAP
0300
0600
0C00
0000
71C0
F3C0
30C0
30C0
30C0
30C0
30C0
3FE0
1FE0
ENDCHAR
STARTCHAR ucircumflex
ENCODING 251
SWIDTH 600 0
DWIDTH 12 0
BBX 11 13 0 0
BITMAP
0600
1F00
3180
0000
71C0
F3C0
30C0
30C0
30C0
30C0
30C0
3FE0
1FE0
ENDCHAR
STARTCHAR udieresis
ENCODING 252
SWIDTH 600 0
DWIDTH 12 0
BBX 11 12 0 0
BITMAP
1980
1980
0000
71C0
F3C0
30C0
30C0
30C0
30C0
30C0
3FE0
1FE0
ENDCHAR
STARTCHAR yacute
ENCODING 253
SWIDTH 600 0
DWIDTH 12 0
BBX 12 17 0 -4
BITMAP
0180
0300
0600
0000
79E0
F9F0
30C0
30C0
1980
1980
0F00
0F00
0600
0600
0C00
7E00
7E00
ENDCHAR
STARTCHAR thorn
ENCODING 254
SWIDTH 600 0
DWIDTH 12 0
BBX 11 16 0 -4
BITMAP
E000
6000
6000
6F80
7FC0
78E0
7060
6060
7060
78E0
7FC0
6700
6000
6000
FC00
FC00
ENDCHAR
STARTCHAR ydieresis
ENCODING 255
SWIDTH 600 0
DWIDTH 12 0
BBX 12 16 0 -4
BITMAP
1980
1980
0000
79E0
F9F0
30C0
30C0
1980
1980
0F00
0F00
0600
0600
0C00
7E00
7E00
ENDCHAR
STARTCHAR Amacron
ENCODING 256
SWIDTH 600 0
DWIDTH 12 0
BBX 12 15 0 0
BITMAP
3F00
3F00
0000
3E00
7F00
0F00
0F00
1980
1980
39C0
3FC0
3FC0
6060
F9F0
F9F0
ENDCHAR
STARTCHAR amacron
ENCODING 257
SWIDTH 600 0
DWIDTH 12 0
BBX 10 12 1 0
BITMAP
3F00
3F00
0000
3E00
7F00
0180
1F80
7F80
E180
C380
FFC0
7FC0
ENDCHAR
STARTCHAR Abreve
ENCODING 258
SWIDTH 600 0
DWIDTH 12 0
BBX 12 16 0 0
BITMAP
3080
1980
0F00
0000
3E00
7F00
0F00
0F00
1980
1980
39C0
3FC0
3FC0
6060
F9F0
F9F0
ENDCHAR
STARTCHAR abreve
ENCODING 259
SWIDTH 600 0
DWIDTH 12 0
BBX 10 13 1 0
BITMAP
6100
3F00
1C00
0000
3E00
7F00
0180
1F80
7F80
E180
C380
FFC0
7FC0
ENDCHAR
STARTCHAR Aogonek
ENCODING 260
SWIDTH 600 0
DWIDTH 12 0
BBX 12 16 0 -4
BITMAP
3E00
7F00
0F00
0F00
1980
1980
39C0
3FC0
3FC0
6060
F9F0
F9F0
0060
00C0
00F0
0070
ENDCHAR
STARTCHAR aogonek
ENCODING 261
SWIDTH 600 0
DWIDTH 12 0
BBX 11 13 1 -4
BITMAP
3E00
7F00
0180
1F80
7F80
E180
C380
FFC0
7FC0
0180
0300
03E0
01C0
ENDCHAR
STARTCHAR Cacute
ENCODING 262
SWIDTH 600 0
DWIDTH 12 0
BBX 10 16 1 0
BITMAP
0300
0600
0C00
0000
1EC0
7FC0
61C0
C0C0
C0C0
C000
C000
C000
C000
E0C0
7FC0
3F80
ENDCHAR
STARTCHAR cacute
ENCODING 263
SWIDTH 600 0
DWIDTH 12 0
BBX 10 13 1 0
BITMAP
0300
0600
0C00
0000
1FC0
7FC0
61C0
C0C0
C000
C000
E040
7FC0
3F80
ENDCHAR
STARTCHAR Ccircumflex
ENCODING 264
SWIDTH 600 0
DWIDTH 12 0
BBX 10 16 1 0
BITMAP
0400
1E00
3380
0000
1EC0
7FC0
61C0
C0C0
C0C0
C000
C000
C000
C000
E0C0
7FC0
3F80
ENDCHAR
STARTCHAR ccircumflex
ENCODING 265
SWIDTH 600 0
DWIDTH 12 0
BBX 10 13 1 0
BITMAP
0C00
1F00
3180
0000
1FC0
7FC0
61C0
C0C0
C000
C000
E040
7FC0
3F80
ENDCHAR
STARTCHAR Cdotaccent
ENCODING 266
SWIDTH 600 0
DWIDTH 12 0
BBX 10 15 1 0
BITMAP
0C00
0C00
0000
1EC0
7FC0
61C0
C0C0
C0C0
C000
C000
C000
C000
E0C0
7FC0
3F80
ENDCHAR
STARTCHAR cdotaccent
ENCODING 267
SWIDTH 600 0
DWIDTH 12 0
BBX 10 12 1 0
BITMAP
0C00
0C00
0000
1FC0
7FC0
61C0
C0C0
C000
C000
E040
7FC0
3F80
ENDCHAR
STARTCHAR Ccaron
ENCODING 268
SWIDTH 600 0
DWIDTH 12 0
BBX 10 16 1 0
BITMAP
2180
3F00
0C00
0000
1FC0
7FC0
E1C0
C0C0
C000
C000
C000
C000
C000
E0C0
7FC0
1F80
ENDCHAR
STARTCHAR ccaron
ENCODING 269
SWIDTH 600 0
DWIDTH 12 0
BBX 10 13 1 0
BITMAP
3380
1E00
0400
0000
1FC0
7FC0
61C0
C0C0
C000
C000
E040
7FC0
3F80
ENDCHAR
STARTCHAR Dcaron
ENCODING 270
SWIDTH 600 0
DWIDTH 12 0
BBX 11 16 0 0
BITMAP
3180
1F80
0E00
0000
7E00
FF80
61C0
60E0
6060
6060
6060
6060
6060
60C0
FFC0
FF00
ENDCHAR
STARTCHAR dcaron
ENCODING 271
SWIDTH 600 0
DWIDTH 12 0
BBX 14 12 0 0
BITMAP
03CC
01D8
00F0
1EC0
7FC0
E1C0
C0C0
C0C0
C0C0
E1C0
7FE0
3FE0
ENDCHAR
STARTCHAR Dcroat
ENCODING 272
SWIDTH 600 0
DWIDTH 12 0
BBX 11 12 0 0
BITMAP
7E00
FF80
61C0
60E0
6060
FC60
FC60
6060
6060
60C0
FFC0
FF00
ENDCHAR
STARTCHAR dcroat
ENCODING 273
SWIDTH 600 0
DWIDTH 12 0
BBX 12 12 0 0
BITMAP
01C0
00C0
00F0
1EF0
3FC0
71C0
E0C0
C0C0
C0C0
60C0
7FF0
3FF0
ENDCHAR
STARTCHAR Emacron
ENCODING 274
SWIDTH 600 0
DWIDTH 12 0
BBX 11 15 0 0
BITMAP
1F80
1FC0
0000
7FE0
FFE0
3060
3060
3340
3F00
3F00
3300
3260
3060
FFE0
FFE0
ENDCHAR
STARTCHAR emacron
ENCODING 275
SWIDTH 600 0
DWIDTH 12 0
BBX 10 12 1 0
BITMAP
3F00
3F00
0000
3E00
7F80
E180
C0C0
FFC0
FFC0
C000
7FC0
3F80
ENDCHAR
STARTCHAR Ebreve
ENCODING 276
SWIDTH 600 0
DWIDTH 12 0
BBX 11 16 0 0
BITMAP
3080
1980
0F00
0000
7FE0
FFE0
3060
3060
3340
3F00
3F00
3300
3260
3060
FFE0
FFE0
ENDCHAR
STARTCHAR ebreve
ENCODING 277
SWIDTH 600 0
DWIDTH 12 0
BBX 10 13 1 0
BITMAP
6100
3F00
1C00
0000
3E00
7F80
E180
C0C0
FFC0
FFC0
C000
7FC0
3F80
ENDCHAR
STARTCHAR Edotaccent
ENCODING 278
SWIDTH 600 0
DWIDTH 12 0
BBX 11 15 0 0
BITMAP
0600
0600
0000
7FE0
FFE0
3060
3060
3340
3F00
3F00
3300
3260
3060
FFE0
FFE0
ENDCHAR
STARTCHAR edotaccent
ENCODING 279
SWIDTH 600 0
DWIDTH 12 0
BBX 10 12 1 0
BITMAP
0C00
0C00
0000
3E00
7F80
E180
C0C0
FFC0
FFC0
C000
7FC0
3F80
ENDCHAR
STARTCHAR Eogonek
ENCODING 280
SWIDTH 600 0
DWIDTH 12 0
BBX 12 16 0 -4
BITMAP
7FE0
FFE0
3060
3060
3340
3F00
3F00
3300
3260
3060
FFE0
FFE0
00C0
0080
01F0
00E0
ENDCHAR
STARTCHAR eogonek
ENCODING 281
SWIDTH 600 0
DWIDTH 12 0
BBX 10 13 1 -4
BITMAP
3E00
7F80
E180
C0C0
FFC0
FFC0
C000
7FC0
3F80
0200
0400
0780
0700
ENDCHAR
STARTCHAR Ecaron
ENCODING 282
SWIDTH 600 0
DWIDTH 12 0
BBX 11 16 0 0
BITMAP
10C0
1F80
0600
0000
7FE0
FFE0
3060
3060
3340
3F00
3F00
3300
3260
3060
FFE0
FFE0
ENDCHAR
STARTCHAR ecaron
ENCODING 283
SWIDTH 600 0
DWIDTH 12 0
BBX 10 13 1 0
BITMAP
7300
1E00
0C00
0000
3E00
7F80
E180
C0C0
FFC0
FFC0
C000
7FC0
3F80
ENDCHAR
STARTCHAR Gcircumflex
ENCODING 284
SWIDTH 600 0
DWIDTH 12 0
BBX 11 16 1 0
BITMAP
0400
1E00
3380
0000
1FC0
7FC0
61C0
C0C0
C000
C000
C7C0
C7E0
C0C0
E0C0
7FC0
3F80
ENDCHAR
STARTCHAR gcircumflex
ENCODING 285
SWIDTH 600 0
DWIDTH 12 0
BBX 11 17 1 -4
BITMAP
0C00
3E00
6300
0000
3DC0
7FE0
E380
C180
C180
C180
C380
7F80
3F80
0180
0180
3F80
3E00
ENDCHAR
STARTCHAR Gbreve
ENCODING 286
SWIDTH 600 0
DWIDTH 12 0
BBX 11 16 1 0
BITMAP
2080
3380
1E00
0000
1FC0
7FC0
61C0
C0C0
C000
C000
C7C0
C7E0
C0C0
E0C0
7FC0
3F80
ENDCHAR
STARTCHAR gbreve
ENCODING 287
SWIDTH 600 0
DWIDTH 12 0
BBX 11 17 1 -4
BITMAP
6100
3F00
1C00
0000
3DC0
7FE0
E380
C180
C180
C180
C380
7F80
3F80
0180
0180
3F80
3E00
ENDCHAR
STARTCHAR Gdotaccent
ENCODING 288
SWIDTH 600 0
DWIDTH 12 0
BBX 11 15 1 0
BITMAP
0C00
0C00
0000
1FC0
7FC0
61C0
C0C0
C000
C000
C7C0
C7E0
C0C0
E0C0
7FC0
3F80
ENDCHAR
STARTCHAR gdotaccent
ENCODING 289
SWIDTH 600 0
DWIDTH 12 0
BBX 11 16 1 -4
BITMAP
0C00
0C00
0000
3DC0
7FE0
E380
C180
C180
C180
C380
7F80
3F80
0180
0180
3F80
3E00
ENDCHAR
STARTCHAR Gcedilla
ENCODING 290
SWIDTH 600 0
DWIDTH 12 0
BBX 11 16 1 -4
BITMAP
1FC0
7FC0
61C0
C0C0
C000
C000
C7C0
C7E0
C0C0
E0C0
7FC0
3F80
0E00
0C00
0C00
0800
ENDCHAR
STARTCHAR gcommaaccent
ENCODING 291
SWIDTH 600 0
DWIDTH 12 0
BBX 11 17 1 -4
BITMAP
0600
0C00
1800
0000
3DC0
7FE0
E380
C180
C180
C180
C380
7F80
3F80
0180
0180
3F80
3E00
ENDCHAR
STARTCHAR Hcircumflex
ENCODING 292
SWIDTH 600 0
DWIDTH 12 0
BBX 11 16 1 0
BITMAP
0400
1E00
3300
0000
F3C0
FBC0
6180
6180
6180
7F80
7F80
6180
6180
6180
F3E0
F3E0
ENDCHAR
STARTCHAR hcircumflex
ENCODING 293
SWIDTH 600 0
DWIDTH 12 0
BBX 12 16 0 0
BITMAP
0200
0F80
18C0
0000
F000
7000
3000
3780
3FC0
38C0
30C0
30C0
30C0
30C0
79F0
79F0
ENDCHAR
STARTCHAR Hbar
ENCODING 294
SWIDTH 600 0
DWIDTH 12 0
BBX 11 12 1 0
BITMAP
F3C0
FBC0
6180
E1C0
E1C0
7F80
7F80
6180
6180
6180
F3E0
F3E0
ENDCHAR
STARTCHAR hbar
ENCODING 295
SWIDTH 600 0
DWIDTH 12 0
BBX 12 12 0 0
BITMAP
FE00
7C00
3000
3780
3FC0
38C0
30C0
30C0
30C0
30C0
79F0
79F0
ENDCHAR
STARTCHAR Itilde
ENCODING 296
SWIDTH 600 0
DWIDTH 12 0
BBX 8 15 2 0
BITMAP
73
DE
00
FF
FF
18
18
18
18
18
18
18
18
FF
FF
ENDCHAR
STARTCHAR itilde
ENCODING 297
SWIDTH 600 0
DWIDTH 12 0
BBX 10 13 1 0
BITMAP
1080
7F00
0200
0000
7C00
7C00
0C00
0C00
0C00
0C00
0C00
FFC0
FFC0
ENDCHAR
STARTCHAR Imacron
ENCODING 298
SWIDTH 600 0
DWIDTH 12 0
BBX 8 15 2 0
BITMAP
7E
7F
00
FF
FF
18
18
18
18
18
18
18
18
FF
FF
ENDCHAR
STARTCHAR imacron
ENCODING 299
SWIDTH 600 0
DWIDTH 12 0
BBX 10 12 1 0
BITMAP
3F00
3F00
0000
7C00
7C00
0C00
0C00
0C00
0C00
0C00
FFC0
FFC0
ENDCHAR
STARTCHAR Ibreve
ENCODING 300
SWIDTH 600 0
DWIDTH 12 0
BBX 8 16 2 0
BITMAP
43
66
3C
00
FF
FF
18
18
18
18
18
18
18
18
FF
FF
ENDCHAR
STARTCHAR ibreve
ENCODING 301
SWIDTH 600 0
DWIDTH 12 0
BBX 10 13 1 0
BITMAP
6100
3F00
1C00
0000
7C00
7C00
0C00
0C00
0C00
0C00
0C00
FFC0
FFC0
ENDCHAR
STARTCHAR Iogonek
ENCODING 302
SWIDTH 600 0
DWIDTH 12 0
BBX 8 16 2 -4
BITMAP
FF
FF
18
18
18
18
18
18
18
18
FF
FF
06
0C
0F
07
ENDCHAR
STARTCHAR iogonek
ENCODING 303
SWIDTH 600 0
DWIDTH 12 0
BBX 10 16 1 -4
BITMAP
1C00
1C00
0000
7C00
7C00
0C00
0C00
0C00
0C00
0C00
FFC0
FFC0
0300
0200
03C0
0380
ENDCHAR
STARTCHAR Idotaccent
ENCODING 304
SWIDTH 600 0
DWIDTH 12 0
BBX 8 15 2 0
BITMAP
18
18
00
FF
FF
18
18
18
18
18
18
18
18
FF
FF
ENDCHAR
STARTCHAR dotlessi
ENCODING 305
SWIDTH 600 0
DWIDTH 12 0
BBX 10 9 1 0
BITMAP
7C00
7C00
0C00
0C00
0C00
0C00
0C00
FFC0
FFC0
ENDCHAR
STARTCHAR IJ
ENCODING 306
SWIDTH 600 0
DWIDTH 12 0
BBX 13 12 0 0
BITMAP
F1F0
F9F8
6060
6060
6060
6060
6460
6C60
6C60
6C60
FFE0
FFC0
ENDCHAR
STARTCHAR ij
ENCODING 307
SWIDTH 600 0
DWIDTH 12 0
BBX 11 16 0 -4
BITMAP
18C0
18C0
0000
79E0
7BE0
1860
1860
1860
1860
1860
FF60
FF60
0060
0060
0FE0
0FC0
ENDCHAR
STARTCHAR Jcircumflex
ENCODING 308
SWIDTH 600 0
DWIDTH 12 0
BBX 11 16 1 0
BITMAP
0100
0780
0CE0
0000
0FE0
1FE0
0180
0180
0180
0180
4180
C180
C180
C380
FF00
7E00
ENDCHAR
STARTCHAR jcircumflex
ENCODING 309
SWIDTH 600 0
DWIDTH 12 0
BBX 7 17 2 -4
BITMAP
18
7C
C6
00
FE
FE
06
06
06
06
06
06
06
06
06
FC
F8
ENDCHAR
STARTCHAR Kcommaaccent
ENCODING 310
SWIDTH 600 0
DWIDTH 12 0
BBX 12 16 0 -4
BITMAP
79E0
FDE0
31C0
3380
3700
3E00
3F00
3380
3180
31C0
FCF0
FCF0
0600
0600
0C00
0800
ENDCHAR
STARTCHAR kcommaaccent
ENCODING 311
SWIDTH 600 0
DWIDTH 12 0
BBX 10 16 1 -4
BITMAP
E000
E000
6000
6780
6780
6E00
7C00
7C00
7E00
6700
E3C0
E3C0
1C00
1800
1800
1000
ENDCHAR
STARTCHAR kgreenlandic
ENCODING 312
SWIDTH 600 0
DWIDTH 12 0
BBX 10 9 1 0
BITMAP
F7C0
F7C0
3700
3C00
3800
3C00
3E00
F7C0
F7C0
ENDCHAR
STARTCHAR Lacute
ENCODING 313
SWIDTH 600 0
DWIDTH 12 0
BBX 10 16 1 0
BITMAP
0C00
1800
3000
0000
FC00
FE00
3000
3000
3000
3000
3000
3040
30C0
30C0
FFC0
FFC0
ENDCHAR
STARTCHAR lacute
ENCODING 314
SWIDTH 600 0
DWIDTH 12 0
BBX 10 16 1 0
BITMAP
0300
0600
0C00
0000
7C00
3C00
0C00
0C00
0C00
0C00
0C00
0C00
0C00
0C00
FFC0
FFC0
ENDCHAR
STARTCHAR Lcommaaccent
ENCODING 315
SWIDTH 600 0
DWIDTH 12 0
BBX 10 16 1 -4
BITMAP
FC00
FE00
3000
3000
3000
3000
3000
3040
30C0
30C0
FFC0
FFC0
0E00
0C00
0800
0800
ENDCHAR
STARTCHAR lcommaaccent
ENCODING 316
SWIDTH 600 0
DWIDTH 12 0
BBX 10 16 1 -4
BITMAP
7C00
3C00
0C00
0C00
0C00
0C00
0C00
0C00
0C00
0C00
FFC0
FFC0
0C00
0C00
1800
1000
ENDCHAR
STARTCHAR Lcaron
ENCODING 317
SWIDTH 600 0
DWIDTH 12 0
BBX 10 12 1 0
BITMAP
FC40
FEC0
3180
3000
3000
3000
3000
3040
30C0
30C0
FFC0
FFC0
ENDCHAR
STARTCHAR lcaron
ENCODING 318
SWIDTH 600 0
DWIDTH 12 0
BBX 10 12 1 0
BITMAP
7C40
3CC0
0D80
0C00
0C00
0C00
0C00
0C00
0C00
0C00
FFC0
FFC0
ENDCHAR
STARTCHAR Ldot
ENCODING 319
SWIDTH 600 0
DWIDTH 12 0
BBX 10 12 1 0
BITMAP
FC00
FE00
3000
3180
3180
3100
3000
3040
30C0
30C0
FFC0
FFC0
ENDCHAR
STARTCHAR ldot
ENCODING 320
SWIDTH 600 0
DWIDTH 12 0
BBX 10 12 1 0
BITMAP
7C00
3C00
0C00
0CC0
0CC0
0C40
0C00
0C00
0C00
0C00
FFC0
FFC0
ENDCHAR
STARTCHAR Lslash
ENCODING 321
SWIDTH 600 0
DWIDTH 12 0
BBX 11 12 0 0
BITMAP
7E00
7F00
1800
1800
1B80
1F00
3C00
F860
D860
1860
7FE0
7FE0
ENDCHAR
STARTCHAR lslash
ENCODING 322
SWIDTH 600 0
DWIDTH 12 0
BBX 10 12 1 0
BITMAP
7C00
3C00
0C00
0D00
0F00
1E00
3C00
2C00
0C00
0C00
FFC0
FFC0
ENDCHAR
STARTCHAR Nacute
ENCODING 323
SWIDTH 600 0
DWIDTH 12 0
BBX 12 16 0 0
BITMAP
0180
0300
0600
0000
F1E0
F1F0
7860
7C60
6C60
6E60
6760
6360
63E0
61E0
F8E0
F8E0
ENDCHAR
STARTCHAR nacute
ENCODING 324
SWIDTH 600 0
DWIDTH 12 0
BBX 10 13 1 0
BITMAP
0300
0E00
0C00
0000
EF00
FF80
7180
6180
6180
6180
6180
F3C0
F3C0
ENDCHAR
STARTCHAR Ncommaaccent
ENCODING 325
SWIDTH 600 0
DWIDTH 12 0
BBX 12 16 0 -4
BITMAP
F1E0
F1F0
7860
7C60
6C60
6E60
6760
6360
63E0
61E0
F8E0
F8E0
0600
0600
0C00
0800
ENDCHAR
STARTCHAR ncommaaccent
ENCODING 326
SWIDTH 600 0
DWIDTH 12 0
BBX 10 13 1 -4
BITMAP
EF00
FF80
7180
6180
6180
6180
6180
F3C0
F3C0
0C00
0C00
0800
0800
ENDCHAR
STARTCHAR Ncaron
ENCODING 327
SWIDTH 600 0
DWIDTH 12 0
BBX 12 16 0 0
BITMAP
10C0
1F80
0600
0000
F1E0
F1F0
7860
7C60
6C60
6E60
6760
6360
63E0
61E0
F8E0
F8E0
ENDCHAR
STARTCHAR ncaron
ENCODING 328
SWIDTH 600 0
DWIDTH 12 0
BBX 10 13 1 0
BITMAP
7300
1E00
0C00
0000
EF00
FF80
7180
6180
6180
6180
6180
F3C0
F3C0
ENDCHAR
STARTCHAR napostrophe
ENCODING 329
SWIDTH 600 0
DWIDTH 12 0
BBX 11 13 0 0
BITMAP
3000
6000
C000
0000
7780
7FC0
38C0
30C0
30C0
30C0
30C0
79E0
79E0
ENDCHAR
STARTCHAR Eng
ENCODING 330
SWIDTH 600 0
DWIDTH 12 0
BBX 10 15 1 -2
BITMAP
0E00
FF80
7180
60C0
60C0
60C0
60C0
60C0
60C0
60C0
60C0
F0C0
F0C0
07C0
0F80
ENDCHAR
STARTCHAR eng
ENCODING 331
SWIDTH 600 0
DWIDTH 12 0
BBX 9 13 1 -4
BITMAP
EF00
FF80
7180
6180
6180
6180
6180
F180
F180
0180
0180
1F80
0F00
ENDCHAR
STARTCHAR Omacron
ENCODING 332
SWIDTH 600 0
DWIDTH 12 0
BBX 12 15 0 0
BITMAP
1F80
1F80
0000
0F00
3FC0
30E0
6060
6060
C030
C030
6060
6060
70E0
3FC0
1F80
ENDCHAR
STARTCHAR omacron
ENCODING 333
SWIDTH 600 0
DWIDTH 12 0
BBX 10 12 1 0
BITMAP
3F00
3F00
0000
1E00
7F80
E1C0
C0C0
C0C0
C0C0
E1C0
7F80
3F00
ENDCHAR
STARTCHAR Obreve
ENCODING 334
SWIDTH 600 0
DWIDTH 12 0
BBX 12 16 0 0
BITMAP
3080
1980
0F00
0000
0F00
3FC0
30E0
6060
6060
C030
C030
6060
6060
70E0
3FC0
1F80
ENDCHAR
STARTCHAR obreve
ENCODING 335
SWIDTH 600 0
DWIDTH 12 0
BBX 10 13 1 0
BITMAP
6100
3F00
1C00
0000
1E00
7F80
E1C0
C0C0
C0C0
C0C0
E1C0
7F80
3F00
ENDCHAR
STARTCHAR Ohungarumlaut
ENCODING 336
SWIDTH 600 0
DWIDTH 12 0
BBX 12 16 0 0
BITMAP
0260
06C0
0D80
0000
0F00
3FC0
30E0
6060
6060
C030
C030
6060
6060
70E0
3FC0
1F80
ENDCHAR
STARTCHAR ohungarumlaut
ENCODING 337
SWIDTH 600 0
DWIDTH 12 0
BBX 10 13 1 0
BITMAP
0CC0
1B80
1300
0000
1E00
7F80
E1C0
C0C0
C0C0
C0C0
E1C0
7F80
3F00
ENDCHAR
STARTCHAR OE
ENCODING 338
SWIDTH 600 0
DWIDTH 12 0
BBX 12 12 0 0
BITMAP
0FF0
3FF0
7630
E630
C6F0
C7C0
C7C0
C6C0
C610
E630
7FF0
1FF0
ENDCHAR
STARTCHAR oe
ENCODING 339
SWIDTH 600 0
DWIDTH 12 0
BBX 12 9 0 0
BITMAP
39C0
7FE0
CF30
C630
C7F0
C7F0
C700
7FF0
79F0
ENDCHAR
STARTCHAR Racute
ENCODING 340
SWIDTH 600 0
DWIDTH 12 0
BBX 12 16 0 0
BITMAP
0200
0600
0C00
0000
FE00
FF80
31C0
30C0
30C0
33C0
3F80
3F80
31C0
30C0
FCF0
FC70
ENDCHAR
STARTCHAR racute
ENCODING 341
SWIDTH 600 0
DWIDTH 12 0
BBX 10 13 1 0
BITMAP
0300
0600
0400
0000
7BC0
7FC0
1E40
1800
1800
1800
1800
FF80
FF80
ENDCHAR
STARTCHAR Rcommaaccent
ENCODING 342
SWIDTH 600 0
DWIDTH 12 0
BBX 12 16 0 -4
BITMAP
FE00
FF80
31C0
30C0
30C0
33C0
3F80
3F80
31C0
30C0
FCF0
FC70
0E00
0C00
0C00
0800
ENDCHAR
STARTCHAR rcommaaccent
ENCODING 343
SWIDTH 600 0
DWIDTH 12 0
BBX 10 13 1 -4
BITMAP
7BC0
7FC0
1E40
1800
1800
1800
1800
FF80
FF80
1C00
1800
1800
1000
ENDCHAR
STARTCHAR Rcaron
ENCODING 344
SWIDTH 600 0
DWIDTH 12 0
BBX 12 16 0 0
BITMAP
10C0
1F80
0600
0000
FE00
FF80
31C0
30C0
30C0
33C0
3F80
3F80
31C0
30C0
FCF0
FC70
ENDCHAR
STARTCHAR rcaron
ENCODING 345
SWIDTH 600 0
DWIDTH 12 0
BBX 10 13 1 0
BITMAP
3380
1F00
0400
0000
7BC0
7FC0
1E40
1800
1800
1800
1800
FF80
FF80
ENDCHAR
STARTCHAR Sacute
ENCODING 346
SWIDTH 600 0
DWIDTH 12 0
BBX 10 16 1 0
BITMAP
0200
0600
0C00
0000
1E80
7F80
6180
6180
6000
7E00
1F80
03C0
C0C0
E1C0
FF80
FF00
ENDCHAR
STARTCHAR sacute
ENCODING 347
SWIDTH 600 0
DWIDTH 12 0
BBX 10 13 1 0
BITMAP
0200
0600
0C00
0000
3F80
7F80
6180
7800
3F80
0780
C1C0
FF80
7F00
ENDCHAR
STARTCHAR Scircumflex
ENCODING 348
SWIDTH 600 0
DWIDTH 12 0
BBX 10 16 1 0
BITMAP
0800
1E00
7300
0000
1E80
7F80
6180
6180
6000
7E00
1F80
03C0
C0C0
E1C0
FF80
FF00
ENDCHAR
STARTCHAR scircumflex
ENCODING 349
SWIDTH 600 0
DWIDTH 12 0
BBX 10 13 1 0
BITMAP
0C00
3F00
6100
0000
3F80
7F80
6180
7800
3F80
0780
C1C0
FF80
7F00
ENDCHAR
STARTCHAR Scedilla
ENCODING 350
SWIDTH 600 0
DWIDTH 12 0
BBX 10 16 1 -4
BITMAP
1E80
7F80
6180
6180
6000
7E00
1F80
03C0
C0C0
E1C0
FF80
FF00
0C00
0600
1600
1C00
ENDCHAR
STARTCHAR scedilla
ENCODING 351
SWIDTH 600 0
DWIDTH 12 0
BBX 10 13 1 -4
BITMAP
3E80
7F80
6180
7800
3F80
0780
C1C0
FF80
7F00
0C00
0600
1600
1C00
ENDCHAR
STARTCHAR Scaron
ENCODING 352
SWIDTH 600 0
DWIDTH 12 0
BBX 10 16 1 0
BITMAP
2180
3F00
0C00
0000
1E80
7F80
6180
6180
6000
7E00
1F80
03C0
C0C0
E1C0
FF80
FF00
ENDCHAR
STARTCHAR scaron
ENCODING 353
SWIDTH 600 0
DWIDTH 12 0
BBX 10 13 1 0
BITMAP
3380
1E00
0400
0000
3F80
7F80
6180
7800
3F80
0780
C1C0
FF80
7F00
ENDCHAR
STARTCHAR uni0162
ENCODING 354
SWIDTH 600 0
DWIDTH 12 0
BBX 10 16 1 -4
BITMAP
FFC0
FFC0
CCC0
CCC0
CCC0
0C00
0C00
0C00
0C00
0C00
7F80
7F80
0C00
0600
1A00
1E00
ENDCHAR
STARTCHAR uni0163
ENCODING 355
SWIDTH 600 0
DWIDTH 12 0
BBX 11 16 0 -4
BITMAP
1000
3000
3000
7F80
FF80
3000
3000
3000
3000
3040
3FE0
1FC0
0600
0300
1B00
0E00
ENDCHAR
STARTCHAR Tcaron
ENCODING 356
SWIDTH 600 0
DWIDTH 12 0
BBX 10 16 1 0
BITMAP
2180
3F00
0C00
0000
FFC0
FFC0
CCC0
CCC0
CCC0
0C00
0C00
0C00
0C00
0C00
7F80
7F80
ENDCHAR
STARTCHAR tcaron
ENCODING 357
SWIDTH 600 0
DWIDTH 12 0
BBX 12 13 0 0
BITMAP
0030
1060
30C0
3000
7F80
FF80
3000
3000
3000
3000
3040
3FE0
1FC0
ENDCHAR
STARTCHAR Tbar
ENCODING 358
SWIDTH 600 0
DWIDTH 12 0
BBX 10 12 1 0
BITMAP
FFC0
FFC0
CCC0
CCC0
CCC0
0C00
3F00
7F80
0C00
0C00
7F80
7F80
ENDCHAR
STARTCHAR tbar
ENCODING 359
SWIDTH 600 0
DWIDTH 12 0
BBX 11 12 0 0
BITMAP
1000
3000
3000
7F80
FF80
3000
7C00
FC00
3000
3040
3FE0
1FC0
ENDCHAR
STARTCHAR Utilde
ENCODING 360
SWIDTH 600 0
DWIDTH 12 0
BBX 12 15 0 0
BITMAP
0800
1FC0
2380
79E0
F9F0
6060
6060
6060
6060
6060
6060
6060
30C0
3FC0
1F80
ENDCHAR
STARTCHAR utilde
ENCODING 361
SWIDTH 600 0
DWIDTH 12 0
BBX 11 13 0 0
BITMAP
1880
3F80
0100
0000
71C0
F3C0
30C0
30C0
30C0
30C0
30C0
3FE0
1FE0
ENDCHAR
STARTCHAR Umacron
ENCODING 362
SWIDTH 600 0
DWIDTH 12 0
BBX 12 15 0 0
BITMAP
1F80
1F80
0000
79E0
F9F0
6060
6060
6060
6060
6060
6060
6060
30C0
3FC0
1F80
ENDCHAR
STARTCHAR umacron
ENCODING 363
SWIDTH 600 0
DWIDTH 12 0
BBX 11 12 0 0
BITMAP
1F80
1F80
0000
71C0
F3C0
30C0
30C0
30C0
30C0
30C0
3FE0
1FE0
ENDCHAR
STARTCHAR Ubreve
ENCODING 364
SWIDTH 600 0
DWIDTH 12 0
BBX 12 16 0 0
BITMAP
10C0
1980
0F00
0000
79E0
F9F0
6060
6060
6060
6060
6060
6060
6060
30C0
3FC0
1F80
ENDCHAR
STARTCHAR ubreve
ENCODING 365
SWIDTH 600 0
DWIDTH 12 0
BBX 11 13 0 0
BITMAP
3080
1F80
0E00
0000
71C0
F3C0
30C0
30C0
30C0
30C0
30C0
3FE0
1FE0
ENDCHAR
STARTCHAR Uring
ENCODING 366
SWIDTH 600 0
DWIDTH 12 0
BBX 12 16 0 0
BITMAP
0600
0F00
0F00
0600
79E0
F9F0
6060
6060
6060
6060
6060
6060
6060
30C0
3FC0
1F80
ENDCHAR
STARTCHAR uring
ENCODING 367
SWIDTH 600 0
DWIDTH 12 0
BBX 11 13 0 0
BITMAP
0F00
0900
0600
0000
71C0
F3C0
30C0
30C0
30C0
30C0
30C0
3FE0
1FE0
ENDCHAR
STARTCHAR Uhungarumlaut
ENCODING 368
SWIDTH 600 0
DWIDTH 12 0
BBX 12 16 0 0
BITMAP
0240
06C0
0D80
0000
79E0
F9F0
6060
6060
6060
6060
6060
6060
6060
30C0
3FC0
1F80
ENDCHAR
STARTCHAR uhungarumlaut
ENCODING 369
SWIDTH 600 0
DWIDTH 12 0
BBX 11 13 0 0
BITMAP
0660
0CC0
0980
0000
71C0
F3C0
30C0
30C0
30C0
30C0
30C0
3FE0
1FE0
ENDCHAR
STARTCHAR Uogonek
ENCODING 370
SWIDTH 600 0
DWIDTH 12 0
BBX 12 16 0 -4
BITMAP
79E0
F9F0
6060
6060
6060
6060
6060
6060
6060
30C0
3FC0
1F80
0300
0200
03C0
0380
ENDCHAR
STARTCHAR uogonek
ENCODING 371
SWIDTH 600 0
DWIDTH 12 0
BBX 11 13 0 -4
BITMAP
71C0
F3C0
30C0
30C0
30C0
30C0
30C0
3FE0
1FE0
00C0
0180
01E0
00E0
ENDCHAR
STARTCHAR Wcircumflex
ENCODING 372
SWIDTH 600 0
DWIDTH 12 0
BBX 12 16 0 0
BITMAP
0600
0F00
1980
0000
F9F0
F9F0
6060
6660
6760
6F60
6F60
6FE0
39C0
39C0
39C0
30C0
ENDCHAR
STARTCHAR wcircumflex
ENCODING 373
SWIDTH 600 0
DWIDTH 12 0
BBX 12 13 0 0
BITMAP
0600
0F00
1980
0000
F0F0
F0F0
6660
7660
3FC0
3FC0
3FC0
39C0
1980
ENDCHAR
STARTCHAR Ycircumflex
ENCODING 374
SWIDTH 600 0
DWIDTH 12 0
BBX 12 15 0 0
BITMAP
0F00
1980
0000
70E0
F9F0
30C0
1980
1F80
0F00
0600
0600
0600
0600
3FC0
3FC0
ENDCHAR
STARTCHAR ycircumflex
ENCODING 375
SWIDTH 600 0
DWIDTH 12 0
BBX 12 17 0 -4
BITMAP
0600
0F00
1980
0000
79E0
F9F0
30C0
30C0
1980
1980
0F00
0F00
0600
0600
0C00
7E00
7E00
ENDCHAR
STARTCHAR Ydieresis
ENCODING 376
SWIDTH 600 0
DWIDTH 12 0
BBX 12 15 0 0
BITMAP
1980
1980
0000
70E0
F9F0
30C0
1980
1F80
0F00
0600
0600
0600
0600
3FC0
3FC0
ENDCHAR
STARTCHAR Zacute
ENCODING 377
SWIDTH 600 0
DWIDTH 12 0
BBX 10 16 1 0
BITMAP
0200
0600
0C00
0000
7F80
7F80
6380
6300
6600
0E00
1C00
3880
30C0
60C0
FFC0
FFC0
ENDCHAR
STARTCHAR zacute
ENCODING 378
SWIDTH 600 0
DWIDTH 12 0
BBX 8 13 2 0
BITMAP
06
0C
18
00
FF
FF
C6
CC
18
30
63
FF
FF
ENDCHAR
STARTCHAR Zdotaccent
ENCODING 379
SWIDTH 600 0
DWIDTH 12 0
BBX 10 15 1 0
BITMAP
0C00
0C00
0000
7F80
7F80
6380
6300
6600
0E00
1C00
3880
30C0
60C0
FFC0
FFC0
ENDCHAR
STARTCHAR zdotaccent
ENCODING 380
SWIDTH 600 0
DWIDTH 12 0
BBX 8 12 2 0
BITMAP
18
18
00
FF
FF
C6
CC
18
30
63
FF
FF
ENDCHAR
STARTCHAR Zcaron
ENCODING 381
SWIDTH 600 0
DWIDTH 12 0
BBX 10 16 1 0
BITMAP
2180
3F00
0C00
0000
7F80
7F80
6380
6300
6600
0E00
1C00
3880
30C0
60C0
FFC0
FFC0
ENDCHAR
STARTCHAR zcaron
ENCODING 382
SWIDTH 600 0
DWIDTH 12 0
BBX 8 13 2 0
BITMAP
E6
3C
18
00
FF
FF
C6
CC
18
30
63
FF
FF
ENDCHAR
STARTCHAR longs
ENCODING 383
SWIDTH 600 0
DWIDTH 12 0
BBX 9 12 2 0
BITMAP
1F80
3F80
3000
F000
F000
3000
3000
3000
3000
3000
FF00
FF00
ENDCHAR
STARTCHAR uni0180
ENCODING 384
SWIDTH 600 0
DWIDTH 12 0
BBX 11 12 0 0
BITMAP
FE00
7C00
6000
6F80
7FC0
78E0
7060
6060
7060
7060
FFC0
EF80
ENDCHAR
STARTCHAR uni0181
ENCODING 385
SWIDTH 600 0
DWIDTH 12 0
BBX 13 12 -1 0
BITMAP
3F80
FFE0
D870
F830
5830
1FE0
1FF0
1838
1818
1818
3FF0
3FE0
ENDCHAR
STARTCHAR uni0182
ENCODING 386
SWIDTH 600 0
DWIDTH 12 0
BBX 12 12 0 0
BITMAP
7FE0
FFE0
3060
3060
3020
3FC0
3FE0
3060
3070
3060
7FE0
7FC0
ENDCHAR
STARTCHAR uni0183
ENCODING 387
SWIDTH 600 0
DWIDTH 12 0
BBX 11 12 0 0
BITMAP
FFE0
7FC0
6000
6F80
7FC0
78E0
7060
6060
7060
7060
FFC0
EF80
ENDCHAR
STARTCHAR uni0184
ENCODING 388
SWIDTH 600 0
DWIDTH 12 0
BBX 11 12 0 0
BITMAP
3C00
3C00
7000
F000
3000
3FC0
3FE0
3060
3020
3060
7FE0
7FC0
ENDCHAR
STARTCHAR uni0185
ENCODING 389
SWIDTH 600 0
DWIDTH 12 0
BBX 11 12 0 0
BITMAP
2C00
3800
7000
EF80
3FC0
3060
3060
2020
3060
3060
FFC0
EF80
ENDCHAR
STARTCHAR uni0186
ENCODING 390
SWIDTH 600 0
DWIDTH 12 0
BBX 10 12 1 0
BITMAP
3E00
FF80
C380
80C0
00C0
00C0
00C0
00C0
C0C0
C1C0
FF80
FF00
ENDCHAR
STARTCHAR uni0187
ENCODING 391
SWIDTH 600 0
DWIDTH 12 0
BBX 12 14 1 0
BITMAP
0020
00F0
1EF0
7FC0
61C0
C0C0
C0C0
C000
C000
C000
C000
E0C0
7FC0
3F80
ENDCHAR
STARTCHAR uni0188
ENCODING 392
SWIDTH 600 0
DWIDTH 12 0
BBX 12 11 1 0
BITMAP
0060
00F0
1FD0
7FC0
61C0
C0C0
C000
C000
E040
7FC0
3F80
ENDCHAR
STARTCHAR uni0189
ENCODING 393
SWIDTH 600 0
DWIDTH 12 0
BBX 11 12 0 0
BITMAP
7E00
FF80
61C0
60E0
6060
FC60
FC60
6060
6060
60C0
FFC0
FF00
ENDCHAR
STARTCHAR uni018A
ENCODING 394
SWIDTH 600 0
DWIDTH 12 0
BBX 13 12 -2 0
BITMAP
3F80
FFE0
D870
F838
5818
1818
1818
1818
1818
1830
3FF0
3FC0
ENDCHAR
STARTCHAR uni018B
ENCODING 395
SWIDTH 600 0
DWIDTH 12 0
BBX 12 12 0 0
BITMAP
7FE0
7FF0
60C0
60C0
40C0
3FC0
7FC0
60C0
E0C0
60C0
7FE0
3FE0
ENDCHAR
STARTCHAR uni018C
ENCODING 396
SWIDTH 600 0
DWIDTH 12 0
BBX 11 12 1 0
BITMAP
FFC0
7FC0
00C0
3EC0
7FC0
E1C0
C1C0
C0C0
C1C0
C1C0
7FE0
3EE0
ENDCHAR
STARTCHAR uni018D
ENCODING 397
SWIDTH 600 0
DWIDTH 12 0
BBX 10 13 1 -4
BITMAP
3F00
7F80
E1C0
C0C0
C0C0
C0C0
E1C0
7F80
3F80
01C0
E0C0
FF80
9F00
ENDCHAR
STARTCHAR uni018E
ENCODING 398
SWIDTH 600 0
DWIDTH 12 0
BBX 10 12 1 0
BITMAP
FFC0
FFC0
C180
C180
9980
1F80
1F80
1980
C980
C180
FFC0
FFC0
ENDCHAR
STARTCHAR uni018f
ENCODING 399
SWIDTH 600 0
DWIDTH 12 0
BBX 11 12 0 0
BITMAP
1F00
3FC0
60C0
4060
0060
FFE0
FFE0
4060
6060
60C0
3FC0
1F80
ENDCHAR
STARTCHAR uni0190
ENCODING 400
SWIDTH 600 0
DWIDTH 12 0
BBX 10 12 1 0
BITMAP
1E80
7F80
6180
6180
6000
7E00
7F00
E000
C0C0
E1C0
7FC0
3FC0
ENDCHAR
STARTCHAR uni0191
ENCODING 401
SWIDTH 600 0
DWIDTH 12 0
BBX 13 14 -2 -2
BITMAP
1FF8
3FF8
0C18
0C18
0CD8
0FC0
0FC0
0CC0
0C80
0C00
0C00
0C00
F800
F800
ENDCHAR
STARTCHAR florin
ENCODING 402
SWIDTH 600 0
DWIDTH 12 0
BBX 10 15 1 -2
BITMAP
0380
07C0
0E00
0C00
0C00
3F80
3F00
0C00
0C00
0C00
0C00
0C00
0C00
FC00
F800
ENDCHAR
STARTCHAR uni0193
ENCODING 403
SWIDTH 600 0
DWIDTH 12 0
BBX 12 13 1 0
BITMAP
00F0
1FF0
7FC0
61C0
C0C0
C000
C000
C7C0
C7E0
C0C0
E0C0
7FC0
3F80
ENDCHAR
STARTCHAR uni0194
ENCODING 404
SWIDTH 600 0
DWIDTH 12 0
BBX 10 12 1 0
BITMAP
F3C0
F3C0
6180
3300
1E00
1E00
0C00
1E00
1E00
3300
1E00
1E00
ENDCHAR
STARTCHAR uni0195
ENCODING 405
SWIDTH 600 0
DWIDTH 12 0
BBX 13 12 -1 0
BITMAP
F000
3000
3000
3E38
3F38
3198
3198
3198
3198
3198
79F8
78F0
ENDCHAR
STARTCHAR uni0196
ENCODING 406
SWIDTH 600 0
DWIDTH 12 0
BBX 9 12 2 0
BITMAP
7800
F800
1800
1800
1800
1800
1800
1800
1800
1800
1F80
0F80
ENDCHAR
STARTCHAR uni0197
ENCODING 407
SWIDTH 600 0
DWIDTH 12 0
BBX 8 12 2 0
BITMAP
FF
FF
18
18
18
FF
FF
18
18
18
FF
FF
ENDCHAR
STARTCHAR uni0198
ENCODING 408
SWIDTH 600 0
DWIDTH 12 0
BBX 13 12 0 0
BITMAP
F9E0
FDF0
31D8
3330
3670
3C00
3F00
3380
3180
30C0
F8F0
FCF0
ENDCHAR
STARTCHAR uni0199
ENCODING 409
SWIDTH 600 0
DWIDTH 12 0
BBX 10 13 1 0
BITMAP
1C00
3E00
3000
6000
6780
6780
6E00
7C00
7C00
7E00
6700
E3C0
E3C0
ENDCHAR
STARTCHAR uni019A
ENCODING 410
SWIDTH 600 0
DWIDTH 12 0
BBX 10 12 1 0
BITMAP
7C00
3C00
0C00
0C00
0C00
7F80
7F80
0C00
0C00
0C00
FFC0
FFC0
ENDCHAR
STARTCHAR uni019B
ENCODING 411
SWIDTH 600 0
DWIDTH 12 0
BBX 10 12 1 0
BITMAP
FF00
7E00
7C00
7C00
1E00
1E00
3700
3300
6180
6180
F3C0
F3C0
ENDCHAR
STARTCHAR uni019C
ENCODING 412
SWIDTH 600 0
DWIDTH 12 0
BBX 12 12 0 0
BITMAP
EE70
EEF0
6660
6660
6660
6660
6660
6660
6660
6660
7FF0
3BF0
ENDCHAR
STARTCHAR uni019D
ENCODING 413
SWIDTH 600 0
DWIDTH 12 0
BBX 14 14 -2 -2
BITMAP
3C78
3C7C
1E18
1F18
1B18
1B98
19D8
18D8
18F8
1878
1838
1838
F800
F000
ENDCHAR
STARTCHAR uni019E
ENCODING 414
SWIDTH 600 0
DWIDTH 12 0
BBX 10 13 1 -4
BITMAP
EF00
FF80
7180
6180
6180
6180
6180
F180
F180
0180
0180
03C0
03C0
ENDCHAR
STARTCHAR uni019F
ENCODING 415
SWIDTH 600 0
DWIDTH 12 0
BBX 12 12 0 0
BITMAP
0F00
3FC0
30E0
6060
6060
FFF0
FFF0
6060
6060
70E0
3FC0
1F80
ENDCHAR
STARTCHAR Ohorn
ENCODING 416
SWIDTH 600 0
DWIDTH 12 0
BBX 12 13 0 0
BITMAP
0070
0F30
3FF0
30E0
6060
6060
C030
C030
6060
6060
70E0
3FC0
1F80
ENDCHAR
STARTCHAR ohorn
ENCODING 417
SWIDTH 600 0
DWIDTH 12 0
BBX 11 10 1 0
BITMAP
00E0
1E60
7FE0
E1C0
C0C0
C0C0
C0C0
E1C0
7F80
3F00
ENDCHAR
STARTCHAR uni01A2
ENCODING 418
SWIDTH 600 0
DWIDTH 12 0
BBX 13 13 0 0
BITMAP
00C0
1FE0
7FE0
6330
C330
C1B0
C1B0
C1B0
C1B0
C1B0
6330
7FF8
3EF8
ENDCHAR
STARTCHAR uni01A3
ENCODING 419
SWIDTH 600 0
DWIDTH 12 0
BBX 14 10 -1 0
BITMAP
00E0
1FF0
3F98
6198
E0D8
C0D8
C0D8
6198
7FFC
3F7C
ENDCHAR
STARTCHAR uni01A4
ENCODING 420
SWIDTH 600 0
DWIDTH 12 0
BBX 13 12 -2 0
BITMAP
3FC0
7FE0
CC70
6C38
4C38
0C30
0FF0
0FC0
0C00
0C00
3F80
3F80
ENDCHAR
STARTCHAR uni01A5
ENCODING 421
SWIDTH 600 0
DWIDTH 12 0
BBX 11 17 0 -4
BITMAP
0E00
3E00
3200
7000
6F80
7FC0
78E0
7060
6060
7060
78E0
7FC0
6700
6000
6000
FC00
FC00
ENDCHAR
STARTCHAR uni01A6
ENCODING 422
SWIDTH 600 0
DWIDTH 12 0
BBX 11 16 0 -4
BITMAP
7800
FC00
3000
3F00
3F80
30C0
30C0
3FC0
3F80
3180
7D80
7CC0
00C0
00C0
00E0
00E0
ENDCHAR
STARTCHAR uni01A7
ENCODING 423
SWIDTH 600 0
DWIDTH 12 0
BBX 10 12 1 0
BITMAP
5E00
7F80
6180
6180
0180
1F80
7E00
F000
C0C0
E1C0
7FC0
3FC0
ENDCHAR
STARTCHAR uni01A8
ENCODING 424
SWIDTH 600 0
DWIDTH 12 0
BBX 10 9 1 0
BITMAP
7F00
7F80
6180
0780
7F00
7800
E0C0
7FC0
3F80
ENDCHAR
STARTCHAR uni01A9
ENCODING 425
SWIDTH 600 0
DWIDTH 12 0
BBX 10 12 1 0
BITMAP
FFC0
FFC0
60C0
70C0
3880
1C00
1C00
3880
30C0
60C0
FFC0
FFC0
ENDCHAR
STARTCHAR uni01aa
ENCODING 426
SWIDTH 600 0
DWIDTH 12 0
BBX 10 14 1 -2
BITMAP
7000
F800
DC00
7C00
0C00
0C00
0C00
0C00
0C00
0C00
0C00
0C00
06C0
07C0
ENDCHAR
STARTCHAR uni01AB
ENCODING 427
SWIDTH 600 0
DWIDTH 12 0
BBX 11 16 0 -4
BITMAP
1000
3000
3000
7F80
FF80
3000
3000
3000
3000
3040
3FE0
1FE0
0060
00C0
07C0
0780
ENDCHAR
STARTCHAR uni01AC
ENCODING 428
SWIDTH 600 0
DWIDTH 12 0
BBX 11 12 0 0
BITMAP
3FE0
FFE0
C660
E660
4660
0600
0600
0600
0600
0600
3FC0
3FC0
ENDCHAR
STARTCHAR uni01AD
ENCODING 429
SWIDTH 600 0
DWIDTH 12 0
BBX 11 13 0 0
BITMAP
0E00
1F00
1800
3000
7F80
FF80
3000
3000
3000
3000
3040
3FE0
1FC0
ENDCHAR
STARTCHAR uni01AE
ENCODING 430
SWIDTH 600 0
DWIDTH 12 0
BBX 10 14 1 -2
BITMAP
FFC0
FFC0
CCC0
CCC0
CCC0
0C00
0C00
0C00
0C00
0C00
0C00
0C00
0FC0
07C0
ENDCHAR
STARTCHAR Uhorn
ENCODING 431
SWIDTH 600 0
DWIDTH 12 0
BBX 12 14 0 0
BITMAP
0020
0030
F9F0
FBF0
60C0
60C0
60C0
60C0
60C0
60C0
60C0
30C0
3FC0
1F00
ENDCHAR
STARTCHAR uhorn
ENCODING 432
SWIDTH 600 0
DWIDTH 12 0
BBX 12 11 0 0
BITMAP
0020
0030
F3F0
F3F0
30C0
30C0
30C0
30C0
31C0
3FE0
1EE0
ENDCHAR
STARTCHAR uni01b1
ENCODING 433
SWIDTH 600 0
DWIDTH 12 0
BBX 10 12 1 0
BITMAP
FBC0
FBC0
DAC0
FB40
7B80
60C0
C0C0
C0C0
C0C0
60C0
7380
3F00
ENDCHAR
STARTCHAR uni01b2
ENCODING 434
SWIDTH 600 0
DWIDTH 12 0
BBX 12 12 0 0
BITMAP
78E0
F8F0
30C0
30C0
30C0
30C0
30C0
30C0
30C0
30C0
39C0
1F80
ENDCHAR
STARTCHAR uni01B3
ENCODING 435
SWIDTH 600 0
DWIDTH 12 0
BBX 13 12 -1 0
BITMAP
3870
FCF8
D860
CCC0
4FC0
0780
0300
0300
0300
0300
1FE0
1FE0
ENDCHAR
STARTCHAR uni01B4
ENCODING 436
SWIDTH 600 0
DWIDTH 12 0
BBX 13 15 0 -4
BITMAP
0018
0018
79F8
F9F8
30C0
30C0
1980
1980
0F00
0F00
0600
0600
0C00
7E00
7E00
ENDCHAR
STARTCHAR uni01B5
ENCODING 437
SWIDTH 600 0
DWIDTH 12 0
BBX 10 12 1 0
BITMAP
7F80
7F80
6380
6300
0600
7F00
7F80
3800
3080
60C0
FFC0
FFC0
ENDCHAR
STARTCHAR uni01B6
ENCODING 438
SWIDTH 600 0
DWIDTH 12 0
BBX 8 9 2 0
BITMAP
FF
FF
C6
CC
FE
7E
63
FF
FF
ENDCHAR
STARTCHAR uni01B7
ENCODING 439
SWIDTH 600 0
DWIDTH 12 0
BBX 10 13 1 -1
BITMAP
7F80
7F80
6380
6300
0600
0F00
1F80
00C0
00C0
C0C0
E1C0
7F80
1F00
ENDCHAR
STARTCHAR uni01B8
ENCODING 440
SWIDTH 600 0
DWIDTH 12 0
BBX 10 13 1 -1
BITMAP
7F80
7F80
7180
3980
1800
3E00
7E00
E000
C000
C0C0
E1C0
7F80
3E00
ENDCHAR
STARTCHAR uni01b9
ENCODING 441
SWIDTH 600 0
DWIDTH 12 0
BBX 7 13 2 -4
BITMAP
FE
FE
70
38
7C
EC
C0
80
80
C2
E6
7C
30
ENDCHAR
STARTCHAR uni01ba
ENCODING 442
SWIDTH 600 0
DWIDTH 12 0
BBX 8 13 1 -4
BITMAP
7F
7F
0E
18
3E
33
03
07
7E
F0
C3
7F
7E
ENDCHAR
STARTCHAR uni01BB
ENCODING 443
SWIDTH 600 0
DWIDTH 12 0
BBX 9 12 1 0
BITMAP
1E00
7F00
6380
E180
0180
3F80
7F80
1E00
3800
7080
FF80
FF80
ENDCHAR
STARTCHAR uni01bc
ENCODING 444
SWIDTH 600 0
DWIDTH 12 0
BBX 9 12 1 0
BITMAP
FF00
FF80
6000
6000
7F00
3380
0180
0080
0080
4180
7380
3F00
ENDCHAR
STARTCHAR uni01bd
ENCODING 445
SWIDTH 600 0
DWIDTH 12 0
BBX 8 9 1 0
BITMAP
7F
FF
60
7C
7E
03
03
67
7E
ENDCHAR
STARTCHAR uni01be
ENCODING 446
SWIDTH 600 0
DWIDTH 12 0
BBX 8 12 2 0
BITMAP
3C
3C
18
7E
7F
18
1E
07
03
C3
E7
FE
ENDCHAR
STARTCHAR uni01bf
ENCODING 447
SWIDTH 600 0
DWIDTH 12 0
BBX 11 13 0 -4
BITMAP
EFC0
FFE0
3860
2060
20E0
21C0
2380
2E00
3C00
3800
3000
FC00
FC00
ENDCHAR
STARTCHAR uni01C0
ENCODING 448
SWIDTH 600 0
DWIDTH 12 0
BBX 2 15 5 -3
BITMAP
C0
C0
C0
C0
C0
C0
C0
C0
C0
C0
C0
C0
C0
C0
C0
ENDCHAR
STARTCHAR uni01C1
ENCODING 449
SWIDTH 600 0
DWIDTH 12 0
BBX 6 15 3 -3
BITMAP
CC
CC
CC
CC
CC
CC
CC
CC
CC
CC
CC
CC
CC
CC
CC
ENDCHAR
STARTCHAR uni01c2
ENCODING 450
SWIDTH 600 0
DWIDTH 12 0
BBX 10 15 1 -3
BITMAP
0C00
0C00
0C00
0C00
FFC0
FFC0
0C00
FFC0
FFC0
0C00
0C00
0C00
0C00
0C00
0C00
ENDCHAR
STARTCHAR uni01C3
ENCODING 451
SWIDTH 600 0
DWIDTH 12 0
BBX 4 13 4 0
BITMAP
60
F0
F0
60
60
60
60
60
60
00
00
60
60
ENDCHAR
STARTCHAR uni01c4
ENCODING 452
SWIDTH 600 0
DWIDTH 12 0
BBX 12 16 0 0
BITMAP
0630
03E0
01C0
0000
F3F0
FFF0
6F60
6760
6760
66C0
66C0
67B0
67B0
6F30
FFF0
FBF0
ENDCHAR
STARTCHAR uni01c5
ENCODING 453
SWIDTH 600 0
DWIDTH 12 0
BBX 12 14 0 0
BITMAP
0410
0770
F1C0
FC80
6C00
67F0
67F0
6760
67E0
66C0
6780
6DB0
FFF0
FBF0
ENDCHAR
STARTCHAR uni01c6
ENCODING 454
SWIDTH 600 0
DWIDTH 12 0
BBX 12 14 0 0
BITMAP
0630
1FE0
3C80
0C00
0C00
7FE0
FFE0
DF60
CEC0
CDC0
CD80
CFB0
FFF0
7FF0
ENDCHAR
STARTCHAR uni01C7
ENCODING 455
SWIDTH 600 0
DWIDTH 12 0
BBX 12 12 0 0
BITMAP
F0E0
F9F0
6060
6060
6060
6060
6060
6660
6660
6660
FFE0
FFC0
ENDCHAR
STARTCHAR uni01C8
ENCODING 456
SWIDTH 600 0
DWIDTH 12 0
BBX 10 16 1 -4
BITMAP
F180
F980
6000
67C0
67C0
60C0
60C0
66C0
66C0
66C0
FEC0
FEC0
00C0
00C0
1FC0
1F80
ENDCHAR
STARTCHAR uni01C9
ENCODING 457
SWIDTH 600 0
DWIDTH 12 0
BBX 10 16 1 -4
BITMAP
F180
7180
3000
37C0
37C0
30C0
30C0
30C0
30C0
30C0
FEC0
FEC0
00C0
00C0
1F80
1F00
ENDCHAR
STARTCHAR uni01ca
ENCODING 458
SWIDTH 600 0
DWIDTH 12 0
BBX 12 12 0 0
BITMAP
EFF0
EFF0
7660
7660
7660
7E60
7FE0
7FE0
6FE0
6FE0
FFE0
F7E0
ENDCHAR
STARTCHAR uni01CB
ENCODING 459
SWIDTH 600 0
DWIDTH 12 0
BBX 12 16 0 -4
BITMAP
6770
FFF0
7300
7370
7B70
7B30
6F30
6F30
6F30
6730
F730
F730
0030
0060
0FE0
0FC0
ENDCHAR
STARTCHAR uni01CC
ENCODING 460
SWIDTH 600 0
DWIDTH 12 0
BBX 11 16 0 -4
BITMAP
0060
0060
0000
6CE0
FEE0
7660
6660
6660
6660
6660
FF60
FF60
0060
0060
0FE0
0FC0
ENDCHAR
STARTCHAR uni01CD
ENCODING 461
SWIDTH 600 0
DWIDTH 12 0
BBX 12 16 0 0
BITMAP
3180
3F00
0E00
0000
3E00
7F00
0F00
0F00
1980
1980
39C0
3FC0
3FC0
6060
F9F0
F9F0
ENDCHAR
STARTCHAR uni01CE
ENCODING 462
SWIDTH 600 0
DWIDTH 12 0
BBX 10 13 1 0
BITMAP
6100
3F00
0C00
0000
3E00
7F00
0180
1F80
7F80
E180
C380
FFC0
7FC0
ENDCHAR
STARTCHAR uni01CF
ENCODING 463
SWIDTH 600 0
DWIDTH 12 0
BBX 8 16 2 0
BITMAP
43
7E
18
00
FF
FF
18
18
18
18
18
18
18
18
FF
FF
ENDCHAR
STARTCHAR uni01D0
ENCODING 464
SWIDTH 600 0
DWIDTH 12 0
BBX 10 13 1 0
BITMAP
7300
1E00
0C00
0000
7C00
7C00
0C00
0C00
0C00
0C00
0C00
FFC0
FFC0
ENDCHAR
STARTCHAR uni01D1
ENCODING 465
SWIDTH 600 0
DWIDTH 12 0
BBX 12 16 0 0
BITMAP
10C0
1F80
0600
0000
0F00
3FC0
30E0
6060
6060
C030
C030
6060
6060
70E0
3FC0
1F80
ENDCHAR
STARTCHAR uni01D2
ENCODING 466
SWIDTH 600 0
DWIDTH 12 0
BBX 10 13 1 0
BITMAP
7300
1E00
0C00
0000
1E00
7F80
E1C0
C0C0
C0C0
C0C0
E1C0
7F80
3F00
ENDCHAR
STARTCHAR uni01D3
ENCODING 467
SWIDTH 600 0
DWIDTH 12 0
BBX 12 16 0 0
BITMAP
10C0
1F80
0600
0000
79E0
F9F0
6060
6060
6060
6060
6060
6060
6060
30C0
3FC0
1F80
ENDCHAR
STARTCHAR uni01D4
ENCODING 468
SWIDTH 600 0
DWIDTH 12 0
BBX 11 13 0 0
BITMAP
3980
0F00
0600
0000
71C0
F3C0
30C0
30C0
30C0
30C0
30C0
3FE0
1FE0
ENDCHAR
STARTCHAR uni01D5
ENCODING 469
SWIDTH 600 0
DWIDTH 12 0
BBX 12 16 0 0
BITMAP
1F80
1F80
0000
1980
1980
0000
F9F0
F9F0
6060
6060
6060
6060
6060
30C0
3FC0
1F80
ENDCHAR
STARTCHAR uni01D6
ENCODING 470
SWIDTH 600 0
DWIDTH 12 0
BBX 11 15 0 0
BITMAP
3F80
0000
0000
1980
1980
0000
71C0
F3C0
30C0
30C0
30C0
30C0
30C0
3FE0
1FE0
ENDCHAR
STARTCHAR uni01D7
ENCODING 471
SWIDTH 600 0
DWIDTH 12 0
BBX 12 16 0 0
BITMAP
0100
0700
0000
1980
1980
0000
F9F0
F9F0
6060
6060
6060
6060
6060
30C0
3FC0
1F80
ENDCHAR
STARTCHAR uni01D8
ENCODING 472
SWIDTH 600 0
DWIDTH 12 0
BBX 11 16 0 0
BITMAP
0180
0300
0600
0000
1980
1980
0000
71C0
F3C0
30C0
30C0
30C0
30C0
30C0
3FE0
1FE0
ENDCHAR
STARTCHAR uni01D9
ENCODING 473
SWIDTH 600 0
DWIDTH 12 0
BBX 12 16 0 0
BITMAP
10C0
1F80
0600
38C0
38C0
0000
F9F0
F9F0
6060
6060
6060
6060
6060
30C0
3FC0
1F80
ENDCHAR
STARTCHAR uni01DA
ENCODING 474
SWIDTH 600 0
DWIDTH 12 0
BBX 11 16 0 0
BITMAP
3080
1F80
0600
0000
1980
1980
0000
71C0
F3C0
30C0
30C0
30C0
30C0
30C0
3FE0
1FE0
ENDCHAR
STARTCHAR uni01DB
ENCODING 475
SWIDTH 600 0
DWIDTH 12 0
BBX 12 16 0 0
BITMAP
1800
0C00
0600
30C0
30C0
0000
F9F0
F9F0
6060
6060
6060
6060
6060
30C0
3FC0
1F80
ENDCHAR
STARTCHAR uni01DC
ENCODING 476
SWIDTH 600 0
DWIDTH 12 0
BBX 11 16 0 0
BITMAP
1800
1C00
0600
0000
1980
1980
0000
71C0
F3C0
30C0
30C0
30C0
30C0
30C0
3FE0
1FE0
ENDCHAR
STARTCHAR uni01DD
ENCODING 477
SWIDTH 600 0
DWIDTH 12 0
BBX 10 9 1 0
BITMAP
7E00
FF80
8180
00C0
FFC0
FFC0
C1C0
7F80
3F00
ENDCHAR
STARTCHAR uni01DE
ENCODING 478
SWIDTH 600 0
DWIDTH 12 0
BBX 12 16 0 0
BITMAP
3F80
1F80
0000
3980
1980
0000
3E00
3F00
0F00
1B80
1980
31C0
3FC0
60E0
F9F0
F9F0
ENDCHAR
STARTCHAR uni01DF
ENCODING 479
SWIDTH 600 0
DWIDTH 12 0
BBX 10 15 1 0
BITMAP
7F00
0000
0000
3300
3300
0000
3E00
7F00
0180
1F80
7F80
E180
C380
FFC0
7FC0
ENDCHAR
STARTCHAR uni01E0
ENCODING 480
SWIDTH 600 0
DWIDTH 12 0
BBX 12 16 0 0
BITMAP
3F80
1F80
0000
0600
0600
0000
3E00
3F00
0F00
1B80
1980
31C0
3FC0
60E0
F9F0
F9F0
ENDCHAR
STARTCHAR uni01E1
ENCODING 481
SWIDTH 600 0
DWIDTH 12 0
BBX 10 15 1 0
BITMAP
7F00
3F00
0000
0C00
0C00
0000
3E00
7F00
0180
1F80
7F80
E180
C380
FFC0
7FC0
ENDCHAR
STARTCHAR uni01E2
ENCODING 482
SWIDTH 600 0
DWIDTH 12 0
BBX 12 15 0 0
BITMAP
0FE0
0FE0
0000
3FF0
3FF0
1E30
1E30
1EF0
37C0
37C0
3EC0
3E10
6630
FFF0
FFF0
ENDCHAR
STARTCHAR uni01E3
ENCODING 483
SWIDTH 600 0
DWIDTH 12 0
BBX 12 12 0 0
BITMAP
1FC0
1F80
0000
3DC0
7FE0
0730
3E30
FFF0
C7F0
C700
FFF0
7FF0
ENDCHAR
STARTCHAR uni01E4
ENCODING 484
SWIDTH 600 0
DWIDTH 12 0
BBX 12 12 0 0
BITMAP
0F40
3FC0
70C0
60C0
C000
C000
C7C0
C7C0
E0F0
60F0
7FC0
1F80
ENDCHAR
STARTCHAR uni01E5
ENCODING 485
SWIDTH 600 0
DWIDTH 12 0
BBX 11 13 1 -4
BITMAP
3DC0
7FE0
E380
C180
C180
C180
C380
7F80
3F80
01E0
01E0
3F00
3E00
ENDCHAR
STARTCHAR Gcaron
ENCODING 486
SWIDTH 600 0
DWIDTH 12 0
BBX 11 16 1 0
BITMAP
2180
3F00
0C00
0000
1FC0
7FC0
61C0
C0C0
C000
C000
C7C0
C7E0
C0C0
E0C0
7FC0
3F80
ENDCHAR
STARTCHAR gcaron
ENCODING 487
SWIDTH 600 0
DWIDTH 12 0
BBX 11 17 1 -4
BITMAP
7300
1E00
0C00
0000
3DC0
7FE0
E380
C180
C180
C180
C380
7F80
3F80
0180
0180
3F80
3E00
ENDCHAR
STARTCHAR uni01E8
ENCODING 488
SWIDTH 600 0
DWIDTH 12 0
BBX 12 16 0 0
BITMAP
10C0
1F80
0600
0000
79E0
FDE0
31C0
3380
3700
3E00
3F00
3380
3180
31C0
FCF0
FCF0
ENDCHAR
STARTCHAR uni01E9
ENCODING 489
SWIDTH 600 0
DWIDTH 12 0
BBX 10 16 1 0
BITMAP
2080
3B00
0E00
0000
E000
E000
6000
6780
6780
6E00
7C00
7C00
7E00
6700
E3C0
E3C0
ENDCHAR
STARTCHAR uni01EA
ENCODING 490
SWIDTH 600 0
DWIDTH 12 0
BBX 12 16 0 -4
BITMAP
0F00
3FC0
30E0
6060
6060
C030
C030
6060
6060
70E0
3FC0
1F80
0C00
0800
1F00
0E00
ENDCHAR
STARTCHAR uni01EB
ENCODING 491
SWIDTH 600 0
DWIDTH 12 0
BBX 10 13 1 -4
BITMAP
1E00
7F80
E1C0
C0C0
C0C0
C0C0
E1C0
7F80
3F00
0C00
1000
3E00
1C00
ENDCHAR
STARTCHAR uni01EC
ENCODING 492
SWIDTH 600 0
DWIDTH 12 0
BBX 12 19 0 -4
BITMAP
1F80
1FC0
0000
0F00
3FC0
30E0
6060
6060
C030
C030
6060
6060
70E0
3FC0
1F80
0C00
0800
1F00
0E00
ENDCHAR
STARTCHAR uni01ED
ENCODING 493
SWIDTH 600 0
DWIDTH 12 0
BBX 10 16 1 -4
BITMAP
3F00
3F00
0000
1E00
7F80
E1C0
C0C0
C0C0
C0C0
E1C0
7F80
3F00
0C00
1000
3E00
1C00
ENDCHAR
STARTCHAR uni01EE
ENCODING 494
SWIDTH 600 0
DWIDTH 12 0
BBX 10 17 1 -1
BITMAP
2180
3F00
0C00
0000
7F80
7F80
6380
6300
0600
0F00
1F80
00C0
00C0
C0C0
E1C0
7F80
1F00
ENDCHAR
STARTCHAR uni01ef
ENCODING 495
SWIDTH 600 0
DWIDTH 12 0
BBX 8 17 2 -4
BITMAP
E6
3C
18
00
FE
FF
1C
38
7C
66
06
02
02
86
C6
7C
18
ENDCHAR
STARTCHAR jcaron
ENCODING 496
SWIDTH 600 0
DWIDTH 12 0
BBX 7 17 2 -4
BITMAP
E6
3C
18
00
FE
FE
06
06
06
06
06
06
06
06
06
FC
F8
ENDCHAR
STARTCHAR uni01f1
ENCODING 497
SWIDTH 600 0
DWIDTH 12 0
BBX 12 12 0 0
BITMAP
F3F0
FFF0
6F60
6760
6760
66C0
66C0
67B0
67B0
6F30
FFF0
FBF0
ENDCHAR
STARTCHAR uni01f2
ENCODING 498
SWIDTH 600 0
DWIDTH 12 0
BBX 12 12 0 0
BITMAP
F000
FC00
6C00
67F0
67F0
6760
67E0
66C0
6780
6DB0
FFF0
FBF0
ENDCHAR
STARTCHAR uni01f3
ENCODING 499
SWIDTH 600 0
DWIDTH 12 0
BBX 12 13 0 0
BITMAP
1C00
3C00
0C00
0C00
7FE0
FFE0
DF60
CEC0
CDC0
CD80
CFB0
FFF0
7FF0
ENDCHAR
STARTCHAR uni01F4
ENCODING 500
SWIDTH 600 0
DWIDTH 12 0
BBX 11 16 1 0
BITMAP
0100
0700
0400
0000
1FC0
7FC0
61C0
C0C0
C000
C000
C7C0
C7E0
C0C0
E0C0
7FC0
3F80
ENDCHAR
STARTCHAR uni01F5
ENCODING 501
SWIDTH 600 0
DWIDTH 12 0
BBX 11 17 1 -4
BITMAP
0600
0E00
0800
0000
3DC0
7FE0
E380
C180
C180
C180
C380
7F80
3F80
0180
0180
3F80
3E00
ENDCHAR
STARTCHAR uni01F6
ENCODING 502
SWIDTH 600 0
DWIDTH 12 0
BBX 10 12 1 0
BITMAP
EE00
EE00
6C00
6DC0
6DC0
7CC0
7CC0
6CC0
6CC0
6CC0
EFC0
EF80
ENDCHAR
STARTCHAR uni01f7
ENCODING 503
SWIDTH 600 0
DWIDTH 12 0
BBX 11 16 0 -4
BITMAP
F7C0
FFE0
3820
3020
3060
30E0
31C0
3380
3700
3E00
3C00
3800
3000
3000
FC00
FC00
ENDCHAR
STARTCHAR uni01F8
ENCODING 504
SWIDTH 600 0
DWIDTH 12 0
BBX 12 16 0 0
BITMAP
1800
0C00
0600
0000
F1E0
F1F0
7860
7C60
6C60
6E60
6760
6360
63E0
61E0
F8E0
F8E0
ENDCHAR
STARTCHAR uni01F9
ENCODING 505
SWIDTH 600 0
DWIDTH 12 0
BBX 10 13 1 0
BITMAP
3000
1800
0C00
0000
EF00
FF80
7180
6180
6180
6180
6180
F3C0
F3C0
ENDCHAR
STARTCHAR Aringacute
ENCODING 506
SWIDTH 600 0
DWIDTH 12 0
BBX 12 16 0 0
BITMAP
0200
0600
0C00
0600
0F00
0F00
0600
7E00
3F00
0F00
1980
3980
3FC0
7FE0
70E0
F9F0
ENDCHAR
STARTCHAR aringacute
ENCODING 507
SWIDTH 600 0
DWIDTH 12 0
BBX 10 16 1 0
BITMAP
0300
0600
0C00
0000
1C00
1600
1C00
0000
7F00
7F80
0180
3F80
F780
C180
FFC0
7FC0
ENDCHAR
STARTCHAR AEacute
ENCODING 508
SWIDTH 600 0
DWIDTH 12 0
BBX 12 16 0 0
BITMAP
0040
00C0
0180
0000
3FF0
3FF0
1E30
1E30
1EF0
37C0
37C0
3EC0
3E10
6630
FFF0
FFF0
ENDCHAR
STARTCHAR aeacute
ENCODING 509
SWIDTH 600 0
DWIDTH 12 0
BBX 12 13 0 0
BITMAP
0080
0380
0200
0000
3DC0
7FE0
0730
3E30
FFF0
C7F0
C700
FFF0
7FF0
ENDCHAR
STARTCHAR Oslashacute
ENCODING 510
SWIDTH 600 0
DWIDTH 12 0
BBX 12 17 0 -1
BITMAP
0180
0300
0600
0020
0F70
3FE0
30C0
61E0
63E0
C730
C630
6C60
7860
78E0
7FC0
7F80
C000
ENDCHAR
STARTCHAR oslashacute
ENCODING 511
SWIDTH 600 0
DWIDTH 12 0
BBX 11 14 0 -1
BITMAP
0180
0300
0600
0020
0F60
3FC0
71E0
63E0
6760
6E60
7CE0
3FC0
7F80
E000
ENDCHAR
STARTCHAR uni0200
ENCODING 512
SWIDTH 600 0
DWIDTH 12 0
BBX 12 16 0 0
BITMAP
C800
6C00
3600
0000
3E00
7F00
0F00
0F00
1980
1980
39C0
3FC0
3FC0
6060
F9F0
F9F0
ENDCHAR
STARTCHAR uni0201
ENCODING 513
SWIDTH 600 0
DWIDTH 12 0
BBX 10 14 1 0
BITMAP
2400
3600
1B00
0900
0000
3E00
7F00
0180
1F80
7F80
E180
C380
FFC0
7FC0
ENDCHAR
STARTCHAR uni0202
ENCODING 514
SWIDTH 600 0
DWIDTH 12 0
BBX 12 16 0 0
BITMAP
0E00
1F80
3080
0000
3E00
7F00
0F00
0F00
1980
1980
39C0
3FC0
3FC0
6060
F9F0
F9F0
ENDCHAR
STARTCHAR uni0203
ENCODING 515
SWIDTH 600 0
DWIDTH 12 0
BBX 10 13 1 0
BITMAP
1E00
3300
6100
0000
3E00
7F00
0180
1F80
7F80
E180
C380
FFC0
7FC0
ENDCHAR
STARTCHAR uni0204
ENCODING 516
SWIDTH 600 0
DWIDTH 12 0
BBX 11 16 0 0
BITMAP
6400
3600
1B00
0000
7FE0
FFE0
3060
3060
3340
3F00
3F00
3300
3260
3060
FFE0
FFE0
ENDCHAR
STARTCHAR uni0205
ENCODING 517
SWIDTH 600 0
DWIDTH 12 0
BBX 10 14 1 0
BITMAP
8800
EC00
7600
1200
0000
3E00
7F80
E180
C0C0
FFC0
FFC0
C000
7FC0
3F80
ENDCHAR
STARTCHAR uni0206
ENCODING 518
SWIDTH 600 0
DWIDTH 12 0
BBX 11 16 0 0
BITMAP
0700
1F80
10C0
0000
7FE0
FFE0
3060
3060
3340
3F00
3F00
3300
3260
3060
FFE0
FFE0
ENDCHAR
STARTCHAR uni0207
ENCODING 519
SWIDTH 600 0
DWIDTH 12 0
BBX 10 13 1 0
BITMAP
3E00
6300
6100
0000
3E00
7F80
E180
C0C0
FFC0
FFC0
C000
7FC0
3F80
ENDCHAR
STARTCHAR uni0208
ENCODING 520
SWIDTH 600 0
DWIDTH 12 0
BBX 9 16 1 0
BITMAP
C800
6C00
3600
0000
7F80
7F80
0C00
0C00
0C00
0C00
0C00
0C00
0C00
0C00
7F80
7F80
ENDCHAR
STARTCHAR uni0209
ENCODING 521
SWIDTH 600 0
DWIDTH 12 0
BBX 10 14 1 0
BITMAP
4800
6C00
3600
1200
0000
7C00
7C00
0C00
0C00
0C00
0C00
0C00
FFC0
FFC0
ENDCHAR
STARTCHAR uni020A
ENCODING 522
SWIDTH 600 0
DWIDTH 12 0
BBX 8 16 2 0
BITMAP
18
7E
C2
00
FF
FF
18
18
18
18
18
18
18
18
FF
FF
ENDCHAR
STARTCHAR uni020B
ENCODING 523
SWIDTH 600 0
DWIDTH 12 0
BBX 10 13 1 0
BITMAP
1E00
2300
2100
0000
7C00
7C00
0C00
0C00
0C00
0C00
0C00
FFC0
FFC0
ENDCHAR
STARTCHAR uni020C
ENCODING 524
SWIDTH 600 0
DWIDTH 12 0
BBX 12 16 0 0
BITMAP
6400
3600
1B00
0000
0F00
3FC0
30E0
6060
6060
C030
C030
6060
6060
70E0
3FC0
1F80
ENDCHAR
STARTCHAR uni020D
ENCODING 525
SWIDTH 600 0
DWIDTH 12 0
BBX 10 14 1 0
BITMAP
4800
6C00
3600
1200
0000
1E00
7F80
E1C0
C0C0
C0C0
C0C0
E1C0
7F80
3F00
ENDCHAR
STARTCHAR uni020E
ENCODING 526
SWIDTH 600 0
DWIDTH 12 0
BBX 12 16 0 0
BITMAP
0600
1F80
3080
0000
0F00
3FC0
30E0
6060
6060
C030
C030
6060
6060
70E0
3FC0
1F80
ENDCHAR
STARTCHAR uni020F
ENCODING 527
SWIDTH 600 0
DWIDTH 12 0
BBX 10 13 1 0
BITMAP
1E00
3300
2180
0000
1E00
7F80
E1C0
C0C0
C0C0
C0C0
E1C0
7F80
3F00
ENDCHAR
STARTCHAR uni0210
ENCODING 528
SWIDTH 600 0
DWIDTH 12 0
BBX 12 16 0 0
BITMAP
6C00
7600
1B00
0000
FE00
FF80
31C0
30C0
30C0
33C0
3F80
3F80
31C0
30C0
FCF0
FC70
ENDCHAR
STARTCHAR uni0211
ENCODING 529
SWIDTH 600 0
DWIDTH 12 0
BBX 10 14 1 0
BITMAP
4800
6C00
3600
1200
0000
7BC0
7FC0
1E40
1800
1800
1800
1800
FF80
FF80
ENDCHAR
STARTCHAR uni0212
ENCODING 530
SWIDTH 600 0
DWIDTH 12 0
BBX 12 16 0 0
BITMAP
0E00
1F80
3080
0000
FE00
FF80
31C0
30C0
30C0
33C0
3F80
3F80
31C0
30C0
FCF0
FC70
ENDCHAR
STARTCHAR uni0213
ENCODING 531
SWIDTH 600 0
DWIDTH 12 0
BBX 10 13 1 0
BITMAP
1F00
3100
2180
0000
7BC0
7FC0
1E40
1800
1800
1800
1800
FF80
FF80
ENDCHAR
STARTCHAR uni0214
ENCODING 532
SWIDTH 600 0
DWIDTH 12 0
BBX 12 16 0 0
BITMAP
6400
3600
1B00
0000
79E0
F9F0
6060
6060
6060
6060
6060
6060
6060
30C0
3FC0
1F80
ENDCHAR
STARTCHAR uni0215
ENCODING 533
SWIDTH 600 0
DWIDTH 12 0
BBX 11 14 0 0
BITMAP
4400
7600
1B00
0900
0000
71C0
F3C0
30C0
30C0
30C0
30C0
30C0
3FE0
1FE0
ENDCHAR
STARTCHAR uni0216
ENCODING 534
SWIDTH 600 0
DWIDTH 12 0
BBX 12 15 0 0
BITMAP
1F80
1080
1080
79E0
F9F0
6060
6060
6060
6060
6060
6060
6060
30C0
3FC0
1F80
ENDCHAR
STARTCHAR uni0217
ENCODING 535
SWIDTH 600 0
DWIDTH 12 0
BBX 11 13 0 0
BITMAP
1F80
3080
0080
0000
71C0
F3C0
30C0
30C0
30C0
30C0
30C0
3FE0
1FE0
ENDCHAR
STARTCHAR Scommaaccent
ENCODING 536
SWIDTH 600 0
DWIDTH 12 0
BBX 10 16 1 -4
BITMAP
1E80
7F80
6180
6180
6000
7E00
1F80
03C0
C0C0
E1C0
FF80
FF00
0E00
0C00
0C00
0800
ENDCHAR
STARTCHAR scommaaccent
ENCODING 537
SWIDTH 600 0
DWIDTH 12 0
BBX 10 13 1 -4
BITMAP
3F80
7F80
6180
7800
3F80
0780
C1C0
FF80
7F00
0C00
0C00
1800
1000
ENDCHAR
STARTCHAR uni021A
ENCODING 538
SWIDTH 600 0
DWIDTH 12 0
BBX 10 16 1 -4
BITMAP
FFC0
FFC0
CCC0
CCC0
CCC0
0C00
0C00
0C00
0C00
0C00
7F80
7F80
0C00
0C00
0800
0800
ENDCHAR
STARTCHAR uni021B
ENCODING 539
SWIDTH 600 0
DWIDTH 12 0
BBX 11 16 0 -4
BITMAP
1000
3000
3000
7F80
FF80
3000
3000
3000
3000
3040
3FE0
1FC0
0E00
0C00
0800
0800
ENDCHAR
STARTCHAR uni021c
ENCODING 540
SWIDTH 600 0
DWIDTH 12 0
BBX 9 13 2 -1
BITMAP
BC00
FF00
C300
C300
0300
0700
1F00
1B80
0180
0180
0700
FE00
F000
ENDCHAR
STARTCHAR uni021d
ENCODING 541
SWIDTH 600 0
DWIDTH 12 0
BBX 8 12 2 -3
BITMAP
FE
FF
C3
87
1F
3B
21
03
0F
1C
78
60
ENDCHAR
STARTCHAR uni021E
ENCODING 542
SWIDTH 600 0
DWIDTH 12 0
BBX 11 16 1 0
BITMAP
2180
3F00
0C00
0000
F3C0
FBC0
6180
6180
6180
7F80
7F80
6180
6180
6180
F3E0
F3E0
ENDCHAR
STARTCHAR uni021F
ENCODING 543
SWIDTH 600 0
DWIDTH 12 0
BBX 12 15 0 0
BITMAP
18C0
1F80
0600
F000
7000
3000
3780
3FC0
38C0
30C0
30C0
30C0
30C0
79F0
79F0
ENDCHAR
STARTCHAR uni0220
ENCODING 544
SWIDTH 600 0
DWIDTH 12 0
BBX 12 17 0 -4
BITMAP
0700
FF80
39C0
30C0
30C0
30C0
30C0
30C0
30C0
30C0
30C0
F8C0
F8C0
00C0
00C0
01F0
01F0
ENDCHAR
STARTCHAR uni0224
ENCODING 548
SWIDTH 600 0
DWIDTH 12 0
BBX 10 16 1 -4
BITMAP
7F80
7F80
6380
6300
6600
0E00
1C00
3880
30C0
60C0
FFC0
FFC0
00C0
0180
0F80
0F00
ENDCHAR
STARTCHAR uni0225
ENCODING 549
SWIDTH 600 0
DWIDTH 12 0
BBX 8 13 2 -4
BITMAP
FF
FF
C6
CC
18
30
63
FF
FF
03
03
3F
1E
ENDCHAR
STARTCHAR uni0226
ENCODING 550
SWIDTH 600 0
DWIDTH 12 0
BBX 12 15 0 0
BITMAP
0600
0600
0000
3E00
7F00
0F00
0F00
1980
1980
39C0
3FC0
3FC0
6060
F9F0
F9F0
ENDCHAR
STARTCHAR uni0227
ENCODING 551
SWIDTH 600 0
DWIDTH 12 0
BBX 10 12 1 0
BITMAP
0C00
0C00
0000
3E00
7F00
0180
1F80
7F80
E180
C380
FFC0
7FC0
ENDCHAR
STARTCHAR uni0228
ENCODING 552
SWIDTH 600 0
DWIDTH 12 0
BBX 11 16 0 -4
BITMAP
7FE0
FFE0
3060
3060
3340
3F00
3F00
3300
3260
3060
FFE0
FFE0
0300
0100
0D00
0F00
ENDCHAR
STARTCHAR uni0229
ENCODING 553
SWIDTH 600 0
DWIDTH 12 0
BBX 10 13 1 -4
BITMAP
3E00
7F80
E180
C0C0
FFC0
FFC0
C000
7FC0
3F80
0C00
0600
1600
1C00
ENDCHAR
STARTCHAR uni022A
ENCODING 554
SWIDTH 600 0
DWIDTH 12 0
BBX 12 16 0 0
BITMAP
1FC0
1F80
0000
1980
1980
0000
1F80
3FC0
70E0
6060
C030
C030
6060
6060
39C0
1F80
ENDCHAR
STARTCHAR uni022B
ENCODING 555
SWIDTH 600 0
DWIDTH 12 0
BBX 10 15 1 0
BITMAP
3F00
0000
0000
3300
3300
0000
1E00
7F80
E1C0
C0C0
C0C0
C0C0
E1C0
7F80
3F00
ENDCHAR
STARTCHAR uni022C
ENCODING 556
SWIDTH 600 0
DWIDTH 12 0
BBX 12 16 0 0
BITMAP
3F80
1F80
0840
1E80
2380
0000
1F80
3FC0
70E0
6060
C030
C030
6060
6060
39C0
1F80
ENDCHAR
STARTCHAR uni022D
ENCODING 557
SWIDTH 600 0
DWIDTH 12 0
BBX 10 15 1 0
BITMAP
7F00
0000
3100
7F00
0200
0000
1E00
7F80
E1C0
C0C0
C0C0
C0C0
E1C0
7F80
3F00
ENDCHAR
STARTCHAR uni022E
ENCODING 558
SWIDTH 600 0
DWIDTH 12 0
BBX 12 15 0 0
BITMAP
0600
0600
0000
0F00
3FC0
30E0
6060
6060
C030
C030
6060
6060
70E0
3FC0
1F80
ENDCHAR
STARTCHAR uni022F
ENCODING 559
SWIDTH 600 0
DWIDTH 12 0
BBX 10 12 1 0
BITMAP
0C00
0C00
0000
1E00
7F80
E1C0
C0C0
C0C0
C0C0
E1C0
7F80
3F00
ENDCHAR
STARTCHAR uni0230
ENCODING 560
SWIDTH 600 0
DWIDTH 12 0
BBX 12 16 0 0
BITMAP
1F80
1F80
0000
0600
0600
0000
1F80
3FC0
70E0
6060
C030
C030
6060
6060
39C0
1F80
ENDCHAR
STARTCHAR uni0231
ENCODING 561
SWIDTH 600 0
DWIDTH 12 0
BBX 10 15 1 0
BITMAP
3F80
3F00
0000
0C00
0C00
0000
1E00
7F80
E1C0
C0C0
C0C0
C0C0
E1C0
7F80
3F00
ENDCHAR
STARTCHAR uni0232
ENCODING 562
SWIDTH 600 0
DWIDTH 12 0
BBX 12 15 0 0
BITMAP
1F80
1F80
0000
70E0
F9F0
30C0
1980
1F80
0F00
0600
0600
0600
0600
3FC0
3FC0
ENDCHAR
STARTCHAR uni0233
ENCODING 563
SWIDTH 600 0
DWIDTH 12 0
BBX 12 16 0 -4
BITMAP
1F80
1F80
0000
79E0
F9F0
30C0
30C0
1980
1980
0F00
0F00
0600
0600
0C00
7E00
7E00
ENDCHAR
STARTCHAR dotlessj
ENCODING 567
SWIDTH 600 0
DWIDTH 12 0
BBX 7 13 2 -4
BITMAP
FE
FE
06
06
06
06
06
06
06
06
06
FC
F8
ENDCHAR
STARTCHAR uni0250
ENCODING 592
SWIDTH 600 0
DWIDTH 12 0
BBX 10 9 1 0
BITMAP
FF80
FFC0
70C0
60C0
7FC0
7F00
7000
3F80
1F80
ENDCHAR
STARTCHAR uni0251
ENCODING 593
SWIDTH 600 0
DWIDTH 12 0
BBX 11 9 1 0
BITMAP
3EC0
7FC0
E1C0
C1C0
C0C0
C1C0
C1C0
7FE0
3EE0
ENDCHAR
STARTCHAR uni0252
ENCODING 594
SWIDTH 600 0
DWIDTH 12 0
BBX 11 9 1 0
BITMAP
EF80
FFC0
70E0
6060
6060
7060
70E0
7FC0
6F80
ENDCHAR
STARTCHAR uni0253
ENCODING 595
SWIDTH 600 0
DWIDTH 12 0
BBX 11 13 0 0
BITMAP
0E00
3E00
3200
7000
6F80
7FC0
78E0
7060
6060
7060
7060
FFC0
EF80
ENDCHAR
STARTCHAR uni0254
ENCODING 596
SWIDTH 600 0
DWIDTH 12 0
BBX 10 9 1 0
BITMAP
7F00
7F80
61C0
60C0
00C0
00C0
C0C0
FF80
7F00
ENDCHAR
STARTCHAR uni0256
ENCODING 598
SWIDTH 600 0
DWIDTH 12 0
BBX 14 16 1 -4
BITMAP
03C0
01C0
00C0
3EC0
7FC0
E1C0
C1C0
C0C0
C1C0
C1C0
7FC0
3EC0
00C0
00C0
00FC
0078
ENDCHAR
STARTCHAR uni0257
ENCODING 599
SWIDTH 600 0
DWIDTH 12 0
BBX 13 13 1 0
BITMAP
0038
00F8
00C8
00C0
3EC0
7FC0
E1C0
C1C0
C0C0
C1C0
C1C0
7FE0
3EE0
ENDCHAR
STARTCHAR uni0258
ENCODING 600
SWIDTH 600 0
DWIDTH 12 0
BBX 10 9 1 0
BITMAP
3E00
7F80
E180
C0C0
FFC0
FFC0
01C0
FF80
FF00
ENDCHAR
STARTCHAR uni0259
ENCODING 601
SWIDTH 600 0
DWIDTH 12 0
BBX 10 9 1 0
BITMAP
7E00
FF80
8180
00C0
FFC0
FFC0
C1C0
7F80
3F00
ENDCHAR
STARTCHAR uni025B
ENCODING 603
SWIDTH 600 0
DWIDTH 12 0
BBX 10 9 1 0
BITMAP
1F80
7F80
6180
7E00
3E00
7000
E0C0
7FC0
3F80
ENDCHAR
STARTCHAR uni025C
ENCODING 604
SWIDTH 600 0
DWIDTH 12 0
BBX 10 9 1 0
BITMAP
7E00
7F80
6180
1F80
1F00
0380
C1C0
FF80
7F00
ENDCHAR
STARTCHAR uni025F
ENCODING 607
SWIDTH 600 0
DWIDTH 12 0
BBX 9 13 2 -4
BITMAP
7F00
FF00
0300
0300
0300
0300
0300
7F80
7F80
0300
0700
FE00
FC00
ENDCHAR
STARTCHAR uni0260
ENCODING 608
SWIDTH 600 0
DWIDTH 12 0
BBX 13 17 1 -4
BITMAP
0070
00F8
01C0
0180
3D80
7F80
E380
C180
C180
C180
C380
7F80
3F80
0180
0180
3F00
3E00
ENDCHAR
STARTCHAR uni0261
ENCODING 609
SWIDTH 600 0
DWIDTH 12 0
BBX 9 13 1 -4
BITMAP
3D80
7F80
E380
C180
C180
C180
C380
7F80
3F80
0180
0180
3F00
3E00
ENDCHAR
STARTCHAR uni0265
ENCODING 613
SWIDTH 600 0
DWIDTH 12 0
BBX 12 13 0 -4
BITMAP
79E0
F9E0
30C0
30C0
30C0
30C0
31C0
3FC0
1FC0
00C0
00C0
00F0
00E0
ENDCHAR
STARTCHAR uni0266
ENCODING 614
SWIDTH 600 0
DWIDTH 12 0
BBX 11 13 1 0
BITMAP
1C00
3E00
7000
6000
6F00
7F80
7180
6180
6180
6180
6180
F3E0
F3E0
ENDCHAR
STARTCHAR uni0267
ENCODING 615
SWIDTH 600 0
DWIDTH 12 0
BBX 9 17 1 -4
BITMAP
1C00
3E00
7000
6000
6F00
7F80
7180
6180
6180
6180
6180
F180
F180
0180
0180
1F80
0E00
ENDCHAR
STARTCHAR uni0268
ENCODING 616
SWIDTH 600 0
DWIDTH 12 0
BBX 10 12 1 0
BITMAP
1C00
1C00
0000
7C00
7C00
0C00
0C00
7F80
7F80
0C00
FFC0
FFC0
ENDCHAR
STARTCHAR uni0269
ENCODING 617
SWIDTH 600 0
DWIDTH 12 0
BBX 9 9 2 0
BITMAP
F800
F800
1800
1800
1800
1800
1800
1F80
0F80
ENDCHAR
STARTCHAR uni026A
ENCODING 618
SWIDTH 600 0
DWIDTH 12 0
BBX 8 9 2 0
BITMAP
7E
FF
18
18
18
18
18
FF
FF
ENDCHAR
STARTCHAR uni026B
ENCODING 619
SWIDTH 600 0
DWIDTH 12 0
BBX 10 12 1 0
BITMAP
7C00
3C00
0C00
0C00
3C00
7CC0
EF80
CF80
0C00
0C00
FFC0
FFC0
ENDCHAR
STARTCHAR uni026D
ENCODING 621
SWIDTH 600 0
DWIDTH 12 0
BBX 9 16 2 -4
BITMAP
F800
7800
1800
1800
1800
1800
1800
1800
1800
1800
1800
1800
1800
1800
0F80
0780
ENDCHAR
STARTCHAR uni026F
ENCODING 623
SWIDTH 600 0
DWIDTH 12 0
BBX 12 9 0 0
BITMAP
EEF0
EEF0
6660
6660
6660
6660
6660
7FF0
3BF0
ENDCHAR
STARTCHAR uni0270
ENCODING 624
SWIDTH 600 0
DWIDTH 12 0
BBX 12 13 0 -4
BITMAP
EEF0
EEF0
6660
6660
6660
6660
6660
7FE0
3BE0
0060
0060
0070
0070
ENDCHAR
STARTCHAR uni0271
ENCODING 625
SWIDTH 600 0
DWIDTH 12 0
BBX 11 13 0 -4
BITMAP
FDC0
FFE0
6660
6660
6660
6660
6660
F760
F760
0060
0060
07E0
03C0
ENDCHAR
STARTCHAR uni0272
ENCODING 626
SWIDTH 600 0
DWIDTH 12 0
BBX 13 13 -2 -4
BITMAP
1DE0
1FF0
0E30
0C30
0C30
0C30
0C30
0C78
0C78
0C00
1C00
F800
F000
ENDCHAR
STARTCHAR uni0273
ENCODING 627
SWIDTH 600 0
DWIDTH 12 0
BBX 13 13 1 -4
BITMAP
EF00
FF80
7180
6180
6180
6180
6180
F180
F180
0180
01C0
00F8
0078
ENDCHAR
STARTCHAR uni0274
ENCODING 628
SWIDTH 600 0
DWIDTH 12 0
BBX 10 9 1 0
BITMAP
73C0
F3C0
7980
7D80
6D80
6780
6780
F380
F180
ENDCHAR
STARTCHAR uni0275
ENCODING 629
SWIDTH 600 0
DWIDTH 12 0
BBX 10 9 1 0
BITMAP
1E00
7F80
E1C0
C0C0
FFC0
C0C0
E1C0
7F80
3F00
ENDCHAR
STARTCHAR uni0279
ENCODING 633
SWIDTH 600 0
DWIDTH 12 0
BBX 10 9 1 0
BITMAP
3FC0
3FC0
0300
0300
0300
0300
0F00
FFC0
7BC0
ENDCHAR
STARTCHAR uni027A
ENCODING 634
SWIDTH 600 0
DWIDTH 12 0
BBX 10 13 1 0
BITMAP
3FC0
3FC0
0300
0300
0300
0300
0300
0300
0300
0300
0F00
FFC0
7BC0
ENDCHAR
STARTCHAR uni027B
ENCODING 635
SWIDTH 600 0
DWIDTH 12 0
BBX 12 13 1 -4
BITMAP
3FC0
3FC0
0300
0300
0300
0300
0F00
FF00
7B00
0300
0300
01F0
00E0
ENDCHAR
STARTCHAR uni027C
ENCODING 636
SWIDTH 600 0
DWIDTH 12 0
BBX 10 13 1 -4
BITMAP
7BC0
7FC0
1E40
1800
1800
1800
1800
1800
1800
1800
1800
FF80
FF80
ENDCHAR
STARTCHAR uni027D
ENCODING 637
SWIDTH 600 0
DWIDTH 12 0
BBX 9 13 2 -4
BITMAP
F780
FF80
3C80
3000
3000
3000
3000
3000
3000
3000
3000
3E00
1E00
ENDCHAR
STARTCHAR uni027E
ENCODING 638
SWIDTH 600 0
DWIDTH 12 0
BBX 9 9 1 0
BITMAP
0F00
1F00
1800
1800
1800
1800
1800
FF80
FF80
ENDCHAR
STARTCHAR uni027F
ENCODING 639
SWIDTH 600 0
DWIDTH 12 0
BBX 9 13 1 -4
BITMAP
7800
FC00
0C00
0C00
0C00
0C00
0C00
0C00
0C00
0C00
0C00
FF80
FF80
ENDCHAR
STARTCHAR uni0280
ENCODING 640
SWIDTH 600 0
DWIDTH 12 0
BBX 8 9 2 0
BITMAP
F8
FE
66
66
7E
7C
6E
F7
F7
ENDCHAR
STARTCHAR uni0281
ENCODING 641
SWIDTH 600 0
DWIDTH 12 0
BBX 8 9 2 0
BITMAP
E7
F7
66
7C
7E
66
66
FE
FC
ENDCHAR
STARTCHAR uni0282
ENCODING 642
SWIDTH 600 0
DWIDTH 12 0
BBX 10 13 1 -4
BITMAP
3F80
7F80
6180
7800
3F80
0780
C1C0
FF80
FF00
C000
6000
7C00
3C00
ENDCHAR
STARTCHAR uni0283
ENCODING 643
SWIDTH 600 0
DWIDTH 12 0
BBX 10 15 1 -2
BITMAP
0380
07C0
0E00
0C00
0C00
0C00
0C00
0C00
0C00
0C00
0C00
0C00
0C00
FC00
F800
ENDCHAR
STARTCHAR uni0284
ENCODING 644
SWIDTH 600 0
DWIDTH 12 0
BBX 11 17 1 -4
BITMAP
01C0
03E0
0700
0600
0600
0600
0600
0600
0600
0600
FF00
FF00
0600
0600
0E00
FC00
F800
ENDCHAR
STARTCHAR uni0285
ENCODING 645
SWIDTH 600 0
DWIDTH 12 0
BBX 10 15 1 -2
BITMAP
7000
F800
1C00
0C00
0C00
0C00
0C00
0C00
0C00
0C00
0C00
0C00
0C00
0FC0
07C0
ENDCHAR
STARTCHAR uni0287
ENCODING 647
SWIDTH 600 0
DWIDTH 12 0
BBX 11 12 0 0
BITMAP
1E00
7F00
E380
0180
0180
0180
0180
3FC0
3FE0
0180
0180
0180
ENDCHAR
STARTCHAR uni0288
ENCODING 648
SWIDTH 600 0
DWIDTH 12 0
BBX 10 16 0 -4
BITMAP
1000
3000
3000
7F80
FF80
3000
3000
3000
3000
3000
3000
3000
3000
30C0
1FC0
0F80
ENDCHAR
STARTCHAR uni0289
ENCODING 649
SWIDTH 600 0
DWIDTH 12 0
BBX 11 9 0 0
BITMAP
71C0
F3C0
30C0
30C0
FFE0
FFE0
30C0
3FE0
1FE0
ENDCHAR
STARTCHAR uni028C
ENCODING 652
SWIDTH 600 0
DWIDTH 12 0
BBX 12 9 0 0
BITMAP
0600
0F00
0F00
1F80
1980
39C0
30C0
F9F0
F9F0
ENDCHAR
STARTCHAR uni028D
ENCODING 653
SWIDTH 600 0
DWIDTH 12 0
BBX 12 9 0 0
BITMAP
1980
39C0
39C0
3FC0
3FC0
6EE0
6660
F0F0
F0F0
ENDCHAR
STARTCHAR uni028E
ENCODING 654
SWIDTH 600 0
DWIDTH 12 0
BBX 11 13 1 0
BITMAP
0FC0
0FE0
0600
0E00
0C00
1E00
1E00
3B00
3300
6180
6180
F3C0
F3C0
ENDCHAR
STARTCHAR uni0290
ENCODING 656
SWIDTH 600 0
DWIDTH 12 0
BBX 12 13 2 -4
BITMAP
FF00
FF00
C600
CC00
1800
3000
6300
FF00
FF00
0300
0180
01F0
00F0
ENDCHAR
STARTCHAR uni0291
ENCODING 657
SWIDTH 600 0
DWIDTH 12 0
BBX 9 11 2 -2
BITMAP
FF00
FF00
C600
8C00
1A00
3F80
6D80
FF80
FF00
0C00
0C00
ENDCHAR
STARTCHAR uni0292
ENCODING 658
SWIDTH 600 0
DWIDTH 12 0
BBX 8 13 1 -4
BITMAP
7F
7F
0E
18
3E
36
03
03
03
43
E6
7E
18
ENDCHAR
STARTCHAR uni0293
ENCODING 659
SWIDTH 600 0
DWIDTH 12 0
BBX 7 13 2 -4
BITMAP
FE
FE
1C
30
7C
6E
06
06
76
FE
DC
7C
2C
ENDCHAR
STARTCHAR uni0294
ENCODING 660
SWIDTH 600 0
DWIDTH 12 0
BBX 8 12 2 0
BITMAP
3C
FF
C3
C3
03
0F
1E
18
18
18
3E
3E
ENDCHAR
STARTCHAR uni0295
ENCODING 661
SWIDTH 600 0
DWIDTH 12 0
BBX 8 12 2 0
BITMAP
3E
7F
E3
C3
C0
70
38
18
18
18
3E
3E
ENDCHAR
STARTCHAR uni0296
ENCODING 662
SWIDTH 600 0
DWIDTH 12 0
BBX 8 12 2 0
BITMAP
3E
3E
18
18
18
38
78
E0
C1
C3
7F
3F
ENDCHAR
STARTCHAR uni0297
ENCODING 663
SWIDTH 600 0
DWIDTH 12 0
BBX 10 16 1 -4
BITMAP
1EC0
7FC0
61C0
C0C0
C0C0
C000
C000
C000
C000
C000
C000
C000
C000
E0C0
7FC0
1F00
ENDCHAR
STARTCHAR uni0298
ENCODING 664
SWIDTH 600 0
DWIDTH 12 0
BBX 12 12 0 0
BITMAP
0F00
3FC0
30E0
6060
6060
C630
C630
6060
6060
70E0
3FC0
1F80
ENDCHAR
STARTCHAR uni0299
ENCODING 665
SWIDTH 600 0
DWIDTH 12 0
BBX 10 9 1 0
BITMAP
FE00
FF80
6180
7F80
7F80
61C0
60C0
FF80
FF00
ENDCHAR
STARTCHAR uni029a
ENCODING 666
SWIDTH 600 0
DWIDTH 12 0
BBX 9 9 2 0
BITMAP
7E00
FF00
C300
E180
7D80
E180
8100
E700
7E00
ENDCHAR
STARTCHAR uni029b
ENCODING 667
SWIDTH 600 0
DWIDTH 12 0
BBX 12 10 0 0
BITMAP
00E0
1FF0
7FB0
6180
C000
C780
CFC0
C180
7180
3F80
ENDCHAR
STARTCHAR uni029C
ENCODING 668
SWIDTH 600 0
DWIDTH 12 0
BBX 10 9 1 0
BITMAP
F380
F3C0
6180
7F80
7F80
6180
6180
F3C0
F3C0
ENDCHAR
STARTCHAR uni029d
ENCODING 669
SWIDTH 600 0
DWIDTH 12 0
BBX 9 17 2 -4
BITMAP
0600
0600
0600
0000
7F00
7F00
0300
0300
0300
0300
0300
3F80
7F80
C300
C600
7E00
3800
ENDCHAR
STARTCHAR uni029E
ENCODING 670
SWIDTH 600 0
DWIDTH 12 0
BBX 10 13 1 -4
BITMAP
F1C0
F9C0
3980
1D80
0F80
0F80
1D80
7980
7980
0180
0180
01C0
01C0
ENDCHAR
STARTCHAR uni029F
ENCODING 671
SWIDTH 600 0
DWIDTH 12 0
BBX 10 9 1 0
BITMAP
7C00
FC00
3000
3000
3000
30C0
30C0
FFC0
FFC0
ENDCHAR
STARTCHAR uni02A0
ENCODING 672
SWIDTH 600 0
DWIDTH 12 0
BBX 13 17 1 -4
BITMAP
0038
00F8
00C8
00C0
3EC0
7FC0
E1C0
C1C0
C0C0
C1C0
E3C0
7FC0
1CC0
00C0
00C0
07E0
07E0
ENDCHAR
STARTCHAR uni02A1
ENCODING 673
SWIDTH 600 0
DWIDTH 12 0
BBX 8 12 2 0
BITMAP
3C
FF
C3
C3
03
0F
1E
F8
F8
18
3E
3E
ENDCHAR
STARTCHAR uni02A2
ENCODING 674
SWIDTH 600 0
DWIDTH 12 0
BBX 8 12 2 0
BITMAP
3E
7F
E3
C3
C0
70
38
1F
1F
18
3E
3E
ENDCHAR
STARTCHAR uni02b0
ENCODING 688
SWIDTH 600 0
DWIDTH 12 0
BBX 7 9 2 7
BITMAP
E0
60
78
7C
66
66
66
EE
EE
ENDCHAR
STARTCHAR uni02b1
ENCODING 689
SWIDTH 600 0
DWIDTH 12 0
BBX 8 9 2 7
BITMAP
38
68
7C
7E
66
66
66
F7
F7
ENDCHAR
STARTCHAR uni02b2
ENCODING 690
SWIDTH 600 0
DWIDTH 12 0
BBX 5 12 4 4
BITMAP
30
30
00
F8
18
18
18
18
18
18
F0
C0
ENDCHAR
STARTCHAR uni02b3
ENCODING 691
SWIDTH 600 0
DWIDTH 12 0
BBX 6 7 3 7
BITMAP
EC
FC
60
60
60
F8
F8
ENDCHAR
STARTCHAR uni02b4
ENCODING 692
SWIDTH 600 0
DWIDTH 12 0
BBX 7 7 1 7
BITMAP
3E
7E
0C
0C
0C
FE
6E
ENDCHAR
STARTCHAR uni02b5
ENCODING 693
SWIDTH 600 0
DWIDTH 12 0
BBX 8 9 2 5
BITMAP
7E
7E
08
08
18
F8
E8
08
0F
ENDCHAR
STARTCHAR uni02b6
ENCODING 694
SWIDTH 600 0
DWIDTH 12 0
BBX 8 9 2 7
BITMAP
E2
E7
44
4C
78
4C
44
FC
F8
ENDCHAR
STARTCHAR uni02b7
ENCODING 695
SWIDTH 600 0
DWIDTH 12 0
BBX 8 7 2 7
BITMAP
E7
E7
5A
7E
7E
3C
24
ENDCHAR
STARTCHAR uni02b8
ENCODING 696
SWIDTH 600 0
DWIDTH 12 0
BBX 8 9 2 5
BITMAP
67
E7
66
34
3C
18
18
10
F8
ENDCHAR
STARTCHAR primemod
ENCODING 697
SWIDTH 600 0
DWIDTH 12 0
BBX 3 4 4 9
BITMAP
60
60
C0
C0
ENDCHAR
STARTCHAR uni02ba
ENCODING 698
SWIDTH 600 0
DWIDTH 12 0
BBX 7 4 2 9
BITMAP
7E
6C
6C
D8
ENDCHAR
STARTCHAR commaturnedmod
ENCODING 699
SWIDTH 600 0
DWIDTH 12 0
BBX 4 3 4 10
BITMAP
C0
60
30
ENDCHAR
STARTCHAR apostrophe
ENCODING 700
SWIDTH 600 0
DWIDTH 12 0
BBX 4 3 4 10
BITMAP
30
60
C0
ENDCHAR
STARTCHAR uni02bd
ENCODING 701
SWIDTH 600 0
DWIDTH 12 0
BBX 3 4 5 9
BITMAP
C0
C0
60
60
ENDCHAR
STARTCHAR uni02BE
ENCODING 702
SWIDTH 600 0
DWIDTH 12 0
BBX 1 3 6 10
BITMAP
80
80
80
ENDCHAR
STARTCHAR uni02BF
ENCODING 703
SWIDTH 600 0
DWIDTH 12 0
BBX 1 3 5 10
BITMAP
80
80
80
ENDCHAR
STARTCHAR uni02c0
ENCODING 704
SWIDTH 600 0
DWIDTH 12 0
BBX 6 8 3 7
BITMAP
F8
CC
0C
1C
30
30
30
30
ENDCHAR
STARTCHAR uni02c1
ENCODING 705
SWIDTH 600 0
DWIDTH 12 0
BBX 6 8 3 7
BITMAP
7C
CC
C0
60
30
30
30
10
ENDCHAR
STARTCHAR uni02c2
ENCODING 706
SWIDTH 600 0
DWIDTH 12 0
BBX 5 4 4 12
BITMAP
18
78
F0
38
ENDCHAR
STARTCHAR uni02c3
ENCODING 707
SWIDTH 600 0
DWIDTH 12 0
BBX 5 4 3 11
BITMAP
E0
78
F0
C0
ENDCHAR
STARTCHAR uni02c4
ENCODING 708
SWIDTH 600 0
DWIDTH 12 0
BBX 6 5 3 11
BITMAP
20
30
78
FC
48
ENDCHAR
STARTCHAR uni02c5
ENCODING 709
SWIDTH 600 0
DWIDTH 12 0
BBX 6 5 3 11
BITMAP
48
FC
78
30
20
ENDCHAR
STARTCHAR circumflex
ENCODING 710
SWIDTH 600 0
DWIDTH 12 0
BBX 7 3 3 10
BITMAP
30
FC
86
ENDCHAR
STARTCHAR caron
ENCODING 711
SWIDTH 600 0
DWIDTH 12 0
BBX 7 3 3 10
BITMAP
86
FC
30
ENDCHAR
STARTCHAR linevert
ENCODING 712
SWIDTH 600 0
DWIDTH 12 0
BBX 2 4 5 9
BITMAP
C0
C0
C0
C0
ENDCHAR
STARTCHAR uni02c9
ENCODING 713
SWIDTH 600 0
DWIDTH 12 0
BBX 6 2 3 11
BITMAP
FC
FC
ENDCHAR
STARTCHAR uni02ca
ENCODING 714
SWIDTH 600 0
DWIDTH 12 0
BBX 3 3 5 10
BITMAP
20
E0
80
ENDCHAR
STARTCHAR uni02cb
ENCODING 715
SWIDTH 600 0
DWIDTH 12 0
BBX 4 3 3 10
BITMAP
C0
60
30
ENDCHAR
STARTCHAR uni02cc
ENCODING 716
SWIDTH 600 0
DWIDTH 12 0
BBX 2 4 5 -4
BITMAP
C0
C0
C0
C0
ENDCHAR
STARTCHAR uni02cd
ENCODING 717
SWIDTH 600 0
DWIDTH 12 0
BBX 6 1 3 -2
BITMAP
FC
ENDCHAR
STARTCHAR uni02ce
ENCODING 718
SWIDTH 600 0
DWIDTH 12 0
BBX 3 3 5 -4
BITMAP
80
E0
20
ENDCHAR
STARTCHAR uni02cf
ENCODING 719
SWIDTH 600 0
DWIDTH 12 0
BBX 3 3 4 -4
BITMAP
60
E0
80
ENDCHAR
STARTCHAR uni02D0
ENCODING 720
SWIDTH 600 0
DWIDTH 12 0
BBX 4 9 4 0
BITMAP
F0
60
60
40
00
00
60
60
F0
ENDCHAR
STARTCHAR uni02D1
ENCODING 721
SWIDTH 600 0
DWIDTH 12 0
BBX 4 4 4 5
BITMAP
F0
60
60
40
ENDCHAR
STARTCHAR ringhalfrightcentered
ENCODING 722
SWIDTH 600 0
DWIDTH 12 0
BBX 1 3 6 4
BITMAP
80
80
80
ENDCHAR
STARTCHAR ringhalfleftcentered
ENCODING 723
SWIDTH 600 0
DWIDTH 12 0
BBX 1 3 5 4
BITMAP
80
80
80
ENDCHAR
STARTCHAR uni02d4
ENCODING 724
SWIDTH 600 0
DWIDTH 12 0
BBX 4 2 4 11
BITMAP
60
F0
ENDCHAR
STARTCHAR uni02d5
ENCODING 725
SWIDTH 600 0
DWIDTH 12 0
BBX 4 2 4 11
BITMAP
F0
60
ENDCHAR
STARTCHAR uni02d6
ENCODING 726
SWIDTH 600 0
DWIDTH 12 0
BBX 4 4 4 10
BITMAP
60
F0
F0
60
ENDCHAR
STARTCHAR uni02d7
ENCODING 727
SWIDTH 600 0
DWIDTH 12 0
BBX 4 2 4 10
BITMAP
F0
F0
ENDCHAR
STARTCHAR breve
ENCODING 728
SWIDTH 600 0
DWIDTH 12 0
BBX 7 3 2 10
BITMAP
C2
66
3C
ENDCHAR
STARTCHAR dotaccent
ENCODING 729
SWIDTH 600 0
DWIDTH 12 0
BBX 2 2 5 11
BITMAP
C0
C0
ENDCHAR
STARTCHAR ring
ENCODING 730
SWIDTH 600 0
DWIDTH 12 0
BBX 4 3 4 10
BITMAP
F0
90
60
ENDCHAR
STARTCHAR ogonek
ENCODING 731
SWIDTH 600 0
DWIDTH 12 0
BBX 4 4 5 -4
BITMAP
60
C0
F0
F0
ENDCHAR
STARTCHAR tilde
ENCODING 732
SWIDTH 600 0
DWIDTH 12 0
BBX 8 2 2 11
BITMAP
73
DE
ENDCHAR
STARTCHAR hungarumlaut
ENCODING 733
SWIDTH 600 0
DWIDTH 12 0
BBX 6 3 3 10
BITMAP
64
CC
98
ENDCHAR
STARTCHAR uni02de
ENCODING 734
SWIDTH 600 0
DWIDTH 12 0
BBX 6 4 3 5
BITMAP
20
E0
FC
3C
ENDCHAR
STARTCHAR uni02df
ENCODING 735
SWIDTH 600 0
DWIDTH 12 0
BBX 3 3 4 10
BITMAP
E0
60
60
ENDCHAR
STARTCHAR uni02e0
ENCODING 736
SWIDTH 600 0
DWIDTH 12 0
BBX 8 9 2 5
BITMAP
E7
E7
66
34
3C
18
18
18
18
ENDCHAR
STARTCHAR uni02e1
ENCODING 737
SWIDTH 600 0
DWIDTH 12 0
BBX 6 9 3 7
BITMAP
F0
70
30
30
30
30
30
FC
FC
ENDCHAR
STARTCHAR uni02e2
ENCODING 738
SWIDTH 600 0
DWIDTH 12 0
BBX 6 7 3 7
BITMAP
7C
FC
EC
78
8C
FC
F8
ENDCHAR
STARTCHAR uni02e3
ENCODING 739
SWIDTH 600 0
DWIDTH 12 0
BBX 8 7 2 7
BITMAP
66
7E
3C
18
3C
FF
FF
ENDCHAR
STARTCHAR uni02e4
ENCODING 740
SWIDTH 600 0
DWIDTH 12 0
BBX 6 9 3 7
BITMAP
38
7C
CC
C0
70
30
30
38
38
ENDCHAR
STARTCHAR uni02e5
ENCODING 741
SWIDTH 600 0
DWIDTH 12 0
BBX 9 16 1 0
BITMAP
FF80
FF80
0180
0180
0180
0180
0180
0180
0180
0180
0180
0180
0180
0180
0180
0180
ENDCHAR
STARTCHAR uni02e6
ENCODING 742
SWIDTH 600 0
DWIDTH 12 0
BBX 9 17 1 -1
BITMAP
0180
0180
0180
FF80
0180
0180
0180
0180
0180
0180
0180
0180
0180
0180
0180
0180
0100
ENDCHAR
STARTCHAR uni02e7
ENCODING 743
SWIDTH 600 0
DWIDTH 12 0
BBX 9 17 1 -1
BITMAP
0180
0180
0180
0180
0180
0180
0180
FF80
FF80
0180
0180
0180
0180
0180
0180
0180
0100
ENDCHAR
STARTCHAR uni02e8
ENCODING 744
SWIDTH 600 0
DWIDTH 12 0
BBX 9 17 1 -1
BITMAP
0180
0180
0180
0180
0180
0180
0180
0180
0180
0180
0180
FF80
FF80
0180
0180
0180
0100
ENDCHAR
STARTCHAR uni02e9
ENCODING 745
SWIDTH 600 0
DWIDTH 12 0
BBX 9 17 1 -1
BITMAP
0180
0180
0180
0180
0180
0180
0180
0180
0180
0180
0180
0180
0180
0180
0180
FF80
7F80
ENDCHAR
STARTCHAR uni02ea
ENCODING 746
SWIDTH 600 0
DWIDTH 12 0
BBX 10 15 1 -1
BITMAP
4000
C000
C000
C000
C000
C000
C000
C000
C000
C000
C000
C000
C000
FFC0
FF80
ENDCHAR
STARTCHAR uni02eb
ENCODING 747
SWIDTH 600 0
DWIDTH 12 0
BBX 9 9 1 -1
BITMAP
C000
C000
C000
FF80
FF80
C000
C000
C000
4000
ENDCHAR
STARTCHAR uni02ec
ENCODING 748
SWIDTH 600 0
DWIDTH 12 0
BBX 7 3 3 -4
BITMAP
86
FC
30
ENDCHAR
STARTCHAR uni02ed
ENCODING 749
SWIDTH 600 0
DWIDTH 12 0
BBX 10 5 1 10
BITMAP
FFC0
FFC0
0000
FFC0
FFC0
ENDCHAR
STARTCHAR uni02EE
ENCODING 750
SWIDTH 600 0
DWIDTH 12 0
BBX 7 6 2 7
BITMAP
66
66
66
44
CC
88
ENDCHAR
STARTCHAR uni02ef
ENCODING 751
SWIDTH 600 0
DWIDTH 12 0
BBX 6 5 3 -4
BITMAP
48
FC
78
30
20
ENDCHAR
STARTCHAR uni02f0
ENCODING 752
SWIDTH 600 0
DWIDTH 12 0
BBX 6 5 3 -4
BITMAP
20
30
78
FC
48
ENDCHAR
STARTCHAR uni02f1
ENCODING 753
SWIDTH 600 0
DWIDTH 12 0
BBX 5 4 4 -3
BITMAP
18
78
F0
38
ENDCHAR
STARTCHAR uni02f2
ENCODING 754
SWIDTH 600 0
DWIDTH 12 0
BBX 5 4 3 -4
BITMAP
E0
78
F0
C0
ENDCHAR
STARTCHAR uni02f3
ENCODING 755
SWIDTH 600 0
DWIDTH 12 0
BBX 4 3 4 -4
BITMAP
F0
90
60
ENDCHAR
STARTCHAR uni02f4
ENCODING 756
SWIDTH 600 0
DWIDTH 12 0
BBX 3 3 5 5
BITMAP
80
E0
20
ENDCHAR
STARTCHAR uni02f5
ENCODING 757
SWIDTH 600 0
DWIDTH 12 0
BBX 7 3 3 5
BITMAP
D8
6C
36
ENDCHAR
STARTCHAR uni02f6
ENCODING 758
SWIDTH 600 0
DWIDTH 12 0
BBX 3 3 4 4
BITMAP
60
E0
80
ENDCHAR
STARTCHAR uni02f7
ENCODING 759
SWIDTH 600 0
DWIDTH 12 0
BBX 8 2 2 -3
BITMAP
73
DE
ENDCHAR
STARTCHAR uni02f8
ENCODING 760
SWIDTH 600 0
DWIDTH 12 0
BBX 2 9 5 6
BITMAP
C0
C0
C0
00
00
00
00
C0
C0
ENDCHAR
STARTCHAR uni02F9
ENCODING 761
SWIDTH 600 0
DWIDTH 12 0
BBX 4 4 4 10
BITMAP
F0
F0
C0
40
ENDCHAR
STARTCHAR uni02FA
ENCODING 762
SWIDTH 600 0
DWIDTH 12 0
BBX 4 4 4 10
BITMAP
F0
F0
30
20
ENDCHAR
STARTCHAR uni02fb
ENCODING 763
SWIDTH 600 0
DWIDTH 12 0
BBX 4 4 4 -1
BITMAP
40
C0
F0
F0
ENDCHAR
STARTCHAR uni02fc
ENCODING 764
SWIDTH 600 0
DWIDTH 12 0
BBX 4 4 5 -1
BITMAP
20
30
F0
F0
ENDCHAR
STARTCHAR uni02fd
ENCODING 765
SWIDTH 600 0
DWIDTH 12 0
BBX 8 4 2 -4
BITMAP
81
C3
FF
FF
ENDCHAR
STARTCHAR uni02fe
ENCODING 766
SWIDTH 600 0
DWIDTH 12 0
BBX 7 4 2 -4
BITMAP
80
C0
FE
FE
ENDCHAR
STARTCHAR uni02ff
ENCODING 767
SWIDTH 600 0
DWIDTH 12 0
BBX 11 4 1 -4
BITMAP
3800
FFE0
7FC0
1800
ENDCHAR
STARTCHAR gravecomb
ENCODING 768
SWIDTH 0 0
DWIDTH 0 0
BBX 4 3 -9 10
BITMAP
C0
60
30
ENDCHAR
STARTCHAR acutecomb
ENCODING 769
SWIDTH 0 0
DWIDTH 0 0
BBX 4 3 -7 10
BITMAP
30
60
C0
ENDCHAR
STARTCHAR circumflexcmb
ENCODING 770
SWIDTH 0 0
DWIDTH 0 0
BBX 7 3 -9 10
BITMAP
30
FC
C6
ENDCHAR
STARTCHAR tildecomb
ENCODING 771
SWIDTH 0 0
DWIDTH 0 0
BBX 8 2 -10 11
BITMAP
73
DE
ENDCHAR
STARTCHAR macroncmb
ENCODING 772
SWIDTH 0 0
DWIDTH 0 0
BBX 6 2 -9 11
BITMAP
FC
FC
ENDCHAR
STARTCHAR overlinecmb
ENCODING 773
SWIDTH 0 0
DWIDTH 0 0
BBX 10 2 -11 11
BITMAP
7F80
FFC0
ENDCHAR
STARTCHAR brevecmb
ENCODING 774
SWIDTH 0 0
DWIDTH 0 0
BBX 7 3 -10 10
BITMAP
C2
66
3C
ENDCHAR
STARTCHAR dotaccentcmb
ENCODING 775
SWIDTH 0 0
DWIDTH 0 0
BBX 2 2 -7 11
BITMAP
C0
C0
ENDCHAR
STARTCHAR diaeresiscomb
ENCODING 776
SWIDTH 0 0
DWIDTH 0 0
BBX 6 2 -9 11
BITMAP
CC
CC
ENDCHAR
STARTCHAR hookabovecomb
ENCODING 777
SWIDTH 0 0
DWIDTH 0 0
BBX 4 4 -8 10
BITMAP
60
F0
90
20
ENDCHAR
STARTCHAR ringcmb
ENCODING 778
SWIDTH 0 0
DWIDTH 0 0
BBX 4 3 -8 10
BITMAP
F0
90
60
ENDCHAR
STARTCHAR hungarumlautcmb
ENCODING 779
SWIDTH 0 0
DWIDTH 0 0
BBX 6 3 -9 10
BITMAP
64
CC
98
ENDCHAR
STARTCHAR caroncmb
ENCODING 780
SWIDTH 0 0
DWIDTH 0 0
BBX 7 3 -9 10
BITMAP
86
FC
30
ENDCHAR
STARTCHAR verticallineabovecmb
ENCODING 781
SWIDTH 0 0
DWIDTH 0 0
BBX 2 4 -7 10
BITMAP
C0
C0
C0
C0
ENDCHAR
STARTCHAR linevertdblnosp
ENCODING 782
SWIDTH 0 0
DWIDTH 0 0
BBX 5 4 -8 10
BITMAP
98
98
98
90
ENDCHAR
STARTCHAR dblgravecmb
ENCODING 783
SWIDTH 0 0
DWIDTH 0 0
BBX 6 3 -9 10
BITMAP
D8
6C
24
ENDCHAR
STARTCHAR candrabinducmb
ENCODING 784
SWIDTH 0 0
DWIDTH 0 0
BBX 7 4 -10 10
BITMAP
18
DA
66
3C
ENDCHAR
STARTCHAR breveinvnosp
ENCODING 785
SWIDTH 0 0
DWIDTH 0 0
BBX 6 3 -9 9
BITMAP
FC
84
84
ENDCHAR
STARTCHAR commaturnedabovecmb
ENCODING 786
SWIDTH 0 0
DWIDTH 0 0
BBX 3 3 -7 10
BITMAP
80
C0
60
ENDCHAR
STARTCHAR commaabovecmb
ENCODING 787
SWIDTH 0 0
DWIDTH 0 0
BBX 3 3 -7 10
BITMAP
20
60
C0
ENDCHAR
STARTCHAR commareversedabovecmb
ENCODING 788
SWIDTH 0 0
DWIDTH 0 0
BBX 3 5 -8 9
BITMAP
C0
E0
60
60
20
ENDCHAR
STARTCHAR commaaboverightcmb
ENCODING 789
SWIDTH 0 0
DWIDTH 0 0
BBX 3 3 -7 10
BITMAP
20
60
C0
ENDCHAR
STARTCHAR gravebelowcmb
ENCODING 790
SWIDTH 0 0
DWIDTH 0 0
BBX 4 3 -9 -4
BITMAP
E0
70
10
ENDCHAR
STARTCHAR acutebelowcmb
ENCODING 791
SWIDTH 0 0
DWIDTH 0 0
BBX 4 3 -8 -4
BITMAP
70
E0
80
ENDCHAR
STARTCHAR uni0318
ENCODING 792
SWIDTH 0 0
DWIDTH 0 0
BBX 3 3 -7 -4
BITMAP
60
E0
60
ENDCHAR
STARTCHAR uni0319
ENCODING 793
SWIDTH 0 0
DWIDTH 0 0
BBX 3 3 -7 -3
BITMAP
80
E0
80
ENDCHAR
STARTCHAR uni031a
ENCODING 794
SWIDTH 0 0
DWIDTH 0 0
BBX 4 4 -2 10
BITMAP
F0
F0
30
20
ENDCHAR
STARTCHAR horncmb
ENCODING 795
SWIDTH 0 0
DWIDTH 0 0
BBX 3 4 -3 10
BITMAP
40
60
E0
E0
ENDCHAR
STARTCHAR ringhalfleftbelowcmb
ENCODING 796
SWIDTH 0 0
DWIDTH 0 0
BBX 2 4 -7 -4
BITMAP
C0
80
C0
40
ENDCHAR
STARTCHAR uni031d
ENCODING 797
SWIDTH 0 0
DWIDTH 0 0
BBX 4 3 -8 -3
BITMAP
20
20
F0
ENDCHAR
STARTCHAR uni031e
ENCODING 798
SWIDTH 0 0
DWIDTH 0 0
BBX 4 3 -8 -5
BITMAP
F0
20
20
ENDCHAR
STARTCHAR uni031f
ENCODING 799
SWIDTH 0 0
DWIDTH 0 0
BBX 4 4 -8 -4
BITMAP
40
F0
E0
40
ENDCHAR
STARTCHAR minusbelowcmb
ENCODING 800
SWIDTH 0 0
DWIDTH 0 0
BBX 4 2 -8 -3
BITMAP
F0
E0
ENDCHAR
STARTCHAR uni0321
ENCODING 801
SWIDTH 0 0
DWIDTH 0 0
BBX 6 4 -11 -4
BITMAP
0C
0C
F8
F0
ENDCHAR
STARTCHAR hookretroflexbelowcmb
ENCODING 802
SWIDTH 0 0
DWIDTH 0 0
BBX 6 4 -7 -4
BITMAP
C0
C0
7C
3C
ENDCHAR
STARTCHAR dotbelowcomb
ENCODING 803
SWIDTH 0 0
DWIDTH 0 0
BBX 2 2 -7 -3
BITMAP
C0
C0
ENDCHAR
STARTCHAR dieresisbelowcmb
ENCODING 804
SWIDTH 0 0
DWIDTH 0 0
BBX 6 2 -9 -3
BITMAP
CC
CC
ENDCHAR
STARTCHAR ringbelowcmb
ENCODING 805
SWIDTH 0 0
DWIDTH 0 0
BBX 4 4 -8 -4
BITMAP
60
F0
D0
60
ENDCHAR
STARTCHAR commasubnosp
ENCODING 806
SWIDTH 0 0
DWIDTH 0 0
BBX 3 4 -7 -4
BITMAP
E0
C0
C0
80
ENDCHAR
STARTCHAR cedillacmb
ENCODING 807
SWIDTH 0 0
DWIDTH 0 0
BBX 4 4 -8 -4
BITMAP
60
30
F0
E0
ENDCHAR
STARTCHAR ogonekcmb
ENCODING 808
SWIDTH 0 0
DWIDTH 0 0
BBX 4 4 -7 -4
BITMAP
60
C0
F0
F0
ENDCHAR
STARTCHAR verticallinebelowcmb
ENCODING 809
SWIDTH 0 0
DWIDTH 0 0
BBX 2 4 -7 -4
BITMAP
C0
C0
C0
80
ENDCHAR
STARTCHAR bridgebelowcmb
ENCODING 810
SWIDTH 0 0
DWIDTH 0 0
BBX 6 3 -9 -3
BITMAP
FC
C4
C4
ENDCHAR
STARTCHAR archdblsubnosp
ENCODING 811
SWIDTH 0 0
DWIDTH 0 0
BBX 8 2 -10 -3
BITMAP
DB
7E
ENDCHAR
STARTCHAR caronbelowcmb
ENCODING 812
SWIDTH 0 0
DWIDTH 0 0
BBX 7 3 -9 -4
BITMAP
CE
78
10
ENDCHAR
STARTCHAR circumflexbelowcmb
ENCODING 813
SWIDTH 0 0
DWIDTH 0 0
BBX 6 3 -9 -4
BITMAP
38
FC
84
ENDCHAR
STARTCHAR brevebelowcmb
ENCODING 814
SWIDTH 0 0
DWIDTH 0 0
BBX 7 3 -9 -4
BITMAP
86
FC
30
ENDCHAR
STARTCHAR breveinvertedbelowcmb
ENCODING 815
SWIDTH 0 0
DWIDTH 0 0
BBX 7 3 -9 -4
BITMAP
78
CC
86
ENDCHAR
STARTCHAR tildebelowcmb
ENCODING 816
SWIDTH 0 0
DWIDTH 0 0
BBX 8 2 -10 -3
BITMAP
73
DE
ENDCHAR
STARTCHAR macronbelowcmb
ENCODING 817
SWIDTH 0 0
DWIDTH 0 0
BBX 6 2 -9 -3
BITMAP
FC
FC
ENDCHAR
STARTCHAR lowlinecmb
ENCODING 818
SWIDTH 0 0
DWIDTH 0 0
BBX 12 2 -12 -4
BITMAP
FFF0
FFF0
ENDCHAR
STARTCHAR dbllowlinecmb
ENCODING 819
SWIDTH 0 0
DWIDTH 0 0
BBX 12 4 -12 -4
BITMAP
FFF0
FFF0
0000
FFF0
ENDCHAR
STARTCHAR tildeoverlaycmb
ENCODING 820
SWIDTH 0 0
DWIDTH 0 0
BBX 7 2 -9 4
BITMAP
E2
BC
ENDCHAR
STARTCHAR strokeshortoverlaycmb
ENCODING 821
SWIDTH 0 0
DWIDTH 0 0
BBX 7 1 -9 6
BITMAP
FE
ENDCHAR
STARTCHAR strokelongoverlaycmb
ENCODING 822
SWIDTH 0 0
DWIDTH 0 0
BBX 10 2 -11 5
BITMAP
FF80
FFC0
ENDCHAR
STARTCHAR solidusshortoverlaycmb
ENCODING 823
SWIDTH 0 0
DWIDTH 0 0
BBX 7 5 -9 4
BITMAP
0E
3E
F8
E0
80
ENDCHAR
STARTCHAR uni0338
ENCODING 824
SWIDTH 0 0
DWIDTH 0 0
BBX 12 7 -12 4
BITMAP
0030
00F0
01E0
0780
1E00
7800
E000
ENDCHAR
STARTCHAR uni0339
ENCODING 825
SWIDTH 0 0
DWIDTH 0 0
BBX 2 4 -6 -4
BITMAP
80
C0
40
C0
ENDCHAR
STARTCHAR bridgeinvertedbelowcmb
ENCODING 826
SWIDTH 0 0
DWIDTH 0 0
BBX 6 3 -9 -4
BITMAP
C4
C4
FC
ENDCHAR
STARTCHAR squarebelowcmb
ENCODING 827
SWIDTH 0 0
DWIDTH 0 0
BBX 4 4 -8 -4
BITMAP
F0
F0
90
F0
ENDCHAR
STARTCHAR uni033c
ENCODING 828
SWIDTH 0 0
DWIDTH 0 0
BBX 7 2 -9 -3
BITMAP
FC
92
ENDCHAR
STARTCHAR uni033d
ENCODING 829
SWIDTH 0 0
DWIDTH 0 0
BBX 3 3 -7 10
BITMAP
E0
E0
80
ENDCHAR
STARTCHAR uni033e
ENCODING 830
SWIDTH 0 0
DWIDTH 0 0
BBX 2 4 -7 10
BITMAP
80
80
C0
80
ENDCHAR
STARTCHAR overscoredblnosp
ENCODING 831
SWIDTH 0 0
DWIDTH 0 0
BBX 12 4 -12 12
BITMAP
FFF0
FFF0
0000
FFF0
ENDCHAR
STARTCHAR gravetonecmb
ENCODING 832
SWIDTH 0 0
DWIDTH 0 0
BBX 4 3 -8 10
BITMAP
C0
60
30
ENDCHAR
STARTCHAR acutetonecmb
ENCODING 833
SWIDTH 0 0
DWIDTH 0 0
BBX 4 3 -7 10
BITMAP
30
60
C0
ENDCHAR
STARTCHAR perispomenigreekcmb
ENCODING 834
SWIDTH 0 0
DWIDTH 0 0
BBX 7 2 -9 11
BITMAP
72
DE
ENDCHAR
STARTCHAR koroniscmb
ENCODING 835
SWIDTH 0 0
DWIDTH 0 0
BBX 3 3 -7 10
BITMAP
20
60
C0
ENDCHAR
STARTCHAR dialytikatonoscmb
ENCODING 836
SWIDTH 0 0
DWIDTH 0 0
BBX 7 5 -10 10
BITMAP
06
0C
08
DE
52
ENDCHAR
STARTCHAR ypogegrammenigreekcmb
ENCODING 837
SWIDTH 0 0
DWIDTH 0 0
BBX 6 4 -7 -4
BITMAP
C0
60
7C
3C
ENDCHAR
STARTCHAR uni0346
ENCODING 838
SWIDTH 0 0
DWIDTH 0 0
BBX 6 3 -9 11
BITMAP
FC
C4
C4
ENDCHAR
STARTCHAR uni0347
ENCODING 839
SWIDTH 0 0
DWIDTH 0 0
BBX 6 4 -9 -4
BITMAP
FC
FC
FC
FC
ENDCHAR
STARTCHAR uni0348
ENCODING 840
SWIDTH 0 0
DWIDTH 0 0
BBX 4 4 -8 -4
BITMAP
90
90
90
90
ENDCHAR
STARTCHAR uni0349
ENCODING 841
SWIDTH 0 0
DWIDTH 0 0
BBX 4 4 -8 -4
BITMAP
F0
F0
30
20
ENDCHAR
STARTCHAR uni034a
ENCODING 842
SWIDTH 0 0
DWIDTH 0 0
BBX 7 3 -9 10
BITMAP
7A
FE
68
ENDCHAR
STARTCHAR uni034b
ENCODING 843
SWIDTH 0 0
DWIDTH 0 0
BBX 7 7 -9 9
BITMAP
08
1C
4A
FE
CC
60
40
ENDCHAR
STARTCHAR uni034c
ENCODING 844
SWIDTH 0 0
DWIDTH 0 0
BBX 7 5 -9 10
BITMAP
72
FE
00
F2
9C
ENDCHAR
STARTCHAR uni034d
ENCODING 845
SWIDTH 0 0
DWIDTH 0 0
BBX 5 3 -9 -4
BITMAP
10
F8
48
ENDCHAR
STARTCHAR uni034e
ENCODING 846
SWIDTH 0 0
DWIDTH 0 0
BBX 3 2 -8 -3
BITMAP
60
A0
ENDCHAR
STARTCHAR uni034f
ENCODING 847
SWIDTH 0 0
DWIDTH 0 0
BBX 1 1 0 0
BITMAP
00
ENDCHAR
STARTCHAR uni0350
ENCODING 848
SWIDTH 0 0
DWIDTH 0 0
BBX 5 4 -9 9
BITMAP
E0
78
F0
C0
ENDCHAR
STARTCHAR uni0351
ENCODING 849
SWIDTH 0 0
DWIDTH 0 0
BBX 2 4 -7 9
BITMAP
40
80
C0
40
ENDCHAR
STARTCHAR uni0352
ENCODING 850
SWIDTH 0 0
DWIDTH 0 0
BBX 6 4 -9 11
BITMAP
FC
84
B0
30
ENDCHAR
STARTCHAR uni0353
ENCODING 851
SWIDTH 0 0
DWIDTH 0 0
BBX 3 3 -7 -4
BITMAP
E0
C0
80
ENDCHAR
STARTCHAR uni0354
ENCODING 852
SWIDTH 0 0
DWIDTH 0 0
BBX 5 4 -8 -3
BITMAP
18
78
F0
38
ENDCHAR
STARTCHAR uni0355
ENCODING 853
SWIDTH 0 0
DWIDTH 0 0
BBX 5 5 -9 -4
BITMAP
80
E0
78
F0
C0
ENDCHAR
STARTCHAR uni0356
ENCODING 854
SWIDTH 0 0
DWIDTH 0 0
BBX 10 5 -11 -4
BITMAP
8100
E380
7B80
F6C0
C440
ENDCHAR
STARTCHAR uni0357
ENCODING 855
SWIDTH 0 0
DWIDTH 0 0
BBX 2 4 -7 10
BITMAP
80
C0
40
C0
ENDCHAR
STARTCHAR uni0358
ENCODING 856
SWIDTH 0 0
DWIDTH 0 0
BBX 2 2 -2 11
BITMAP
C0
C0
ENDCHAR
STARTCHAR uni0359
ENCODING 857
SWIDTH 0 0
DWIDTH 0 0
BBX 4 4 -8 -4
BITMAP
20
F0
60
70
ENDCHAR
STARTCHAR uni035a
ENCODING 858
SWIDTH 0 0
DWIDTH 0 0
BBX 6 4 -9 -4
BITMAP
FC
B4
B4
48
ENDCHAR
STARTCHAR uni035b
ENCODING 859
SWIDTH 0 0
DWIDTH 0 0
BBX 4 4 -8 10
BITMAP
20
60
F0
60
ENDCHAR
STARTCHAR uni035c
ENCODING 860
SWIDTH 0 0
DWIDTH 0 0
BBX 16 5 -8 -4
BITMAP
C003
F00F
7FFE
1FF8
03C0
ENDCHAR
STARTCHAR uni035d
ENCODING 861
SWIDTH 0 0
DWIDTH 0 0
BBX 16 5 -8 9
BITMAP
C003
F00F
7FFE
1FF8
03C0
ENDCHAR
STARTCHAR uni035e
ENCODING 862
SWIDTH 0 0
DWIDTH 0 0
BBX 12 2 -6 10
BITMAP
FFF0
FFF0
ENDCHAR
STARTCHAR uni035f
ENCODING 863
SWIDTH 0 0
DWIDTH 0 0
BBX 12 2 -6 -4
BITMAP
FFF0
FFF0
ENDCHAR
STARTCHAR uni0360
ENCODING 864
SWIDTH 0 0
DWIDTH 0 0
BBX 14 2 -7 -3
BITMAP
7E0C
E7FC
ENDCHAR
STARTCHAR uni0361
ENCODING 865
SWIDTH 0 0
DWIDTH 0 0
BBX 16 5 -8 9
BITMAP
03C0
1FF8
7FFE
F00F
C003
ENDCHAR
STARTCHAR uni0362
ENCODING 866
SWIDTH 0 0
DWIDTH 0 0
BBX 12 4 -6 -4
BITMAP
0040
0060
FFF0
0040
ENDCHAR
STARTCHAR uni0363
ENCODING 867
SWIDTH 0 0
DWIDTH 0 0
BBX 5 4 -8 10
BITMAP
70
10
F0
F8
ENDCHAR
STARTCHAR uni0364
ENCODING 868
SWIDTH 0 0
DWIDTH 0 0
BBX 4 4 -8 10
BITMAP
60
90
F0
F0
ENDCHAR
STARTCHAR uni0365
ENCODING 869
SWIDTH 0 0
DWIDTH 0 0
BBX 4 5 -8 10
BITMAP
40
E0
20
20
F0
ENDCHAR
STARTCHAR uni0366
ENCODING 870
SWIDTH 0 0
DWIDTH 0 0
BBX 4 4 -8 10
BITMAP
60
90
90
F0
ENDCHAR
STARTCHAR uni0367
ENCODING 871
SWIDTH 0 0
DWIDTH 0 0
BBX 4 4 -8 9
BITMAP
B0
90
90
F0
ENDCHAR
STARTCHAR uni0368
ENCODING 872
SWIDTH 0 0
DWIDTH 0 0
BBX 4 4 -8 9
BITMAP
70
90
80
F0
ENDCHAR
STARTCHAR uni0369
ENCODING 873
SWIDTH 0 0
DWIDTH 0 0
BBX 5 5 -8 9
BITMAP
10
F0
90
90
F8
ENDCHAR
STARTCHAR uni036a
ENCODING 874
SWIDTH 0 0
DWIDTH 0 0
BBX 5 5 -8 10
BITMAP
80
F0
90
90
F8
ENDCHAR
STARTCHAR uni036b
ENCODING 875
SWIDTH 0 0
DWIDTH 0 0
BBX 6 4 -9 10
BITMAP
F8
68
68
DC
ENDCHAR
STARTCHAR uni036c
ENCODING 876
SWIDTH 0 0
DWIDTH 0 0
BBX 4 4 -8 10
BITMAP
F0
40
40
F0
ENDCHAR
STARTCHAR uni036d
ENCODING 877
SWIDTH 0 0
DWIDTH 0 0
BBX 5 5 -8 9
BITMAP
40
F0
40
40
78
ENDCHAR
STARTCHAR uni036e
ENCODING 878
SWIDTH 0 0
DWIDTH 0 0
BBX 5 4 -8 9
BITMAP
F8
90
60
60
ENDCHAR
STARTCHAR uni036f
ENCODING 879
SWIDTH 0 0
DWIDTH 0 0
BBX 5 4 -8 10
BITMAP
F0
60
60
F8
ENDCHAR
STARTCHAR uni0374
ENCODING 884
SWIDTH 600 0
DWIDTH 12 0
BBX 3 4 4 9
BITMAP
60
60
C0
C0
ENDCHAR
STARTCHAR uni0375
ENCODING 885
SWIDTH 600 0
DWIDTH 12 0
BBX 4 6 3 -3
BITMAP
70
60
60
C0
C0
80
ENDCHAR
STARTCHAR uni037A
ENCODING 890
SWIDTH 600 0
DWIDTH 12 0
BBX 6 4 5 -4
BITMAP
C0
C0
FC
78
ENDCHAR
STARTCHAR uni037E
ENCODING 894
SWIDTH 600 0
DWIDTH 12 0
BBX 4 12 3 -3
BITMAP
20
70
70
00
00
00
70
60
60
C0
C0
80
ENDCHAR
STARTCHAR tonos
ENCODING 900
SWIDTH 600 0
DWIDTH 12 0
BBX 4 5 4 9
BITMAP
30
60
60
C0
80
ENDCHAR
STARTCHAR dieresistonos
ENCODING 901
SWIDTH 600 0
DWIDTH 12 0
BBX 7 5 2 10
BITMAP
04
0C
08
DE
52
ENDCHAR
STARTCHAR Alphatonos
ENCODING 902
SWIDTH 600 0
DWIDTH 12 0
BBX 15 13 -2 0
BITMAP
3000
3FC0
6FC0
C1E0
0360
0360
0630
0630
07F8
0FF8
0C18
3E3E
3E3E
ENDCHAR
STARTCHAR anoteleia
ENCODING 903
SWIDTH 600 0
DWIDTH 12 0
BBX 2 3 5 6
BITMAP
C0
C0
C0
ENDCHAR
STARTCHAR Epsilontonos
ENCODING 904
SWIDTH 600 0
DWIDTH 12 0
BBX 14 13 -2 0
BITMAP
3000
6FFC
6FFC
C60C
060C
066C
07E0
07E0
0660
064C
060C
0FFC
0FFC
ENDCHAR
STARTCHAR Etatonos
ENCODING 905
SWIDTH 600 0
DWIDTH 12 0
BBX 14 13 -2 0
BITMAP
3000
6E78
DF7C
CC18
0C18
0C18
0FF8
0FF8
0C18
0C18
0C18
1F7C
1F7C
ENDCHAR
STARTCHAR Iotatonos
ENCODING 906
SWIDTH 600 0
DWIDTH 12 0
BBX 13 13 -1 0
BITMAP
3000
3FF0
6FF8
C180
0180
0180
0180
0180
0180
0180
0180
0FF8
0FF8
ENDCHAR
STARTCHAR Omicrontonos
ENCODING 908
SWIDTH 600 0
DWIDTH 12 0
BBX 13 13 -1 0
BITMAP
3000
6780
6FE0
DC70
3830
3018
3018
3018
3018
3030
1870
1FE0
07C0
ENDCHAR
STARTCHAR Upsilontonos
ENCODING 910
SWIDTH 600 0
DWIDTH 12 0
BBX 14 13 -2 0
BITMAP
3000
6E3C
DF3C
C618
0730
03F0
01E0
00C0
00C0
00C0
00C0
07F0
07F0
ENDCHAR
STARTCHAR Omegatonos
ENCODING 911
SWIDTH 600 0
DWIDTH 12 0
BBX 12 13 0 0
BITMAP
2000
6780
DFC0
B8E0
3030
3030
3030
3030
3860
1DE0
6DB0
7DF0
7DF0
ENDCHAR
STARTCHAR iotadieresistonos
ENCODING 912
SWIDTH 600 0
DWIDTH 12 0
BBX 9 15 2 0
BITMAP
0400
0400
0C00
5A00
D600
0000
F800
F800
1800
1800
1800
1800
1800
1F80
0F80
ENDCHAR
STARTCHAR Alpha
ENCODING 913
SWIDTH 600 0
DWIDTH 12 0
BBX 12 12 0 0
BITMAP
3E00
7F00
0F00
0F00
1980
1980
39C0
3FC0
3FC0
6060
F9F0
F9F0
ENDCHAR
STARTCHAR Beta
ENCODING 914
SWIDTH 600 0
DWIDTH 12 0
BBX 11 12 0 0
BITMAP
7F00
FFC0
30C0
3060
30C0
3FC0
3FC0
30E0
3060
3060
FFE0
FFC0
ENDCHAR
STARTCHAR Gamma
ENCODING 915
SWIDTH 600 0
DWIDTH 12 0
BBX 10 12 1 0
BITMAP
FFC0
FFC0
60C0
60C0
6040
6000
6000
6000
6000
6000
FC00
FC00
ENDCHAR
STARTCHAR Delta
ENCODING 916
SWIDTH 600 0
DWIDTH 12 0
BBX 12 12 0 0
BITMAP
3E00
7E00
0F00
0F00
1B80
1980
1980
31C0
30C0
30C0
FFF0
FFF0
ENDCHAR
STARTCHAR Epsilon
ENCODING 917
SWIDTH 600 0
DWIDTH 12 0
BBX 11 12 0 0
BITMAP
7FE0
FFE0
3060
3060
3340
3F00
3F00
3300
3260
3060
FFE0
FFE0
ENDCHAR
STARTCHAR Zeta
ENCODING 918
SWIDTH 600 0
DWIDTH 12 0
BBX 10 12 1 0
BITMAP
7F80
7F80
6380
6300
6600
0E00
1C00
3880
30C0
60C0
FFC0
FFC0
ENDCHAR
STARTCHAR Eta
ENCODING 919
SWIDTH 600 0
DWIDTH 12 0
BBX 11 12 1 0
BITMAP
F3C0
FBC0
6180
6180
6180
7F80
7F80
6180
6180
6180
F3E0
F3E0
ENDCHAR
STARTCHAR Theta
ENCODING 920
SWIDTH 600 0
DWIDTH 12 0
BBX 12 12 0 0
BITMAP
0F00
3FC0
30E0
6060
79E0
DFB0
DFB0
79E0
6060
70E0
3FC0
1F80
ENDCHAR
STARTCHAR Iota
ENCODING 921
SWIDTH 600 0
DWIDTH 12 0
BBX 8 12 2 0
BITMAP
FF
FF
18
18
18
18
18
18
18
18
FF
FF
ENDCHAR
STARTCHAR Kappa
ENCODING 922
SWIDTH 600 0
DWIDTH 12 0
BBX 12 12 0 0
BITMAP
79E0
FDE0
31C0
3380
3700
3E00
3F00
3380
3180
31C0
FCF0
FCF0
ENDCHAR
STARTCHAR Lambda
ENCODING 923
SWIDTH 600 0
DWIDTH 12 0
BBX 12 12 0 0
BITMAP
3E00
7F00
0F00
0F00
1980
1980
39C0
30C0
30C0
6060
F9F0
F9F0
ENDCHAR
STARTCHAR Mu
ENCODING 924
SWIDTH 600 0
DWIDTH 12 0
BBX 12 12 0 0
BITMAP
E070
F0F0
70E0
79E0
79E0
7FE0
6F60
6F60
6660
6060
F9F0
F9F0
ENDCHAR
STARTCHAR Nu
ENCODING 925
SWIDTH 600 0
DWIDTH 12 0
BBX 12 12 0 0
BITMAP
F1E0
F1F0
7860
7C60
6C60
6E60
6760
6360
63E0
61E0
F8E0
F8E0
ENDCHAR
STARTCHAR Xi
ENCODING 926
SWIDTH 600 0
DWIDTH 12 0
BBX 10 12 1 0
BITMAP
FFC0
FFC0
C0C0
C0C0
F3C0
3F00
3F00
3300
C0C0
C0C0
FFC0
FFC0
ENDCHAR
STARTCHAR Omicron
ENCODING 927
SWIDTH 600 0
DWIDTH 12 0
BBX 12 12 0 0
BITMAP
0F00
3FC0
30E0
6060
6060
C030
C030
6060
6060
70E0
3FC0
1F80
ENDCHAR
STARTCHAR Pi
ENCODING 928
SWIDTH 600 0
DWIDTH 12 0
BBX 11 12 1 0
BITMAP
FFC0
FFC0
6180
6180
6180
6180
6180
6180
6180
6180
F3E0
F3E0
ENDCHAR
STARTCHAR Rho
ENCODING 929
SWIDTH 600 0
DWIDTH 12 0
BBX 11 12 0 0
BITMAP
7F00
FF80
31C0
30E0
30E0
30C0
3FC0
3F00
3000
3000
FE00
FE00
ENDCHAR
STARTCHAR Sigma
ENCODING 931
SWIDTH 600 0
DWIDTH 12 0
BBX 10 12 1 0
BITMAP
FFC0
FFC0
60C0
70C0
3880
1C00
1C00
3880
30C0
60C0
FFC0
FFC0
ENDCHAR
STARTCHAR Tau
ENCODING 932
SWIDTH 600 0
DWIDTH 12 0
BBX 10 12 1 0
BITMAP
FFC0
FFC0
CCC0
CCC0
CCC0
0C00
0C00
0C00
0C00
0C00
7F80
7F80
ENDCHAR
STARTCHAR Upsilon
ENCODING 933
SWIDTH 600 0
DWIDTH 12 0
BBX 12 12 0 0
BITMAP
70E0
F9F0
30C0
1980
1F80
0F00
0600
0600
0600
0600
3FC0
3FC0
ENDCHAR
STARTCHAR Phi
ENCODING 934
SWIDTH 600 0
DWIDTH 12 0
BBX 12 12 0 0
BITMAP
3FC0
3FC0
0600
7FE0
FFF0
C630
C630
F670
7FE0
1F80
3FC0
3FC0
ENDCHAR
STARTCHAR Chi
ENCODING 935
SWIDTH 600 0
DWIDTH 12 0
BBX 12 12 0 0
BITMAP
70E0
F9F0
30C0
1980
1F80
0F00
0F00
1F80
1980
30C0
F9F0
F9F0
ENDCHAR
STARTCHAR Psi
ENCODING 936
SWIDTH 600 0
DWIDTH 12 0
BBX 12 12 0 0
BITMAP
EF70
EF70
6660
6660
6660
6660
76E0
3FC0
1F80
0600
1F80
1F80
ENDCHAR
STARTCHAR Omega
ENCODING 937
SWIDTH 600 0
DWIDTH 12 0
BBX 10 12 1 0
BITMAP
1E00
7F80
6180
C0C0
C0C0
C0C0
C0C0
E1C0
7F80
FFC0
FFC0
FFC0
ENDCHAR
STARTCHAR Iotadieresis
ENCODING 938
SWIDTH 600 0
DWIDTH 12 0
BBX 8 15 2 0
BITMAP
66
66
00
FF
FF
18
18
18
18
18
18
18
18
FF
FF
ENDCHAR
STARTCHAR Upsilondieresis
ENCODING 939
SWIDTH 600 0
DWIDTH 12 0
BBX 12 15 0 0
BITMAP
1980
1980
0000
70E0
F9F0
30C0
1980
1F80
0F00
0600
0600
0600
0600
3FC0
3FC0
ENDCHAR
STARTCHAR alphatonos
ENCODING 940
SWIDTH 600 0
DWIDTH 12 0
BBX 11 15 1 0
BITMAP
0600
0600
0C00
1800
0000
0000
3EC0
7FC0
E1C0
C1C0
C0C0
C1C0
C1C0
7FE0
3EE0
ENDCHAR
STARTCHAR epsilontonos
ENCODING 941
SWIDTH 600 0
DWIDTH 12 0
BBX 10 15 1 0
BITMAP
0100
0300
0300
0600
0400
0000
1F80
7F80
6180
7E00
3E00
7000
E0C0
7FC0
3F80
ENDCHAR
STARTCHAR etatonos
ENCODING 942
SWIDTH 600 0
DWIDTH 12 0
BBX 10 19 1 -4
BITMAP
0300
0600
0600
0C00
0800
0000
EF00
FF80
7180
6180
6180
6180
6180
F180
F180
0180
0180
01C0
01C0
ENDCHAR
STARTCHAR iotatonos
ENCODING 943
SWIDTH 600 0
DWIDTH 12 0
BBX 9 15 2 0
BITMAP
0800
1800
3000
3000
2000
0000
F800
F800
1800
1800
1800
1800
1800
1F80
0F80
ENDCHAR
STARTCHAR upsilondieresistonos
ENCODING 944
SWIDTH 600 0
DWIDTH 12 0
BBX 12 15 0 0
BITMAP
0100
0100
0300
1680
3580
0000
71E0
F3F0
30C0
30C0
30C0
30C0
30C0
3FC0
1F80
ENDCHAR
STARTCHAR alpha
ENCODING 945
SWIDTH 600 0
DWIDTH 12 0
BBX 11 9 1 0
BITMAP
3EC0
7FC0
E1C0
C1C0
C0C0
C1C0
C1C0
7FE0
3EE0
ENDCHAR
STARTCHAR beta
ENCODING 946
SWIDTH 600 0
DWIDTH 12 0
BBX 11 16 0 -4
BITMAP
1F00
3F80
3180
3180
3700
3780
31C0
30C0
3060
30E0
3FC0
3F80
3000
3000
F800
F800
ENDCHAR
STARTCHAR gamma
ENCODING 947
SWIDTH 600 0
DWIDTH 12 0
BBX 12 13 0 -4
BITMAP
79E0
F9F0
30C0
30C0
1980
1980
0F00
0F00
0600
0600
0600
0F00
0F00
ENDCHAR
STARTCHAR delta
ENCODING 948
SWIDTH 600 0
DWIDTH 12 0
BBX 10 13 1 0
BITMAP
3C40
7FC0
E3C0
C0C0
7E00
7F80
E1C0
C0C0
C0C0
C0C0
E1C0
7F80
3F00
ENDCHAR
STARTCHAR epsilon
ENCODING 949
SWIDTH 600 0
DWIDTH 12 0
BBX 10 9 1 0
BITMAP
1F80
7F80
6180
7E00
3E00
7000
E0C0
7FC0
3F80
ENDCHAR
STARTCHAR zeta
ENCODING 950
SWIDTH 600 0
DWIDTH 12 0
BBX 8 16 2 -4
BITMAP
FF
FF
DE
38
70
60
C0
C0
C0
E0
7E
3F
03
06
0F
0F
ENDCHAR
STARTCHAR eta
ENCODING 951
SWIDTH 600 0
DWIDTH 12 0
BBX 10 13 1 -4
BITMAP
EF00
FF80
7180
6180
6180
6180
6180
F180
F180
0180
0180
01C0
01C0
ENDCHAR
STARTCHAR theta
ENCODING 952
SWIDTH 600 0
DWIDTH 12 0
BBX 8 12 2 0
BITMAP
7E
7E
C3
C3
C3
FF
FF
C3
C3
C3
7E
3C
ENDCHAR
STARTCHAR iota
ENCODING 953
SWIDTH 600 0
DWIDTH 12 0
BBX 9 9 2 0
BITMAP
F800
F800
1800
1800
1800
1800
1800
1F80
0F80
ENDCHAR
STARTCHAR kappa
ENCODING 954
SWIDTH 600 0
DWIDTH 12 0
BBX 10 9 1 0
BITMAP
F7C0
F7C0
3700
3C00
3800
3C00
3E00
F7C0
F7C0
ENDCHAR
STARTCHAR lambda
ENCODING 955
SWIDTH 600 0
DWIDTH 12 0
BBX 10 12 1 0
BITMAP
F800
7800
1C00
0C00
1E00
1E00
3700
3300
6180
6180
F3C0
F3C0
ENDCHAR
STARTCHAR uni03BC
ENCODING 956
SWIDTH 600 0
DWIDTH 12 0
BBX 11 13 0 -4
BITMAP
71C0
F3C0
30C0
30C0
30C0
30C0
30C0
3FE0
3FE0
3000
3000
7800
7800
ENDCHAR
STARTCHAR nu
ENCODING 957
SWIDTH 600 0
DWIDTH 12 0
BBX 10 9 1 0
BITMAP
F9C0
FBC0
70C0
30C0
3980
1980
1B00
0E00
0E00
ENDCHAR
STARTCHAR xi
ENCODING 958
SWIDTH 600 0
DWIDTH 12 0
BBX 8 17 2 -4
BITMAP
FF
FF
D8
10
10
1E
3F
70
60
40
40
60
7C
0F
03
0F
0F
ENDCHAR
STARTCHAR omicron
ENCODING 959
SWIDTH 600 0
DWIDTH 12 0
BBX 10 9 1 0
BITMAP
1E00
7F80
E1C0
C0C0
C0C0
C0C0
E1C0
7F80
3F00
ENDCHAR
STARTCHAR pi
ENCODING 960
SWIDTH 600 0
DWIDTH 12 0
BBX 10 9 1 0
BITMAP
FFC0
FFC0
6180
6180
6180
6180
6180
F3C0
F3C0
ENDCHAR
STARTCHAR rho
ENCODING 961
SWIDTH 600 0
DWIDTH 12 0
BBX 11 13 0 -4
BITMAP
0F00
3FC0
70E0
6060
6060
6060
70E0
7FC0
7F80
6000
6000
F800
F800
ENDCHAR
STARTCHAR sigma1
ENCODING 962
SWIDTH 600 0
DWIDTH 12 0
BBX 8 10 2 -1
BITMAP
7F
67
C1
C1
7C
3E
43
63
7E
1C
ENDCHAR
STARTCHAR sigma
ENCODING 963
SWIDTH 600 0
DWIDTH 12 0
BBX 11 9 1 0
BITMAP
1FE0
7FE0
E1C0
C0C0
C0C0
C0C0
E1C0
7F80
3F00
ENDCHAR
STARTCHAR tau
ENCODING 964
SWIDTH 600 0
DWIDTH 12 0
BBX 10 9 1 0
BITMAP
7F80
FF80
0C00
0C00
0C00
0C00
0C00
0F80
07C0
ENDCHAR
STARTCHAR upsilon
ENCODING 965
SWIDTH 600 0
DWIDTH 12 0
BBX 12 9 0 0
BITMAP
71E0
F3F0
30C0
30C0
30C0
30C0
30C0
3FC0
1F80
ENDCHAR
STARTCHAR phi
ENCODING 966
SWIDTH 600 0
DWIDTH 12 0
BBX 12 13 0 -4
BITMAP
F7C0
F7E0
3670
3630
3630
3630
3670
3FE0
1FC0
0600
0600
0600
0200
ENDCHAR
STARTCHAR chi
ENCODING 967
SWIDTH 600 0
DWIDTH 12 0
BBX 12 13 0 -4
BITMAP
E1E0
F3F0
39C0
1980
0F80
0F00
0600
0E00
1F00
1B80
3980
F9F0
F8F0
ENDCHAR
STARTCHAR psi
ENCODING 968
SWIDTH 600 0
DWIDTH 12 0
BBX 12 17 0 -4
BITMAP
0600
0600
0600
0600
E670
E670
6660
6660
6660
6660
6660
3FC0
1F80
0600
0600
0600
0600
ENDCHAR
STARTCHAR omega
ENCODING 969
SWIDTH 600 0
DWIDTH 12 0
BBX 12 10 0 -1
BITMAP
79E0
70E0
6060
C620
C630
C630
4620
6660
3FC0
1980
ENDCHAR
STARTCHAR iotadieresis
ENCODING 970
SWIDTH 600 0
DWIDTH 12 0
BBX 9 13 2 0
BITMAP
4400
CC00
CC00
0000
F800
F800
1800
1800
1800
1800
1800
1F80
0F80
ENDCHAR
STARTCHAR upsilondieresis
ENCODING 971
SWIDTH 600 0
DWIDTH 12 0
BBX 12 13 0 0
BITMAP
1080
1980
1980
0000
71E0
F3F0
30C0
30C0
30C0
30C0
30C0
3FC0
1F80
ENDCHAR
STARTCHAR omicrontonos
ENCODING 972
SWIDTH 600 0
DWIDTH 12 0
BBX 10 15 1 0
BITMAP
0600
0600
0C00
1800
0800
0000
1E00
7F80
E1C0
C0C0
C0C0
C0C0
E1C0
7F80
3F00
ENDCHAR
STARTCHAR upsilontonos
ENCODING 973
SWIDTH 600 0
DWIDTH 12 0
BBX 12 15 0 0
BITMAP
0300
0300
0600
0C00
0400
0000
71E0
F3F0
30C0
30C0
30C0
30C0
30C0
3FC0
1F80
ENDCHAR
STARTCHAR omegatonos
ENCODING 974
SWIDTH 600 0
DWIDTH 12 0
BBX 12 16 0 -1
BITMAP
0180
0300
0300
0600
0400
0000
79E0
70E0
6060
C620
C630
C630
4620
6660
3FC0
1980
ENDCHAR
STARTCHAR uni03D0
ENCODING 976
SWIDTH 600 0
DWIDTH 12 0
BBX 8 14 2 -1
BITMAP
08
3E
7F
E3
C7
FF
F8
F8
FF
C7
C3
67
7E
1C
ENDCHAR
STARTCHAR theta1
ENCODING 977
SWIDTH 600 0
DWIDTH 12 0
BBX 9 14 2 -1
BITMAP
3C00
7E00
6300
C300
C100
F900
7D80
0180
8100
C300
C300
6600
7E00
1C00
ENDCHAR
STARTCHAR Upsilon1
ENCODING 978
SWIDTH 600 0
DWIDTH 12 0
BBX 11 13 1 -1
BITMAP
80C0
C1E0
C300
6600
3600
3C00
1800
1800
1800
1800
1800
1800
1800
ENDCHAR
STARTCHAR uni03D3
ENCODING 979
SWIDTH 600 0
DWIDTH 12 0
BBX 13 13 -1 -1
BITMAP
3030
7078
F860
DCC0
0D80
0780
0700
0300
0300
0300
0300
0300
0300
ENDCHAR
STARTCHAR uni03D4
ENCODING 980
SWIDTH 600 0
DWIDTH 12 0
BBX 11 15 1 -1
BITMAP
6700
6600
80C0
C1E0
C300
6600
3600
3C00
1800
1800
1800
1800
1800
1800
1800
ENDCHAR
STARTCHAR phi1
ENCODING 981
SWIDTH 600 0
DWIDTH 12 0
BBX 12 17 0 -4
BITMAP
0600
0600
0600
0600
1F80
7FE0
E670
C630
C630
C630
E670
7FE0
3FC0
0600
0600
0600
0600
ENDCHAR
STARTCHAR omegapi
ENCODING 982
SWIDTH 600 0
DWIDTH 12 0
BBX 12 10 0 -1
BITMAP
7FE0
7FE0
6060
C620
C630
C630
4620
6660
3FC0
1980
ENDCHAR
STARTCHAR Stigma
ENCODING 986
SWIDTH 600 0
DWIDTH 12 0
BBX 11 15 1 -3
BITMAP
03E0
1FE0
3800
7000
6000
C000
C000
C000
C000
E000
7C00
3F00
0380
0300
3F00
ENDCHAR
STARTCHAR uni03DB
ENCODING 987
SWIDTH 600 0
DWIDTH 12 0
BBX 10 12 1 -3
BITMAP
1FC0
3FC0
6000
6000
C000
C000
E000
7C00
1F00
0300
0300
3F00
ENDCHAR
STARTCHAR uni03dc
ENCODING 988
SWIDTH 600 0
DWIDTH 12 0
BBX 11 13 0 -1
BITMAP
7FE0
FFE0
3060
3060
3000
3E00
3F00
3300
3000
3000
3000
FE00
7C00
ENDCHAR
STARTCHAR digamma
ENCODING 989
SWIDTH 600 0
DWIDTH 12 0
BBX 11 13 1 -4
BITMAP
0FC0
1FE0
1800
1800
1800
1F00
1F80
1980
1800
1800
1800
F800
F800
ENDCHAR
STARTCHAR uni03F0
ENCODING 1008
SWIDTH 600 0
DWIDTH 12 0
BBX 12 10 0 -1
BITMAP
71F0
71F0
39C0
1B80
1F00
0F00
1D80
39C0
F8E0
7060
ENDCHAR
STARTCHAR uni03F1
ENCODING 1009
SWIDTH 600 0
DWIDTH 12 0
BBX 10 13 1 -4
BITMAP
1E00
7F80
E1C0
C0C0
C0C0
C0C0
E1C0
FF80
FF00
C000
C000
FFC0
7FC0
ENDCHAR
STARTCHAR uni03f4
ENCODING 1012
SWIDTH 600 0
DWIDTH 12 0
BBX 12 12 0 0
BITMAP
0F00
3FC0
30E0
6060
6060
FFF0
FFF0
6060
6060
70E0
3FC0
1F80
ENDCHAR
STARTCHAR uni03F5
ENCODING 1013
SWIDTH 600 0
DWIDTH 12 0
BBX 6 10 3 -1
BITMAP
3C
7C
60
C0
FC
FC
C0
60
3C
1C
ENDCHAR
STARTCHAR uni0400
ENCODING 1024
SWIDTH 600 0
DWIDTH 12 0
BBX 11 16 0 0
BITMAP
0C00
0600
0300
0000
7FE0
FFE0
3060
3060
3340
3F00
3F00
3300
3260
3060
FFE0
FFE0
ENDCHAR
STARTCHAR Iocyrillic
ENCODING 1025
SWIDTH 600 0
DWIDTH 12 0
BBX 11 15 0 0
BITMAP
3980
3980
0000
7FE0
FFE0
3060
3060
3340
3F00
3F00
3300
3260
3060
FFE0
FFE0
ENDCHAR
STARTCHAR Djecyrillic
ENCODING 1026
SWIDTH 600 0
DWIDTH 12 0
BBX 12 16 0 -4
BITMAP
FF80
FF80
CD80
4D00
0D80
0FE0
0EF0
0C30
0C30
0C30
1E30
1E30
0030
0060
01E0
0180
ENDCHAR
STARTCHAR Gjecyrillic
ENCODING 1027
SWIDTH 600 0
DWIDTH 12 0
BBX 10 16 1 0
BITMAP
0600
0C00
0800
0000
FFC0
FFC0
60C0
60C0
6040
6000
6000
6000
6000
6000
FC00
FC00
ENDCHAR
STARTCHAR Ecyrillic
ENCODING 1028
SWIDTH 600 0
DWIDTH 12 0
BBX 10 12 1 0
BITMAP
1EC0
7FC0
61C0
C0C0
C0C0
FE00
FE00
C000
C000
E0C0
7FC0
3F80
ENDCHAR
STARTCHAR Dzecyrillic
ENCODING 1029
SWIDTH 600 0
DWIDTH 12 0
BBX 10 12 1 0
BITMAP
1E80
7F80
6180
6180
6000
7E00
1F80
03C0
C0C0
E1C0
FF80
FF00
ENDCHAR
STARTCHAR Icyrillic
ENCODING 1030
SWIDTH 600 0
DWIDTH 12 0
BBX 8 12 2 0
BITMAP
FF
FF
18
18
18
18
18
18
18
18
FF
FF
ENDCHAR
STARTCHAR Yicyrillic
ENCODING 1031
SWIDTH 600 0
DWIDTH 12 0
BBX 8 15 2 0
BITMAP
66
66
00
FF
FF
18
18
18
18
18
18
18
18
FF
FF
ENDCHAR
STARTCHAR Jecyrillic
ENCODING 1032
SWIDTH 600 0
DWIDTH 12 0
BBX 11 12 1 0
BITMAP
1FC0
1FE0
0300
0300
0300
0300
8300
C300
C300
C300
FF00
7E00
ENDCHAR
STARTCHAR Ljecyrillic
ENCODING 1033
SWIDTH 600 0
DWIDTH 12 0
BBX 14 12 -1 0
BITMAP
1FC0
3FC0
1980
1980
1980
19E0
19F8
199C
D98C
D99C
FBF8
73F0
ENDCHAR
STARTCHAR Njecyrillic
ENCODING 1034
SWIDTH 600 0
DWIDTH 12 0
BBX 14 12 -1 0
BITMAP
73C0
FFC0
6180
6180
6180
7FE0
7FF8
6198
618C
619C
FFF8
FFF0
ENDCHAR
STARTCHAR Tshecyrillic
ENCODING 1035
SWIDTH 600 0
DWIDTH 12 0
BBX 12 12 0 0
BITMAP
FF00
FF00
DB00
9900
1B00
1FE0
1CE0
1860
1860
1860
3EF0
3EF0
ENDCHAR
STARTCHAR Kjecyrillic
ENCODING 1036
SWIDTH 600 0
DWIDTH 12 0
BBX 12 16 0 0
BITMAP
0300
0600
0400
0000
79E0
FDE0
31C0
3380
3700
3E00
3F00
3380
3180
31C0
FCF0
FCF0
ENDCHAR
STARTCHAR uni040D
ENCODING 1037
SWIDTH 600 0
DWIDTH 12 0
BBX 10 16 1 0
BITMAP
1000
1800
0C00
0000
F3C0
F3C0
6180
6180
6380
6F80
7D80
7980
7180
6180
F3C0
F3C0
ENDCHAR
STARTCHAR Ushortcyrillic
ENCODING 1038
SWIDTH 600 0
DWIDTH 12 0
BBX 12 15 0 0
BITMAP
3080
1F80
0E00
70E0
F9F0
30C0
39C0
1980
0F80
0F00
0700
0E00
0C00
3E00
3E00
ENDCHAR
STARTCHAR Dzhecyrillic
ENCODING 1039
SWIDTH 600 0
DWIDTH 12 0
BBX 12 14 0 -2
BITMAP
79E0
F9F0
30C0
30C0
30C0
30C0
30C0
30C0
30C0
30C0
7FE0
7FE0
0600
0600
ENDCHAR
STARTCHAR Acyrillic
ENCODING 1040
SWIDTH 600 0
DWIDTH 12 0
BBX 12 12 0 0
BITMAP
3E00
7F00
0F00
0F00
1980
1980
39C0
3FC0
3FC0
6060
F9F0
F9F0
ENDCHAR
STARTCHAR Becyrillic
ENCODING 1041
SWIDTH 600 0
DWIDTH 12 0
BBX 12 12 0 0
BITMAP
7FE0
FFE0
3060
3060
3020
3FC0
3FE0
3060
3070
3060
7FE0
7FC0
ENDCHAR
STARTCHAR Vecyrillic
ENCODING 1042
SWIDTH 600 0
DWIDTH 12 0
BBX 11 12 0 0
BITMAP
7F00
FFC0
30C0
3060
30C0
3FC0
3FC0
30E0
3060
3060
FFE0
FFC0
ENDCHAR
STARTCHAR Gecyrillic
ENCODING 1043
SWIDTH 600 0
DWIDTH 12 0
BBX 10 12 1 0
BITMAP
FFC0
FFC0
60C0
60C0
6040
6000
6000
6000
6000
6000
FC00
FC00
ENDCHAR
STARTCHAR Decyrillic
ENCODING 1044
SWIDTH 600 0
DWIDTH 12 0
BBX 12 15 0 -3
BITMAP
1FC0
3FE0
18C0
18C0
18C0
18C0
18C0
18C0
18C0
18C0
FFF0
FFF0
C030
C030
C030
ENDCHAR
STARTCHAR Iecyrillic
ENCODING 1045
SWIDTH 600 0
DWIDTH 12 0
BBX 11 12 0 0
BITMAP
7FE0
FFE0
3060
3060
3340
3F00
3F00
3300
3260
3060
FFE0
FFE0
ENDCHAR
STARTCHAR Zhecyrillic
ENCODING 1046
SWIDTH 600 0
DWIDTH 12 0
BBX 12 12 0 0
BITMAP
EF70
EF70
6660
36C0
36C0
1F80
3FC0
76E0
6660
6660
EF70
EF70
ENDCHAR
STARTCHAR Zecyrillic
ENCODING 1047
SWIDTH 600 0
DWIDTH 12 0
BBX 10 12 1 0
BITMAP
5E00
7F80
6180
6180
0180
1F80
3F80
01C0
C0C0
E1C0
FF80
FF00
ENDCHAR
STARTCHAR Iicyrillic
ENCODING 1048
SWIDTH 600 0
DWIDTH 12 0
BBX 10 12 1 0
BITMAP
F3C0
F3C0
6180
6180
6380
6F80
7D80
7980
7180
6180
F3C0
F3C0
ENDCHAR
STARTCHAR Iishortcyrillic
ENCODING 1049
SWIDTH 600 0
DWIDTH 12 0
BBX 10 15 1 0
BITMAP
6100
3F00
0C00
F3C0
F3C0
6180
6180
6380
6F80
7D80
7980
7180
6180
F3C0
F3C0
ENDCHAR
STARTCHAR Kacyrillic
ENCODING 1050
SWIDTH 600 0
DWIDTH 12 0
BBX 12 12 0 0
BITMAP
79E0
FDE0
31C0
3380
3700
3E00
3F00
3380
3180
31C0
FCF0
FCF0
ENDCHAR
STARTCHAR Elcyrillic
ENCODING 1051
SWIDTH 600 0
DWIDTH 12 0
BBX 12 12 0 0
BITMAP
0FE0
1FE0
0CC0
0CC0
0CC0
0CC0
0CC0
0CC0
CCC0
CCC0
FDF0
79F0
ENDCHAR
STARTCHAR Emcyrillic
ENCODING 1052
SWIDTH 600 0
DWIDTH 12 0
BBX 12 12 0 0
BITMAP
E070
F0F0
70E0
79E0
79E0
7FE0
6F60
6F60
6660
6060
F9F0
F9F0
ENDCHAR
STARTCHAR Encyrillic
ENCODING 1053
SWIDTH 600 0
DWIDTH 12 0
BBX 11 12 1 0
BITMAP
F3C0
FBC0
6180
6180
6180
7F80
7F80
6180
6180
6180
F3E0
F3E0
ENDCHAR
STARTCHAR Ocyrillic
ENCODING 1054
SWIDTH 600 0
DWIDTH 12 0
BBX 12 12 0 0
BITMAP
0F00
3FC0
30E0
6060
6060
C030
C030
6060
6060
70E0
3FC0
1F80
ENDCHAR
STARTCHAR Pecyrillic
ENCODING 1055
SWIDTH 600 0
DWIDTH 12 0
BBX 10 12 1 0
BITMAP
FFC0
FFC0
6180
6180
6180
6180
6180
6180
6180
6180
F3C0
F3C0
ENDCHAR
STARTCHAR Ercyrillic
ENCODING 1056
SWIDTH 600 0
DWIDTH 12 0
BBX 11 12 0 0
BITMAP
7F00
FF80
31C0
30E0
30E0
30C0
3FC0
3F00
3000
3000
FE00
FE00
ENDCHAR
STARTCHAR Escyrillic
ENCODING 1057
SWIDTH 600 0
DWIDTH 12 0
BBX 10 12 1 0
BITMAP
1EC0
7FC0
61C0
C0C0
C0C0
C000
C000
C000
C000
E0C0
7FC0
3F80
ENDCHAR
STARTCHAR Tecyrillic
ENCODING 1058
SWIDTH 600 0
DWIDTH 12 0
BBX 10 12 1 0
BITMAP
FFC0
FFC0
CCC0
CCC0
CCC0
0C00
0C00
0C00
0C00
0C00
7F80
7F80
ENDCHAR
STARTCHAR Ucyrillic
ENCODING 1059
SWIDTH 600 0
DWIDTH 12 0
BBX 12 12 0 0
BITMAP
70E0
F9F0
30C0
39C0
1980
0F80
0F00
0700
0E00
0C00
3E00
3E00
ENDCHAR
STARTCHAR Efcyrillic
ENCODING 1060
SWIDTH 600 0
DWIDTH 12 0
BBX 12 12 0 0
BITMAP
3FC0
3FC0
0600
7FE0
FFF0
C630
C630
F670
7FE0
1F80
3FC0
3FC0
ENDCHAR
STARTCHAR Khacyrillic
ENCODING 1061
SWIDTH 600 0
DWIDTH 12 0
BBX 12 12 0 0
BITMAP
70E0
F9F0
30C0
1980
1F80
0F00
0F00
1F80
1980
30C0
F9F0
F9F0
ENDCHAR
STARTCHAR Tsecyrillic
ENCODING 1062
SWIDTH 600 0
DWIDTH 12 0
BBX 12 15 0 -3
BITMAP
79E0
FBE0
30C0
30C0
30C0
30C0
30C0
30C0
30C0
30C0
7FF0
7FF0
0030
0030
0030
ENDCHAR
STARTCHAR Checyrillic
ENCODING 1063
SWIDTH 600 0
DWIDTH 12 0
BBX 10 12 1 0
BITMAP
F380
F7C0
6180
6180
6180
6180
7380
7F80
1980
0180
07C0
07C0
ENDCHAR
STARTCHAR Shacyrillic
ENCODING 1064
SWIDTH 600 0
DWIDTH 12 0
BBX 12 12 0 0
BITMAP
E670
EF70
C630
C630
C630
C630
C630
C630
C630
C630
FFF0
FFF0
ENDCHAR
STARTCHAR Shchacyrillic
ENCODING 1065
SWIDTH 600 0
DWIDTH 12 0
BBX 13 15 -1 -3
BITMAP
7738
F7F8
6330
6330
6330
6330
6330
6330
6330
6330
7FF8
7FF8
0018
0018
0008
ENDCHAR
STARTCHAR Hardsigncyrillic
ENCODING 1066
SWIDTH 600 0
DWIDTH 12 0
BBX 12 12 0 0
BITMAP
FE00
FF00
CC00
CC00
CF80
0FE0
0C70
0C30
0C30
0C70
3FE0
3FC0
ENDCHAR
STARTCHAR Yericyrillic
ENCODING 1067
SWIDTH 600 0
DWIDTH 12 0
BBX 12 12 0 0
BITMAP
F0F0
F8F0
6060
6060
7860
7E60
6760
6360
6360
6360
FFF0
FCF0
ENDCHAR
STARTCHAR Softsigncyrillic
ENCODING 1068
SWIDTH 600 0
DWIDTH 12 0
BBX 11 12 0 0
BITMAP
7E00
FE00
3000
3000
3E00
3F80
31C0
30E0
30E0
30C0
FFC0
FF80
ENDCHAR
STARTCHAR Ereversedcyrillic
ENCODING 1069
SWIDTH 600 0
DWIDTH 12 0
BBX 10 12 1 0
BITMAP
DE00
FF80
E180
C0C0
C0C0
1FC0
1FC0
00C0
00C0
C1C0
FF80
7F00
ENDCHAR
STARTCHAR IUcyrillic
ENCODING 1070
SWIDTH 600 0
DWIDTH 12 0
BBX 12 12 0 0
BITMAP
F3C0
F7E0
6E60
6C30
6C30
7C30
7C30
6C30
6C30
6C60
F7E0
F3C0
ENDCHAR
STARTCHAR IAcyrillic
ENCODING 1071
SWIDTH 600 0
DWIDTH 12 0
BBX 12 12 0 0
BITMAP
07F0
1FF0
38C0
30C0
30C0
3CC0
1FC0
1FC0
18C0
30C0
F1F0
E1F0
ENDCHAR
STARTCHAR acyrillic
ENCODING 1072
SWIDTH 600 0
DWIDTH 12 0
BBX 10 9 1 0
BITMAP
3E00
7F00
0180
1F80
7F80
E180
C380
FFC0
7FC0
ENDCHAR
STARTCHAR becyrillic
ENCODING 1073
SWIDTH 600 0
DWIDTH 12 0
BBX 10 13 1 0
BITMAP
0180
0F80
3F80
7000
FE00
FF80
E180
C0C0
C0C0
C0C0
E1C0
7F80
3F00
ENDCHAR
STARTCHAR vecyrillic
ENCODING 1074
SWIDTH 600 0
DWIDTH 12 0
BBX 8 9 2 0
BITMAP
FC
FF
63
7F
7E
67
63
FF
FE
ENDCHAR
STARTCHAR gecyrillic
ENCODING 1075
SWIDTH 600 0
DWIDTH 12 0
BBX 8 9 2 0
BITMAP
FF
FF
63
63
60
60
60
F0
F0
ENDCHAR
STARTCHAR decyrillic
ENCODING 1076
SWIDTH 600 0
DWIDTH 12 0
BBX 10 11 1 -2
BITMAP
7FC0
7FC0
3180
3180
3180
3180
3180
FFC0
FFC0
C0C0
80C0
ENDCHAR
STARTCHAR iecyrillic
ENCODING 1077
SWIDTH 600 0
DWIDTH 12 0
BBX 10 9 1 0
BITMAP
3E00
7F80
E180
C0C0
FFC0
FFC0
C000
7FC0
3F80
ENDCHAR
STARTCHAR zhecyrillic
ENCODING 1078
SWIDTH 600 0
DWIDTH 12 0
BBX 12 9 0 0
BITMAP
EF70
FFF0
76E0
3FC0
1F80
3FC0
76E0
FFF0
FFF0
ENDCHAR
STARTCHAR zecyrillic
ENCODING 1079
SWIDTH 600 0
DWIDTH 12 0
BBX 10 9 1 0
BITMAP
7E00
7F80
6180
1F80
1F00
0380
C1C0
FF80
7F00
ENDCHAR
STARTCHAR iicyrillic
ENCODING 1080
SWIDTH 600 0
DWIDTH 12 0
BBX 10 9 1 0
BITMAP
F3C0
F3C0
6180
6780
7F80
7980
6180
F3C0
F3C0
ENDCHAR
STARTCHAR iishortcyrillic
ENCODING 1081
SWIDTH 600 0
DWIDTH 12 0
BBX 10 13 1 0
BITMAP
2100
2100
3F00
0000
F3C0
F3C0
6180
6780
7F80
7980
6180
F3C0
F3C0
ENDCHAR
STARTCHAR kacyrillic
ENCODING 1082
SWIDTH 600 0
DWIDTH 12 0
BBX 10 9 1 0
BITMAP
F7C0
F7C0
3700
3C00
3800
3C00
3E00
F7C0
F7C0
ENDCHAR
STARTCHAR elcyrillic
ENCODING 1083
SWIDTH 600 0
DWIDTH 12 0
BBX 12 9 0 0
BITMAP
1FE0
3FF0
0CC0
0CC0
0CC0
CCC0
CCC0
FDF0
79F0
ENDCHAR
STARTCHAR emcyrillic
ENCODING 1084
SWIDTH 600 0
DWIDTH 12 0
BBX 12 9 0 0
BITMAP
F0F0
F9F0
79E0
6F60
6F60
6660
6660
F0F0
F0F0
ENDCHAR
STARTCHAR encyrillic
ENCODING 1085
SWIDTH 600 0
DWIDTH 12 0
BBX 10 9 1 0
BITMAP
F3C0
F3C0
6180
6180
7F80
7F80
6180
F3C0
F3C0
ENDCHAR
STARTCHAR ocyrillic
ENCODING 1086
SWIDTH 600 0
DWIDTH 12 0
BBX 10 9 1 0
BITMAP
1E00
7F80
E1C0
C0C0
C0C0
C0C0
E1C0
7F80
3F00
ENDCHAR
STARTCHAR pecyrillic
ENCODING 1087
SWIDTH 600 0
DWIDTH 12 0
BBX 10 9 1 0
BITMAP
FFC0
FFC0
6180
6180
6180
6180
6180
F3C0
F3C0
ENDCHAR
STARTCHAR ercyrillic
ENCODING 1088
SWIDTH 600 0
DWIDTH 12 0
BBX 12 13 0 -4
BITMAP
F780
FFC0
3860
3060
3030
3060
38E0
3FC0
3780
3000
3000
FC00
FC00
ENDCHAR
STARTCHAR escyrillic
ENCODING 1089
SWIDTH 600 0
DWIDTH 12 0
BBX 10 9 1 0
BITMAP
1FC0
7FC0
61C0
C0C0
C000
C000
E040
7FC0
3F80
ENDCHAR
STARTCHAR tecyrillic
ENCODING 1090
SWIDTH 600 0
DWIDTH 12 0
BBX 10 9 1 0
BITMAP
FFC0
FFC0
CCC0
CCC0
0C00
0C00
0C00
1E00
1E00
ENDCHAR
STARTCHAR ucyrillic
ENCODING 1091
SWIDTH 600 0
DWIDTH 12 0
BBX 12 13 0 -4
BITMAP
79E0
F9F0
30C0
30C0
1980
1980
0F00
0F00
0600
0600
0C00
7E00
7E00
ENDCHAR
STARTCHAR efcyrillic
ENCODING 1092
SWIDTH 600 0
DWIDTH 12 0
BBX 12 17 0 -4
BITMAP
0E00
1E00
0600
0600
3FC0
7FE0
E670
C630
C630
C630
E660
7FE0
1F80
0600
0600
1F80
1F80
ENDCHAR
STARTCHAR khacyrillic
ENCODING 1093
SWIDTH 600 0
DWIDTH 12 0
BBX 10 9 1 0
BITMAP
F3C0
F3C0
7380
3F00
1E00
3F00
7380
F3C0
F3C0
ENDCHAR
STARTCHAR tsecyrillic
ENCODING 1094
SWIDTH 600 0
DWIDTH 12 0
BBX 10 11 1 -2
BITMAP
F380
F7C0
6380
6380
6380
6380
6380
FFC0
FFC0
00C0
0040
ENDCHAR
STARTCHAR checyrillic
ENCODING 1095
SWIDTH 600 0
DWIDTH 12 0
BBX 10 9 1 0
BITMAP
F3C0
F3C0
6180
6180
6380
3F80
1D80
03C0
03C0
ENDCHAR
STARTCHAR shacyrillic
ENCODING 1096
SWIDTH 600 0
DWIDTH 12 0
BBX 12 9 0 0
BITMAP
EF70
EF70
6660
6660
6660
6660
6660
FFF0
FFF0
ENDCHAR
STARTCHAR shchacyrillic
ENCODING 1097
SWIDTH 600 0
DWIDTH 12 0
BBX 12 11 0 -2
BITMAP
EF70
EF70
6660
6660
6660
6660
6660
FFF0
FFF0
0030
0030
ENDCHAR
STARTCHAR hardsigncyrillic
ENCODING 1098
SWIDTH 600 0
DWIDTH 12 0
BBX 12 9 0 0
BITMAP
FE00
FE00
CC00
4F80
0FE0
0C70
0C30
1FE0
1FC0
ENDCHAR
STARTCHAR yericyrillic
ENCODING 1099
SWIDTH 600 0
DWIDTH 12 0
BBX 12 9 0 0
BITMAP
F070
F0F0
6060
7C60
7E60
6760
6360
FFF0
FEF0
ENDCHAR
STARTCHAR softsigncyrillic
ENCODING 1100
SWIDTH 600 0
DWIDTH 12 0
BBX 8 9 2 0
BITMAP
F0
F0
60
7C
7F
67
63
FF
FE
ENDCHAR
STARTCHAR ereversedcyrillic
ENCODING 1101
SWIDTH 600 0
DWIDTH 12 0
BBX 10 9 1 0
BITMAP
7E00
FF80
E1C0
C0C0
1FC0
1FC0
C1C0
FF80
7F00
ENDCHAR
STARTCHAR iucyrillic
ENCODING 1102
SWIDTH 600 0
DWIDTH 12 0
BBX 12 9 0 0
BITMAP
E3C0
F7E0
6E30
6C30
7C30
7C30
6C30
FFF0
F7E0
ENDCHAR
STARTCHAR iacyrillic
ENCODING 1103
SWIDTH 600 0
DWIDTH 12 0
BBX 10 9 1 0
BITMAP
0FC0
3FC0
7180
7180
3F80
1F80
1D80
FBC0
FBC0
ENDCHAR
STARTCHAR uni0450
ENCODING 1104
SWIDTH 600 0
DWIDTH 12 0
BBX 10 13 1 0
BITMAP
3000
1800
0C00
0000
3E00
7F80
E180
C0C0
FFC0
FFC0
C000
7FC0
3F80
ENDCHAR
STARTCHAR iocyrillic
ENCODING 1105
SWIDTH 600 0
DWIDTH 12 0
BBX 10 12 1 0
BITMAP
3300
3300
0000
3E00
7F80
E180
C0C0
FFC0
FFC0
C000
7FC0
3F80
ENDCHAR
STARTCHAR djecyrillic
ENCODING 1106
SWIDTH 600 0
DWIDTH 12 0
BBX 10 16 0 -4
BITMAP
F000
7000
FF00
3000
3780
3FC0
38C0
30C0
30C0
30C0
78C0
78C0
00C0
01C0
0F80
0700
ENDCHAR
STARTCHAR gjecyrillic
ENCODING 1107
SWIDTH 600 0
DWIDTH 12 0
BBX 8 13 2 0
BITMAP
06
0C
18
00
FF
FF
63
63
60
60
60
F0
F0
ENDCHAR
STARTCHAR ecyrillic
ENCODING 1108
SWIDTH 600 0
DWIDTH 12 0
BBX 10 9 1 0
BITMAP
1F80
7FC0
E1C0
C0C0
FE00
FE00
E0C0
7FC0
3F80
ENDCHAR
STARTCHAR dzecyrillic
ENCODING 1109
SWIDTH 600 0
DWIDTH 12 0
BBX 10 9 1 0
BITMAP
3F80
7F80
6180
7800
3F80
0780
C1C0
FF80
7F00
ENDCHAR
STARTCHAR icyrillic
ENCODING 1110
SWIDTH 600 0
DWIDTH 12 0
BBX 10 12 1 0
BITMAP
1C00
1C00
0000
7C00
7C00
0C00
0C00
0C00
0C00
0C00
FFC0
FFC0
ENDCHAR
STARTCHAR yicyrillic
ENCODING 1111
SWIDTH 600 0
DWIDTH 12 0
BBX 10 12 1 0
BITMAP
3300
3300
0000
7C00
7C00
0C00
0C00
0C00
0C00
0C00
FFC0
FFC0
ENDCHAR
STARTCHAR jecyrillic
ENCODING 1112
SWIDTH 600 0
DWIDTH 12 0
BBX 7 16 2 -4
BITMAP
0C
0C
00
FE
FE
06
06
06
06
06
06
06
06
06
FC
F8
ENDCHAR
STARTCHAR ljecyrillic
ENCODING 1113
SWIDTH 600 0
DWIDTH 12 0
BBX 14 9 -1 0
BITMAP
1FE0
3FE0
0CC0
0CE0
0CFC
4CDC
CCCC
FDFC
79F8
ENDCHAR
STARTCHAR njecyrillic
ENCODING 1114
SWIDTH 600 0
DWIDTH 12 0
BBX 13 9 -1 0
BITMAP
7BC0
FBC0
3180
3FE0
3FF8
31B8
3198
7BF8
7BF0
ENDCHAR
STARTCHAR tshecyrillic
ENCODING 1115
SWIDTH 600 0
DWIDTH 12 0
BBX 12 12 0 0
BITMAP
F000
7000
FF00
3000
3780
3FC0
38C0
30C0
30C0
30C0
79F0
79F0
ENDCHAR
STARTCHAR kjecyrillic
ENCODING 1116
SWIDTH 600 0
DWIDTH 12 0
BBX 10 13 1 0
BITMAP
0600
0C00
1800
0000
F7C0
F7C0
3700
3C00
3800
3C00
3E00
F7C0
F7C0
ENDCHAR
STARTCHAR uni045D
ENCODING 1117
SWIDTH 600 0
DWIDTH 12 0
BBX 10 13 1 0
BITMAP
3000
1800
0C00
0000
F3C0
F3C0
6180
6780
7F80
7980
6180
F3C0
F3C0
ENDCHAR
STARTCHAR ushortcyrillic
ENCODING 1118
SWIDTH 600 0
DWIDTH 12 0
BBX 12 17 0 -4
BITMAP
1080
1080
1F80
0000
79E0
F9F0
30C0
30C0
1980
1980
0F00
0F00
0600
0600
0C00
7E00
7E00
ENDCHAR
STARTCHAR afii10193
ENCODING 1119
SWIDTH 600 0
DWIDTH 12 0
BBX 10 11 1 -2
BITMAP
F3C0
F3C0
6180
6180
6180
6180
6180
FFC0
FFC0
0C00
0C00
ENDCHAR
STARTCHAR Psicyrillic
ENCODING 1136
SWIDTH 600 0
DWIDTH 12 0
BBX 12 12 0 0
BITMAP
EF70
EF70
6660
6660
6660
6660
76E0
3FC0
1F80
0600
1F80
1F80
ENDCHAR
STARTCHAR psicyrillic
ENCODING 1137
SWIDTH 600 0
DWIDTH 12 0
BBX 12 17 0 -4
BITMAP
0600
0600
0600
0600
E670
E670
6660
6660
6660
6660
6660
3FC0
1F80
0600
0600
0600
0600
ENDCHAR
STARTCHAR Fitacyrillic
ENCODING 1138
SWIDTH 600 0
DWIDTH 12 0
BBX 12 12 0 0
BITMAP
0F00
3FC0
30E0
6060
6060
DCB0
D7B0
6060
6060
70E0
3FC0
1F80
ENDCHAR
STARTCHAR uni0484
ENCODING 1156
SWIDTH 0 0
DWIDTH 0 0
BBX 7 3 -9 9
BITMAP
FC
86
80
ENDCHAR
STARTCHAR uni0485
ENCODING 1157
SWIDTH 0 0
DWIDTH 0 0
BBX 4 5 -8 9
BITMAP
E0
60
70
30
10
ENDCHAR
STARTCHAR uni0486
ENCODING 1158
SWIDTH 0 0
DWIDTH 0 0
BBX 3 3 -7 10
BITMAP
20
E0
80
ENDCHAR
STARTCHAR uni048a
ENCODING 1162
SWIDTH 600 0
DWIDTH 12 0
BBX 11 18 1 -3
BITMAP
6100
3F00
0C00
F3C0
F3C0
6180
6180
6380
6F80
7D80
7980
7180
6180
F3C0
F3E0
0060
0060
0040
ENDCHAR
STARTCHAR uni048b
ENCODING 1163
SWIDTH 600 0
DWIDTH 12 0
BBX 10 16 1 -3
BITMAP
2100
2100
3F00
0000
F3C0
F3C0
6180
6780
7F80
7980
6180
F3C0
F3C0
00C0
00C0
0040
ENDCHAR
STARTCHAR uni048c
ENCODING 1164
SWIDTH 600 0
DWIDTH 12 0
BBX 11 13 0 0
BITMAP
2000
3000
F800
7800
3000
3E00
3F80
31C0
30E0
30E0
30C0
FFC0
FF80
ENDCHAR
STARTCHAR uni048d
ENCODING 1165
SWIDTH 600 0
DWIDTH 12 0
BBX 8 10 2 0
BITMAP
60
F0
F0
60
78
7F
67
63
FF
FE
ENDCHAR
STARTCHAR uni048E
ENCODING 1166
SWIDTH 600 0
DWIDTH 12 0
BBX 11 12 0 0
BITMAP
7F00
FF80
31C0
30E0
33E0
31C0
3FC0
3F60
3000
3000
FE00
FE00
ENDCHAR
STARTCHAR uni048F
ENCODING 1167
SWIDTH 600 0
DWIDTH 12 0
BBX 11 13 0 -4
BITMAP
FF80
FFC0
78E0
7060
6060
7360
79E0
7FC0
7760
7020
7000
FC00
FC00
ENDCHAR
STARTCHAR afii10050
ENCODING 1168
SWIDTH 600 0
DWIDTH 12 0
BBX 10 14 1 0
BITMAP
0040
00C0
FFC0
FFC0
6000
6000
6000
6000
6000
6000
6000
6000
FC00
FC00
ENDCHAR
STARTCHAR afii10098
ENCODING 1169
SWIDTH 600 0
DWIDTH 12 0
BBX 8 10 2 0
BITMAP
03
FF
FF
60
60
60
60
60
F0
F0
ENDCHAR
STARTCHAR uni0492
ENCODING 1170
SWIDTH 600 0
DWIDTH 12 0
BBX 10 12 1 0
BITMAP
FFC0
FFC0
60C0
60C0
FC40
FC00
6000
6000
6000
6000
FC00
FC00
ENDCHAR
STARTCHAR uni0493
ENCODING 1171
SWIDTH 600 0
DWIDTH 12 0
BBX 8 9 2 0
BITMAP
FF
FF
63
63
F8
60
60
F0
F0
ENDCHAR
STARTCHAR uni0494
ENCODING 1172
SWIDTH 600 0
DWIDTH 12 0
BBX 11 15 0 -3
BITMAP
7FE0
FFE0
3060
3060
3020
3300
3FC0
38E0
3060
3060
7C60
7C60
0060
03E0
03C0
ENDCHAR
STARTCHAR uni0495
ENCODING 1173
SWIDTH 600 0
DWIDTH 12 0
BBX 8 12 2 -3
BITMAP
FF
FF
63
63
6C
7F
73
F3
F3
03
0F
0E
ENDCHAR
STARTCHAR uni0496
ENCODING 1174
SWIDTH 600 0
DWIDTH 12 0
BBX 12 15 0 -3
BITMAP
EF70
EF70
6660
36C0
36C0
1F80
3FC0
76E0
6660
6660
EF70
EF70
0030
0030
0010
ENDCHAR
STARTCHAR uni0497
ENCODING 1175
SWIDTH 600 0
DWIDTH 12 0
BBX 12 11 0 -2
BITMAP
EF70
FFF0
76E0
3FC0
1F80
3FC0
76E0
FFF0
FFF0
0030
0010
ENDCHAR
STARTCHAR uni0498
ENCODING 1176
SWIDTH 600 0
DWIDTH 12 0
BBX 10 16 1 -4
BITMAP
5E00
7F80
6180
6180
0180
1F80
3F80
01C0
C0C0
E1C0
FF80
FF00
0C00
0600
1E00
1C00
ENDCHAR
STARTCHAR uni0499
ENCODING 1177
SWIDTH 600 0
DWIDTH 12 0
BBX 10 13 1 -4
BITMAP
7E00
7F80
6180
1F80
1F00
0380
C1C0
FF80
7F00
0C00
0600
1E00
1C00
ENDCHAR
STARTCHAR uni049A
ENCODING 1178
SWIDTH 600 0
DWIDTH 12 0
BBX 12 15 0 -3
BITMAP
79E0
FDE0
31C0
3380
3700
3E00
3F00
3380
3180
31C0
FCF0
FCF0
0030
0030
0030
ENDCHAR
STARTCHAR uni049B
ENCODING 1179
SWIDTH 600 0
DWIDTH 12 0
BBX 10 12 1 -3
BITMAP
F7C0
F7C0
3700
3C00
3800
3C00
3E00
F7C0
F7C0
00C0
00C0
00C0
ENDCHAR
STARTCHAR uni049c
ENCODING 1180
SWIDTH 600 0
DWIDTH 12 0
BBX 12 12 0 0
BITMAP
79E0
FDE0
31C0
3780
3700
3E00
3F00
3780
3580
31C0
FCF0
FCF0
ENDCHAR
STARTCHAR uni049d
ENCODING 1181
SWIDTH 600 0
DWIDTH 12 0
BBX 11 9 1 0
BITMAP
E3C0
EBE0
6F00
7E00
7800
7E00
6F00
EBE0
E3E0
ENDCHAR
STARTCHAR uni049e
ENCODING 1182
SWIDTH 600 0
DWIDTH 12 0
BBX 12 12 0 0
BITMAP
79E0
FDE0
31C0
F380
F700
3E00
3F00
3380
3180
31C0
FCF0
FCF0
ENDCHAR
STARTCHAR uni049f
ENCODING 1183
SWIDTH 600 0
DWIDTH 12 0
BBX 10 9 1 0
BITMAP
F7C0
F7C0
3700
FC00
3800
3C00
3E00
F7C0
F7C0
ENDCHAR
STARTCHAR uni04a0
ENCODING 1184
SWIDTH 600 0
DWIDTH 12 0
BBX 14 12 -1 0
BITMAP
FE78
FF78
CC70
CCE0
4DC0
0F80
0FC0
0CE0
0C60
0C70
3F3C
3F3C
ENDCHAR
STARTCHAR uni04a1
ENCODING 1185
SWIDTH 600 0
DWIDTH 12 0
BBX 12 9 0 0
BITMAP
FDE0
FDF0
DF80
DF00
5E00
1F00
1F80
3DF0
3DF0
ENDCHAR
STARTCHAR uni04A2
ENCODING 1186
SWIDTH 600 0
DWIDTH 12 0
BBX 11 15 1 -3
BITMAP
F3C0
FBC0
6180
6180
6180
7F80
7F80
6180
6180
6180
F3E0
F3E0
0060
0060
0040
ENDCHAR
STARTCHAR uni04A3
ENCODING 1187
SWIDTH 600 0
DWIDTH 12 0
BBX 10 12 1 -3
BITMAP
F3C0
F3C0
6180
6180
7F80
7F80
6180
F3C0
F3C0
00C0
00C0
0040
ENDCHAR
STARTCHAR uni04a4
ENCODING 1188
SWIDTH 600 0
DWIDTH 12 0
BBX 13 12 -1 0
BITMAP
79F8
7BF8
30D8
30D8
30C8
3FC0
3FC0
30C0
30C0
30C0
FBE0
FBE0
ENDCHAR
STARTCHAR uni04a5
ENCODING 1189
SWIDTH 600 0
DWIDTH 12 0
BBX 12 9 0 0
BITMAP
F3F0
F3F0
61B0
61B0
7F80
7F80
6180
F3C0
F3C0
ENDCHAR
STARTCHAR uni04A6
ENCODING 1190
SWIDTH 600 0
DWIDTH 12 0
BBX 14 15 -1 -3
BITMAP
7FC0
7FC0
3180
3180
3180
31B0
31F8
319C
318C
318C
FBEC
FBEC
001C
0038
0030
ENDCHAR
STARTCHAR pemiddlehookcyrillic
ENCODING 1191
SWIDTH 600 0
DWIDTH 12 0
BBX 14 12 -1 -3
BITMAP
FFC0
FFC0
6180
61F8
61F8
618C
618C
F3CC
F3CC
001C
0038
0030
ENDCHAR
STARTCHAR uni04A8
ENCODING 1192
SWIDTH 600 0
DWIDTH 12 0
BBX 10 15 1 -3
BITMAP
1EC0
7FC0
61C0
C0C0
C0C0
C000
C380
C7C0
CCC0
ECC0
7FC0
3F80
0C00
0C00
0400
ENDCHAR
STARTCHAR uni04a9
ENCODING 1193
SWIDTH 600 0
DWIDTH 12 0
BBX 10 12 1 -3
BITMAP
1FC0
7FC0
61C0
C0C0
C380
C7C0
ECC0
7FC0
3F80
0C00
0C00
0C00
ENDCHAR
STARTCHAR uni04aa
ENCODING 1194
SWIDTH 600 0
DWIDTH 12 0
BBX 10 16 1 -4
BITMAP
1EC0
7FC0
61C0
C0C0
C0C0
C000
C000
C000
C000
E0C0
7FC0
3F80
0C00
1800
1A00
0E00
ENDCHAR
STARTCHAR uni04ab
ENCODING 1195
SWIDTH 600 0
DWIDTH 12 0
BBX 10 13 1 -4
BITMAP
1FC0
7FC0
61C0
C0C0
C000
C000
E040
7FC0
3F80
1C00
1000
1600
1E00
ENDCHAR
STARTCHAR uni04AC
ENCODING 1196
SWIDTH 600 0
DWIDTH 12 0
BBX 10 15 1 -3
BITMAP
FFC0
FFC0
CCC0
CCC0
CCC0
0C00
0C00
0C00
0C00
0C00
7F80
7F80
0180
0180
0100
ENDCHAR
STARTCHAR uni04AD
ENCODING 1197
SWIDTH 600 0
DWIDTH 12 0
BBX 10 12 1 -3
BITMAP
FFC0
FFC0
CCC0
CCC0
0C00
0C00
0C00
1E00
1E00
0600
0600
0600
ENDCHAR
STARTCHAR uni04AE
ENCODING 1198
SWIDTH 600 0
DWIDTH 12 0
BBX 12 12 0 0
BITMAP
70E0
F9F0
30C0
1980
1F80
0F00
0600
0600
0600
0600
3FC0
3FC0
ENDCHAR
STARTCHAR uni04AF
ENCODING 1199
SWIDTH 600 0
DWIDTH 12 0
BBX 12 12 0 -3
BITMAP
79E0
F9F0
30C0
1980
1F80
0F00
0600
0600
0600
0600
3FC0
1F80
ENDCHAR
STARTCHAR uni04B0
ENCODING 1200
SWIDTH 600 0
DWIDTH 12 0
BBX 12 12 0 0
BITMAP
70E0
F9F0
30C0
1980
1F80
0F00
0600
3FC0
3FC0
0600
3FC0
3FC0
ENDCHAR
STARTCHAR uni04B1
ENCODING 1201
SWIDTH 600 0
DWIDTH 12 0
BBX 12 12 0 -3
BITMAP
79E0
F9F0
30C0
1980
1F80
0F00
0600
3FC0
3FC0
0600
3FC0
1F80
ENDCHAR
STARTCHAR uni04B2
ENCODING 1202
SWIDTH 600 0
DWIDTH 12 0
BBX 12 15 0 -3
BITMAP
70E0
F9F0
30C0
1980
1F80
0F00
0F00
1F80
1980
30C0
F9F0
F9F0
0030
0030
0030
ENDCHAR
STARTCHAR uni04B3
ENCODING 1203
SWIDTH 600 0
DWIDTH 12 0
BBX 11 12 1 -3
BITMAP
F3C0
F3C0
7380
3F00
1E00
3F00
7380
F3E0
F3E0
0060
0060
0040
ENDCHAR
STARTCHAR uni04B4
ENCODING 1204
SWIDTH 600 0
DWIDTH 12 0
BBX 13 15 -1 -3
BITMAP
FF78
FF78
DB30
5930
1830
1830
1830
1830
1830
1830
3FF8
3FF8
0018
0018
0018
ENDCHAR
STARTCHAR uni04B5
ENCODING 1205
SWIDTH 600 0
DWIDTH 12 0
BBX 13 12 -1 -3
BITMAP
FF78
FF78
DB30
5930
1830
1830
1830
3FF8
3FF8
0018
0018
0018
ENDCHAR
STARTCHAR uni04B6
ENCODING 1206
SWIDTH 600 0
DWIDTH 12 0
BBX 10 15 1 -3
BITMAP
F380
F7C0
6180
6180
6180
6180
7380
7F80
1980
0180
07C0
07C0
00C0
00C0
00C0
ENDCHAR
STARTCHAR uni04B7
ENCODING 1207
SWIDTH 600 0
DWIDTH 12 0
BBX 10 12 1 -3
BITMAP
F3C0
F3C0
6180
6180
6380
3F80
1D80
03C0
03C0
00C0
00C0
00C0
ENDCHAR
STARTCHAR uni04b8
ENCODING 1208
SWIDTH 600 0
DWIDTH 12 0
BBX 10 12 1 0
BITMAP
F380
F7C0
6180
6180
6980
6D80
7F80
7F80
1D80
0980
07C0
07C0
ENDCHAR
STARTCHAR uni04b9
ENCODING 1209
SWIDTH 600 0
DWIDTH 12 0
BBX 10 9 1 0
BITMAP
F3C0
F3C0
6180
6D80
6F80
3F80
1D80
03C0
03C0
ENDCHAR
STARTCHAR uni04BA
ENCODING 1210
SWIDTH 600 0
DWIDTH 12 0
BBX 10 12 1 0
BITMAP
F800
F800
6000
6600
7F80
7380
6180
6180
6180
6180
FBC0
73C0
ENDCHAR
STARTCHAR uni04BB
ENCODING 1211
SWIDTH 600 0
DWIDTH 12 0
BBX 10 9 1 0
BITMAP
F000
F000
6E00
7F00
7180
6180
6180
F3C0
F3C0
ENDCHAR
STARTCHAR Cheabkhasiancyrillic
ENCODING 1212
SWIDTH 600 0
DWIDTH 12 0
BBX 13 12 0 0
BITMAP
07C0
0FE0
EC30
F830
9810
FFF8
FFF8
1800
1800
1C30
0FF0
07E0
ENDCHAR
STARTCHAR cheabkhasiancyrillic
ENCODING 1213
SWIDTH 600 0
DWIDTH 12 0
BBX 12 9 0 0
BITMAP
67C0
EFE0
DC70
D830
FFF0
7FF0
1C00
0FF0
07E0
ENDCHAR
STARTCHAR Chedescenderabkhasiancyrillic
ENCODING 1214
SWIDTH 600 0
DWIDTH 12 0
BBX 13 16 0 -4
BITMAP
07C0
0FE0
EC30
F830
9810
FFF8
FFF8
1800
1800
1C30
0FF0
07E0
0180
0300
0240
03C0
ENDCHAR
STARTCHAR chedescenderabkhasiancyrillic
ENCODING 1215
SWIDTH 600 0
DWIDTH 12 0
BBX 12 13 0 -4
BITMAP
67C0
EFE0
DC70
D830
FFF0
7FF0
1C00
0FF0
07E0
0300
0600
0680
0380
ENDCHAR
STARTCHAR uni04C0
ENCODING 1216
SWIDTH 600 0
DWIDTH 12 0
BBX 8 12 2 0
BITMAP
FF
FF
18
18
18
18
18
18
18
18
FF
FF
ENDCHAR
STARTCHAR uni04C1
ENCODING 1217
SWIDTH 600 0
DWIDTH 12 0
BBX 12 15 0 0
BITMAP
1080
1F80
0600
EF70
EF70
6660
36C0
36C0
1F80
3FC0
76E0
6660
6660
EF70
EF70
ENDCHAR
STARTCHAR uni04C2
ENCODING 1218
SWIDTH 600 0
DWIDTH 12 0
BBX 12 13 0 0
BITMAP
10C0
1F80
0F00
0000
EF70
FFF0
76E0
3FC0
1F80
3FC0
76E0
FFF0
FFF0
ENDCHAR
STARTCHAR uni04c3
ENCODING 1219
SWIDTH 600 0
DWIDTH 12 0
BBX 11 15 0 -3
BITMAP
79E0
FDE0
31C0
3380
3700
3E00
3F00
3380
31C0
30C0
FCC0
FCC0
00C0
03C0
0380
ENDCHAR
STARTCHAR uni04c4
ENCODING 1220
SWIDTH 600 0
DWIDTH 12 0
BBX 10 12 1 -3
BITMAP
F7C0
F7C0
3700
3C00
3800
3C00
3E00
F300
F380
0380
0F00
0E00
ENDCHAR
STARTCHAR uni04c5
ENCODING 1221
SWIDTH 600 0
DWIDTH 12 0
BBX 12 15 0 -3
BITMAP
0FE0
1FE0
0CC0
0CC0
0CC0
0CC0
0CC0
0CC0
CCC0
CCC0
FDF0
79F0
0030
0030
0020
ENDCHAR
STARTCHAR uni04c6
ENCODING 1222
SWIDTH 600 0
DWIDTH 12 0
BBX 12 12 0 -3
BITMAP
1FE0
3FF0
0CC0
0CC0
0CC0
CCC0
CCC0
FDF0
79F0
0030
0030
0020
ENDCHAR
STARTCHAR uni04c7
ENCODING 1223
SWIDTH 600 0
DWIDTH 12 0
BBX 10 15 1 -3
BITMAP
F3C0
FBC0
6180
6180
6180
7F80
7F80
6180
6180
6180
F180
F180
0180
0780
0700
ENDCHAR
STARTCHAR uni04c8
ENCODING 1224
SWIDTH 600 0
DWIDTH 12 0
BBX 10 12 1 -3
BITMAP
F3C0
F3C0
6180
6180
7F80
7F80
6180
F180
F180
0180
0F80
0E00
ENDCHAR
STARTCHAR uni04c9
ENCODING 1225
SWIDTH 600 0
DWIDTH 12 0
BBX 11 15 1 -3
BITMAP
F3C0
FBC0
6180
6180
6180
7F80
7F80
6180
6180
6180
F3E0
F3E0
0060
0060
0040
ENDCHAR
STARTCHAR uni04ca
ENCODING 1226
SWIDTH 600 0
DWIDTH 12 0
BBX 10 12 1 -3
BITMAP
F3C0
F3C0
6180
6180
7F80
7F80
6180
F3C0
F3C0
00C0
00C0
00C0
ENDCHAR
STARTCHAR uni04cb
ENCODING 1227
SWIDTH 600 0
DWIDTH 12 0
BBX 10 15 1 -3
BITMAP
F380
F7C0
6180
6180
6180
6180
7380
7F80
1980
0180
07C0
07C0
0600
0600
0600
ENDCHAR
STARTCHAR uni04cc
ENCODING 1228
SWIDTH 600 0
DWIDTH 12 0
BBX 10 12 1 -3
BITMAP
F3C0
F3C0
6180
6180
6380
3F80
1D80
03C0
03C0
0300
0300
0200
ENDCHAR
STARTCHAR uni04cd
ENCODING 1229
SWIDTH 600 0
DWIDTH 12 0
BBX 12 15 0 -3
BITMAP
E070
F0F0
70E0
79E0
79E0
7FE0
6F60
6F60
6660
6060
F9F0
F9F0
0030
0030
0010
ENDCHAR
STARTCHAR uni04ce
ENCODING 1230
SWIDTH 600 0
DWIDTH 12 0
BBX 12 12 0 -3
BITMAP
F0F0
F9F0
79E0
6F60
6F60
6660
6660
F0F0
F0F0
0030
0030
0010
ENDCHAR
STARTCHAR uni04cf
ENCODING 1231
SWIDTH 600 0
DWIDTH 12 0
BBX 8 12 2 0
BITMAP
FF
FF
18
18
18
18
18
18
18
18
FF
FF
ENDCHAR
STARTCHAR uni04D0
ENCODING 1232
SWIDTH 600 0
DWIDTH 12 0
BBX 12 15 0 0
BITMAP
1080
1F80
0600
3E00
7F00
0F00
0F00
1980
1980
39C0
3FC0
3FC0
6060
F9F0
F9F0
ENDCHAR
STARTCHAR uni04D1
ENCODING 1233
SWIDTH 600 0
DWIDTH 12 0
BBX 10 13 1 0
BITMAP
2180
3F00
1E00
0000
3E00
7F00
0180
1F80
7F80
E180
C380
FFC0
7FC0
ENDCHAR
STARTCHAR uni04D2
ENCODING 1234
SWIDTH 600 0
DWIDTH 12 0
BBX 12 15 0 0
BITMAP
1980
1980
0000
3E00
7F00
0F00
0F00
1980
1980
39C0
3FC0
3FC0
6060
F9F0
F9F0
ENDCHAR
STARTCHAR uni04D3
ENCODING 1235
SWIDTH 600 0
DWIDTH 12 0
BBX 10 12 1 0
BITMAP
3300
3300
0000
3E00
7F00
0180
1F80
7F80
E180
C380
FFC0
7FC0
ENDCHAR
STARTCHAR uni04D4
ENCODING 1236
SWIDTH 600 0
DWIDTH 12 0
BBX 12 12 0 0
BITMAP
3FF0
3FF0
1E30
1E30
1EF0
37C0
37C0
3EC0
3E10
6630
FFF0
FFF0
ENDCHAR
STARTCHAR uni04D5
ENCODING 1237
SWIDTH 600 0
DWIDTH 12 0
BBX 12 9 0 0
BITMAP
3DC0
7FE0
0730
3E30
FFF0
C7F0
C700
FFF0
7FF0
ENDCHAR
STARTCHAR uni04D6
ENCODING 1238
SWIDTH 600 0
DWIDTH 12 0
BBX 11 15 0 0
BITMAP
3080
1F80
0E00
7FE0
FFE0
3060
3060
3340
3F00
3F00
3300
3260
3060
FFE0
FFE0
ENDCHAR
STARTCHAR uni04D7
ENCODING 1239
SWIDTH 600 0
DWIDTH 12 0
BBX 10 13 1 0
BITMAP
2180
3F00
0C00
0000
3E00
7F80
E180
C0C0
FFC0
FFC0
C000
7FC0
3F80
ENDCHAR
STARTCHAR uni04d8
ENCODING 1240
SWIDTH 600 0
DWIDTH 12 0
BBX 11 12 0 0
BITMAP
1F00
3FC0
60C0
4060
0060
FFE0
FFE0
4060
6060
60C0
3FC0
1F80
ENDCHAR
STARTCHAR afii10846
ENCODING 1241
SWIDTH 600 0
DWIDTH 12 0
BBX 10 9 1 0
BITMAP
FF00
FF80
01C0
FFC0
FFC0
C0C0
E180
7F80
3E00
ENDCHAR
STARTCHAR uni04da
ENCODING 1242
SWIDTH 600 0
DWIDTH 12 0
BBX 11 15 0 0
BITMAP
1980
1980
0000
1F00
3FC0
60C0
4060
0060
FFE0
FFE0
4060
6060
60C0
3FC0
1F80
ENDCHAR
STARTCHAR uni04DB
ENCODING 1243
SWIDTH 600 0
DWIDTH 12 0
BBX 10 12 1 0
BITMAP
3300
3300
0000
FF00
FF80
01C0
FFC0
FFC0
C0C0
E180
7F80
3E00
ENDCHAR
STARTCHAR uni04DC
ENCODING 1244
SWIDTH 600 0
DWIDTH 12 0
BBX 12 15 0 0
BITMAP
1980
1980
0000
EF70
EF70
6660
36C0
36C0
1F80
3FC0
76E0
6660
6660
EF70
EF70
ENDCHAR
STARTCHAR uni04DD
ENCODING 1245
SWIDTH 600 0
DWIDTH 12 0
BBX 12 12 0 0
BITMAP
1980
1980
0000
EF70
FFF0
76E0
3FC0
1F80
3FC0
76E0
FFF0
FFF0
ENDCHAR
STARTCHAR uni04DE
ENCODING 1246
SWIDTH 600 0
DWIDTH 12 0
BBX 10 15 1 0
BITMAP
3300
3300
0000
5E00
7F80
6180
6180
0180
1F80
3F80
01C0
C0C0
E1C0
FF80
FF00
ENDCHAR
STARTCHAR uni04DF
ENCODING 1247
SWIDTH 600 0
DWIDTH 12 0
BBX 10 12 1 0
BITMAP
3300
3300
0000
7E00
7F80
6180
1F80
1F00
0380
C1C0
FF80
7F00
ENDCHAR
STARTCHAR Dzeabkhasiancyrillic
ENCODING 1248
SWIDTH 600 0
DWIDTH 12 0
BBX 10 13 1 -1
BITMAP
7F80
7F80
6380
6300
0600
0F00
1F80
00C0
00C0
C0C0
E1C0
7F80
1F00
ENDCHAR
STARTCHAR dzeabkhasiancyrillic
ENCODING 1249
SWIDTH 600 0
DWIDTH 12 0
BBX 8 13 1 -4
BITMAP
7F
7F
0E
18
3E
36
03
03
03
43
E6
7E
18
ENDCHAR
STARTCHAR uni04E2
ENCODING 1250
SWIDTH 600 0
DWIDTH 12 0
BBX 10 14 1 0
BITMAP
3F00
0000
F3C0
F3C0
6180
6180
6380
6F80
7D80
7980
7180
6180
F3C0
F3C0
ENDCHAR
STARTCHAR uni04E3
ENCODING 1251
SWIDTH 600 0
DWIDTH 12 0
BBX 10 12 1 0
BITMAP
3F00
3F00
0000
F3C0
F3C0
6180
6780
7F80
7980
6180
F3C0
F3C0
ENDCHAR
STARTCHAR uni04E4
ENCODING 1252
SWIDTH 600 0
DWIDTH 12 0
BBX 10 15 1 0
BITMAP
3300
3300
0000
F3C0
F3C0
6180
6180
6380
6F80
7D80
7980
7180
6180
F3C0
F3C0
ENDCHAR
STARTCHAR uni04E5
ENCODING 1253
SWIDTH 600 0
DWIDTH 12 0
BBX 10 12 1 0
BITMAP
3300
3300
0000
F3C0
F3C0
6180
6780
7F80
7980
6180
F3C0
F3C0
ENDCHAR
STARTCHAR uni04E6
ENCODING 1254
SWIDTH 600 0
DWIDTH 12 0
BBX 12 15 0 0
BITMAP
1980
1980
0000
0F00
3FC0
30E0
6060
6060
C030
C030
6060
6060
70E0
3FC0
1F80
ENDCHAR
STARTCHAR uni04E7
ENCODING 1255
SWIDTH 600 0
DWIDTH 12 0
BBX 10 12 1 0
BITMAP
3300
3300
0000
1E00
7F80
E1C0
C0C0
C0C0
C0C0
E1C0
7F80
3F00
ENDCHAR
STARTCHAR uni04E8
ENCODING 1256
SWIDTH 600 0
DWIDTH 12 0
BBX 12 12 0 0
BITMAP
0F00
3FC0
30E0
6060
6060
FFF0
FFF0
6060
6060
70E0
3FC0
1F80
ENDCHAR
STARTCHAR uni04E9
ENCODING 1257
SWIDTH 600 0
DWIDTH 12 0
BBX 10 9 1 0
BITMAP
1E00
7F80
E1C0
C0C0
FFC0
C0C0
E1C0
7F80
3F00
ENDCHAR
STARTCHAR uni04EA
ENCODING 1258
SWIDTH 600 0
DWIDTH 12 0
BBX 12 15 0 0
BITMAP
1980
1980
0000
0F00
3FC0
30E0
6060
6060
FFF0
FFF0
6060
6060
70E0
3FC0
1F80
ENDCHAR
STARTCHAR uni04EB
ENCODING 1259
SWIDTH 600 0
DWIDTH 12 0
BBX 10 12 1 0
BITMAP
3300
3300
0000
1E00
7F80
E1C0
C0C0
FFC0
C0C0
E1C0
7F80
3F00
ENDCHAR
STARTCHAR uni04EC
ENCODING 1260
SWIDTH 600 0
DWIDTH 12 0
BBX 10 15 1 0
BITMAP
3300
3300
0000
DE00
FF80
E180
C0C0
C0C0
1FC0
1FC0
00C0
00C0
C1C0
FF80
7F00
ENDCHAR
STARTCHAR uni04ED
ENCODING 1261
SWIDTH 600 0
DWIDTH 12 0
BBX 10 12 1 0
BITMAP
3300
3300
0000
7E00
FF80
E1C0
C0C0
1FC0
1FC0
C1C0
FF80
7F00
ENDCHAR
STARTCHAR uni04EE
ENCODING 1262
SWIDTH 600 0
DWIDTH 12 0
BBX 12 14 0 0
BITMAP
1F80
0000
70E0
F9F0
30C0
39C0
1980
0F80
0F00
0700
0E00
0C00
3E00
3E00
ENDCHAR
STARTCHAR uni04EF
ENCODING 1263
SWIDTH 600 0
DWIDTH 12 0
BBX 12 16 0 -4
BITMAP
1F80
1F80
0000
79E0
F9F0
30C0
30C0
1980
1980
0F00
0F00
0600
0600
0C00
7E00
7E00
ENDCHAR
STARTCHAR uni04F0
ENCODING 1264
SWIDTH 600 0
DWIDTH 12 0
BBX 12 15 0 0
BITMAP
1980
1980
0000
70E0
F9F0
30C0
39C0
1980
0F80
0F00
0700
0E00
0C00
3E00
3E00
ENDCHAR
STARTCHAR uni04F1
ENCODING 1265
SWIDTH 600 0
DWIDTH 12 0
BBX 12 16 0 -4
BITMAP
1980
1980
0000
79E0
F9F0
30C0
30C0
1980
1980
0F00
0F00
0600
0600
0C00
7E00
7E00
ENDCHAR
STARTCHAR uni04F2
ENCODING 1266
SWIDTH 600 0
DWIDTH 12 0
BBX 12 16 0 0
BITMAP
0200
06E0
0DC0
0900
70E0
F9F0
30C0
39C0
1980
0F80
0F00
0700
0E00
0C00
3E00
3E00
ENDCHAR
STARTCHAR uni04F3
ENCODING 1267
SWIDTH 600 0
DWIDTH 12 0
BBX 12 17 0 -4
BITMAP
06C0
0D80
1900
0000
79E0
F9F0
30C0
30C0
1980
1980
0F00
0F00
0600
0600
0C00
7E00
7E00
ENDCHAR
STARTCHAR uni04F4
ENCODING 1268
SWIDTH 600 0
DWIDTH 12 0
BBX 10 15 1 0
BITMAP
7300
3300
0000
F380
F7C0
6180
6180
6180
6180
7380
7F80
1980
0180
07C0
07C0
ENDCHAR
STARTCHAR uni04F5
ENCODING 1269
SWIDTH 600 0
DWIDTH 12 0
BBX 10 12 1 0
BITMAP
3300
3300
0000
F3C0
F3C0
6180
6180
6380
3F80
1D80
03C0
03C0
ENDCHAR
STARTCHAR uni04f6
ENCODING 1270
SWIDTH 600 0
DWIDTH 12 0
BBX 10 15 1 -3
BITMAP
FFC0
FFC0
60C0
60C0
6040
6000
6000
6000
6000
6000
FC00
FE00
0600
0600
0400
ENDCHAR
STARTCHAR uni04f7
ENCODING 1271
SWIDTH 600 0
DWIDTH 12 0
BBX 8 12 2 -3
BITMAP
FF
FF
63
63
60
60
60
F0
F0
30
30
10
ENDCHAR
STARTCHAR uni04F8
ENCODING 1272
SWIDTH 600 0
DWIDTH 12 0
BBX 12 15 0 0
BITMAP
1980
1980
0000
F0F0
F8F0
6060
6060
7860
7E60
6760
6360
6360
6360
FFF0
FCF0
ENDCHAR
STARTCHAR uni04F9
ENCODING 1273
SWIDTH 600 0
DWIDTH 12 0
BBX 12 12 0 0
BITMAP
1980
1980
0000
F070
F0F0
6060
7C60
7E60
6760
6360
FFF0
FEF0
ENDCHAR
STARTCHAR uni0510
ENCODING 1296
SWIDTH 600 0
DWIDTH 12 0
BBX 10 12 1 0
BITMAP
1E80
7F80
6180
6180
6000
7E00
7F00
E000
C0C0
E1C0
7FC0
3FC0
ENDCHAR
STARTCHAR uni0511
ENCODING 1297
SWIDTH 600 0
DWIDTH 12 0
BBX 10 9 1 0
BITMAP
1F80
7F80
6180
7E00
3E00
7000
E0C0
7FC0
3F80
ENDCHAR
STARTCHAR uni0512
ENCODING 1298
SWIDTH 600 0
DWIDTH 12 0
BBX 11 15 0 -3
BITMAP
0FE0
1FE0
0CC0
0CC0
0CC0
0CC0
0CC0
0CC0
CCC0
CCC0
FCC0
78C0
00C0
03C0
0380
ENDCHAR
STARTCHAR uni0513
ENCODING 1299
SWIDTH 600 0
DWIDTH 12 0
BBX 12 12 0 -3
BITMAP
1FE0
3FF0
0CC0
0CC0
0CC0
CCC0
CCC0
FCC0
78C0
00C0
03C0
0380
ENDCHAR
STARTCHAR uni051a
ENCODING 1306
SWIDTH 600 0
DWIDTH 12 0
BBX 12 15 0 -3
BITMAP
0F00
3FC0
30C0
6060
6060
C030
C030
6060
6060
70E0
3FC0
1F80
1820
3FF0
19C0
ENDCHAR
STARTCHAR uni051b
ENCODING 1307
SWIDTH 600 0
DWIDTH 12 0
BBX 12 13 0 -4
BITMAP
1EF0
3FF0
61C0
60C0
C0C0
60C0
71C0
3FC0
1EC0
00C0
00C0
03F0
03F0
ENDCHAR
STARTCHAR uni051c
ENCODING 1308
SWIDTH 600 0
DWIDTH 12 0
BBX 12 12 0 0
BITMAP
F9F0
F9F0
6060
6660
6760
6F60
6F60
6FE0
39C0
39C0
39C0
30C0
ENDCHAR
STARTCHAR uni051d
ENCODING 1309
SWIDTH 600 0
DWIDTH 12 0
BBX 12 9 0 0
BITMAP
F0F0
F0F0
6660
7660
3FC0
3FC0
3FC0
39C0
1980
ENDCHAR
STARTCHAR uni051e
ENCODING 1310
SWIDTH 600 0
DWIDTH 12 0
BBX 12 12 0 0
BITMAP
79E0
FDE0
37C0
3380
3780
3E00
3F00
3380
3180
31C0
FCF0
FCF0
ENDCHAR
STARTCHAR uni051f
ENCODING 1311
SWIDTH 600 0
DWIDTH 12 0
BBX 10 9 1 0
BITMAP
F7C0
F7C0
3700
3F00
3900
3C00
3E00
F7C0
F7C0
ENDCHAR
STARTCHAR afii57799
ENCODING 1456
SWIDTH 0 0
DWIDTH 0 0
BBX 2 3 5 -4
BITMAP
C0
00
C0
ENDCHAR
STARTCHAR afii57801
ENCODING 1457
SWIDTH 0 0
DWIDTH 0 0
BBX 6 3 3 -4
BITMAP
B4
00
44
ENDCHAR
STARTCHAR afii57800
ENCODING 1458
SWIDTH 0 0
DWIDTH 0 0
BBX 6 3 3 -4
BITMAP
E4
00
04
ENDCHAR
STARTCHAR afii57802
ENCODING 1459
SWIDTH 0 0
DWIDTH 0 0
BBX 6 3 3 -4
BITMAP
E4
40
44
ENDCHAR
STARTCHAR hiriqhebrew
ENCODING 1460
SWIDTH 0 0
DWIDTH 0 0
BBX 2 1 5 -2
BITMAP
C0
ENDCHAR
STARTCHAR tserehebrew
ENCODING 1461
SWIDTH 0 0
DWIDTH 0 0
BBX 4 1 4 -2
BITMAP
90
ENDCHAR
STARTCHAR segolhebrew
ENCODING 1462
SWIDTH 0 0
DWIDTH 0 0
BBX 4 3 4 -4
BITMAP
90
00
60
ENDCHAR
STARTCHAR patahhebrew
ENCODING 1463
SWIDTH 0 0
DWIDTH 0 0
BBX 4 1 4 -2
BITMAP
F0
ENDCHAR
STARTCHAR qamatshebrew
ENCODING 1464
SWIDTH 0 0
DWIDTH 0 0
BBX 4 3 4 -4
BITMAP
F0
40
40
ENDCHAR
STARTCHAR holamhebrew
ENCODING 1465
SWIDTH 0 0
DWIDTH 0 0
BBX 2 1 5 11
BITMAP
C0
ENDCHAR
STARTCHAR afii57796
ENCODING 1467
SWIDTH 0 0
DWIDTH 0 0
BBX 6 3 3 -4
BITMAP
80
30
04
ENDCHAR
STARTCHAR dageshhebrew
ENCODING 1468
SWIDTH 0 0
DWIDTH 0 0
BBX 2 1 5 4
BITMAP
C0
ENDCHAR
STARTCHAR afii57839
ENCODING 1469
SWIDTH 0 0
DWIDTH 0 0
BBX 1 3 6 -4
BITMAP
80
80
80
ENDCHAR
STARTCHAR afii57645
ENCODING 1470
SWIDTH 600 0
DWIDTH 12 0
BBX 10 2 1 8
BITMAP
7F80
FFC0
ENDCHAR
STARTCHAR rafehebrew
ENCODING 1471
SWIDTH 0 0
DWIDTH 0 0
BBX 4 1 4 11
BITMAP
F0
ENDCHAR
STARTCHAR afii57842
ENCODING 1472
SWIDTH 600 0
DWIDTH 12 0
BBX 2 15 5 -3
BITMAP
C0
C0
C0
C0
C0
C0
C0
C0
C0
C0
C0
C0
C0
C0
C0
ENDCHAR
STARTCHAR shindothebrew
ENCODING 1473
SWIDTH 0 0
DWIDTH 0 0
BBX 1 1 10 11
BITMAP
80
ENDCHAR
STARTCHAR sindothebrew
ENCODING 1474
SWIDTH 0 0
DWIDTH 0 0
BBX 1 1 1 11
BITMAP
80
ENDCHAR
STARTCHAR sofpasuqhebrew
ENCODING 1475
SWIDTH 600 0
DWIDTH 12 0
BBX 2 9 5 0
BITMAP
C0
C0
C0
00
00
00
00
C0
C0
ENDCHAR
STARTCHAR upperdothebrew
ENCODING 1476
SWIDTH 0 0
DWIDTH 0 0
BBX 1 1 5 11
BITMAP
80
ENDCHAR
STARTCHAR alefhebrew
ENCODING 1488
SWIDTH 600 0
DWIDTH 12 0
BBX 10 10 1 0
BITMAP
41C0
E1C0
70C0
38C0
7CC0
EF80
C700
C380
E1C0
E0C0
ENDCHAR
STARTCHAR bethebrew
ENCODING 1489
SWIDTH 600 0
DWIDTH 12 0
BBX 10 10 1 0
BITMAP
7800
FE00
0700
0300
0300
0300
0300
0300
FFC0
FFC0
ENDCHAR
STARTCHAR gimelhebrew
ENCODING 1490
SWIDTH 600 0
DWIDTH 12 0
BBX 6 10 3 0
BITMAP
60
F8
1C
0C
0C
0C
7C
FC
CC
84
ENDCHAR
STARTCHAR dalethebrew
ENCODING 1491
SWIDTH 600 0
DWIDTH 12 0
BBX 10 10 1 0
BITMAP
7F80
FFC0
0300
0300
0300
0300
0300
0300
0300
0300
ENDCHAR
STARTCHAR hehebrew
ENCODING 1492
SWIDTH 600 0
DWIDTH 12 0
BBX 10 10 1 0
BITMAP
7E00
FF80
01C0
00C0
00C0
60C0
60C0
60C0
60C0
60C0
ENDCHAR
STARTCHAR vavhebrew
ENCODING 1493
SWIDTH 600 0
DWIDTH 12 0
BBX 5 10 3 0
BITMAP
78
F8
18
18
18
18
18
18
18
10
ENDCHAR
STARTCHAR zayinhebrew
ENCODING 1494
SWIDTH 600 0
DWIDTH 12 0
BBX 8 10 2 0
BITMAP
7E
FF
18
18
18
18
18
18
18
18
ENDCHAR
STARTCHAR hethebrew
ENCODING 1495
SWIDTH 600 0
DWIDTH 12 0
BBX 10 10 1 0
BITMAP
7E00
FF80
71C0
60C0
60C0
60C0
60C0
60C0
60C0
60C0
ENDCHAR
STARTCHAR tethebrew
ENCODING 1496
SWIDTH 600 0
DWIDTH 12 0
BBX 9 10 1 0
BITMAP
E380
E380
6780
6D80
6D80
6180
6180
6180
3F80
1F00
ENDCHAR
STARTCHAR yodhebrew
ENCODING 1497
SWIDTH 600 0
DWIDTH 12 0
BBX 4 6 3 4
BITMAP
F0
F0
30
30
30
30
ENDCHAR
STARTCHAR finalkafhebrew
ENCODING 1498
SWIDTH 600 0
DWIDTH 12 0
BBX 9 14 1 -4
BITMAP
7E00
FF00
0380
0180
0180
0180
0180
0180
0180
0180
0180
0180
0180
0180
ENDCHAR
STARTCHAR kafhebrew
ENCODING 1499
SWIDTH 600 0
DWIDTH 12 0
BBX 9 10 1 0
BITMAP
7C00
FF00
0380
0180
0180
0180
0180
0180
FF80
FF00
ENDCHAR
STARTCHAR lamedhebrew
ENCODING 1500
SWIDTH 600 0
DWIDTH 12 0
BBX 10 13 1 0
BITMAP
4000
C000
C000
FFC0
FFC0
00C0
00C0
01C0
0380
0700
0E00
1C00
0800
ENDCHAR
STARTCHAR finalmemhebrew
ENCODING 1501
SWIDTH 600 0
DWIDTH 12 0
BBX 10 10 1 0
BITMAP
7E00
FF80
3180
60C0
60C0
60C0
60C0
60C0
7FC0
7FC0
ENDCHAR
STARTCHAR memhebrew
ENCODING 1502
SWIDTH 600 0
DWIDTH 12 0
BBX 10 10 1 0
BITMAP
E600
EF80
7DC0
78C0
70C0
60C0
60C0
60C0
67C0
67C0
ENDCHAR
STARTCHAR finalnunhebrew
ENCODING 1503
SWIDTH 600 0
DWIDTH 12 0
BBX 5 14 3 -4
BITMAP
78
F8
18
18
18
18
18
18
18
18
18
18
18
10
ENDCHAR
STARTCHAR nunhebrew
ENCODING 1504
SWIDTH 600 0
DWIDTH 12 0
BBX 6 10 3 0
BITMAP
60
78
1C
0C
0C
0C
0C
0C
FC
FC
ENDCHAR
STARTCHAR samekhhebrew
ENCODING 1505
SWIDTH 600 0
DWIDTH 12 0
BBX 10 10 1 0
BITMAP
7E00
FF80
39C0
70C0
60C0
60C0
61C0
6380
7F00
3E00
ENDCHAR
STARTCHAR ayinhebrew
ENCODING 1506
SWIDTH 600 0
DWIDTH 12 0
BBX 10 10 1 0
BITMAP
73C0
F3C0
30C0
30C0
1980
1980
1980
1980
FF80
FF00
ENDCHAR
STARTCHAR finalpehebrew
ENCODING 1507
SWIDTH 600 0
DWIDTH 12 0
BBX 10 14 1 -4
BITMAP
7E00
FF80
39C0
70C0
60C0
78C0
78C0
00C0
00C0
00C0
00C0
00C0
00C0
00C0
ENDCHAR
STARTCHAR pehebrew
ENCODING 1508
SWIDTH 600 0
DWIDTH 12 0
BBX 10 10 1 0
BITMAP
7E00
FF80
39C0
70C0
78C0
78C0
00C0
00C0
FF80
FF00
ENDCHAR
STARTCHAR finaltsadihebrew
ENCODING 1509
SWIDTH 600 0
DWIDTH 12 0
BBX 10 14 1 -4
BITMAP
73C0
F3C0
30C0
33C0
1F00
1E00
0C00
0C00
0C00
0C00
0C00
0C00
0C00
0C00
ENDCHAR
STARTCHAR tsadihebrew
ENCODING 1510
SWIDTH 600 0
DWIDTH 12 0
BBX 10 10 1 0
BITMAP
73C0
F3C0
30C0
3BC0
1F00
0E00
0700
03C0
FFC0
FFC0
ENDCHAR
STARTCHAR qofhebrew
ENCODING 1511
SWIDTH 600 0
DWIDTH 12 0
BBX 10 14 1 -4
BITMAP
7FC0
FFC0
00C0
00C0
00C0
60C0
6180
6380
6700
6600
6000
6000
6000
6000
ENDCHAR
STARTCHAR reshhebrew
ENCODING 1512
SWIDTH 600 0
DWIDTH 12 0
BBX 10 10 1 0
BITMAP
7E00
FF80
01C0
00C0
00C0
00C0
00C0
00C0
00C0
00C0
ENDCHAR
STARTCHAR shinhebrew
ENCODING 1513
SWIDTH 600 0
DWIDTH 12 0
BBX 10 10 1 0
BITMAP
CCC0
EFC0
CCC0
CCC0
CCC0
CCC0
CCC0
D980
FF80
FF00
ENDCHAR
STARTCHAR tavhebrew
ENCODING 1514
SWIDTH 600 0
DWIDTH 12 0
BBX 10 10 1 0
BITMAP
7E00
FF80
31C0
30C0
30C0
30C0
30C0
30C0
F0C0
E0C0
ENDCHAR
STARTCHAR vavvavhebrew
ENCODING 1520
SWIDTH 600 0
DWIDTH 12 0
BBX 10 10 1 0
BITMAP
F3C0
F7C0
30C0
30C0
30C0
30C0
30C0
30C0
30C0
30C0
ENDCHAR
STARTCHAR vavyodhebrew
ENCODING 1521
SWIDTH 600 0
DWIDTH 12 0
BBX 10 10 1 0
BITMAP
F3C0
F7C0
30C0
30C0
30C0
30C0
00C0
00C0
00C0
00C0
ENDCHAR
STARTCHAR yodyodhebrew
ENCODING 1522
SWIDTH 600 0
DWIDTH 12 0
BBX 10 6 1 4
BITMAP
F3C0
F7C0
30C0
30C0
30C0
30C0
ENDCHAR
STARTCHAR gereshhebrew
ENCODING 1523
SWIDTH 600 0
DWIDTH 12 0
BBX 3 6 5 6
BITMAP
E0
C0
C0
C0
80
80
ENDCHAR
STARTCHAR gershayimhebrew
ENCODING 1524
SWIDTH 600 0
DWIDTH 12 0
BBX 7 6 3 6
BITMAP
EE
CE
CC
CC
8C
88
ENDCHAR
STARTCHAR uni10D0
ENCODING 4304
SWIDTH 600 0
DWIDTH 12 0
BBX 8 8 2 2
BITMAP
10
18
0E
42
C3
C3
66
3C
ENDCHAR
STARTCHAR uni10D1
ENCODING 4305
SWIDTH 600 0
DWIDTH 12 0
BBX 8 11 2 2
BITMAP
70
48
48
08
18
64
42
C3
C3
66
3C
ENDCHAR
STARTCHAR uni10D2
ENCODING 4306
SWIDTH 600 0
DWIDTH 12 0
BBX 8 12 2 -3
BITMAP
20
78
C8
C8
08
3C
66
C3
81
C3
66
3C
ENDCHAR
STARTCHAR uni10D3
ENCODING 4307
SWIDTH 600 0
DWIDTH 12 0
BBX 8 12 2 -3
BITMAP
24
FF
91
91
91
91
CE
F0
1C
06
02
01
ENDCHAR
STARTCHAR uni10D4
ENCODING 4308
SWIDTH 600 0
DWIDTH 12 0
BBX 8 12 2 -3
BITMAP
08
3E
43
41
61
01
61
C1
81
C3
66
3C
ENDCHAR
STARTCHAR uni10D5
ENCODING 4309
SWIDTH 600 0
DWIDTH 12 0
BBX 8 12 2 -3
BITMAP
08
3E
43
41
62
0E
42
43
83
C3
62
3C
ENDCHAR
STARTCHAR uni10D6
ENCODING 4310
SWIDTH 600 0
DWIDTH 12 0
BBX 8 12 2 2
BITMAP
70
90
98
98
F2
7C
1E
31
21
21
33
1E
ENDCHAR
STARTCHAR uni10D7
ENCODING 4311
SWIDTH 600 0
DWIDTH 12 0
BBX 8 7 2 2
BITMAP
24
FF
89
89
89
D9
72
ENDCHAR
STARTCHAR uni10D8
ENCODING 4312
SWIDTH 600 0
DWIDTH 12 0
BBX 8 7 2 2
BITMAP
18
7E
42
C3
C3
42
66
ENDCHAR
STARTCHAR uni10D9
ENCODING 4313
SWIDTH 600 0
DWIDTH 12 0
BBX 8 12 2 -3
BITMAP
02
02
01
03
06
1E
42
C1
81
C3
66
3C
ENDCHAR
STARTCHAR uni10DA
ENCODING 4314
SWIDTH 600 0
DWIDTH 12 0
BBX 8 12 2 -3
BITMAP
5A
FF
A5
A5
A5
81
C0
60
F8
06
03
01
ENDCHAR
STARTCHAR uni10DB
ENCODING 4315
SWIDTH 600 0
DWIDTH 12 0
BBX 8 12 2 2
BITMAP
3C
66
C3
C3
43
0B
3F
63
43
43
26
1C
ENDCHAR
STARTCHAR uni10DC
ENCODING 4316
SWIDTH 600 0
DWIDTH 12 0
BBX 8 12 2 2
BITMAP
03
7E
C0
80
80
90
FC
C6
82
C6
44
38
ENDCHAR
STARTCHAR uni10DD
ENCODING 4317
SWIDTH 600 0
DWIDTH 12 0
BBX 8 7 2 2
BITMAP
24
FF
99
99
99
81
42
ENDCHAR
STARTCHAR uni10DE
ENCODING 4318
SWIDTH 600 0
DWIDTH 12 0
BBX 8 12 2 2
BITMAP
20
30
1C
02
02
06
1E
42
81
C3
66
3C
ENDCHAR
STARTCHAR uni10DF
ENCODING 4319
SWIDTH 600 0
DWIDTH 12 0
BBX 8 12 2 -3
BITMAP
01
1F
0D
89
49
71
41
C1
81
C3
66
3C
ENDCHAR
STARTCHAR uni10E0
ENCODING 4320
SWIDTH 600 0
DWIDTH 12 0
BBX 8 12 2 2
BITMAP
02
02
06
1C
30
64
FF
99
99
99
81
42
ENDCHAR
STARTCHAR uni10E1
ENCODING 4321
SWIDTH 600 0
DWIDTH 12 0
BBX 8 12 2 2
BITMAP
C0
C0
C0
C0
C6
C4
C6
C2
C3
42
66
3C
ENDCHAR
STARTCHAR uni10E2
ENCODING 4322
SWIDTH 600 0
DWIDTH 12 0
BBX 8 14 2 -3
BITMAP
3C
24
3C
7E
E7
BD
81
81
81
81
81
81
42
3C
ENDCHAR
STARTCHAR uni10E3
ENCODING 4323
SWIDTH 600 0
DWIDTH 12 0
BBX 8 12 2 -3
BITMAP
12
BF
A9
E9
09
01
21
61
41
41
23
1E
ENDCHAR
STARTCHAR uni10E4
ENCODING 4324
SWIDTH 600 0
DWIDTH 12 0
BBX 9 12 2 -3
BITMAP
2200
FF00
8900
8980
8900
8B00
7700
6100
4180
4100
2300
1E00
ENDCHAR
STARTCHAR uni10E5
ENCODING 4325
SWIDTH 600 0
DWIDTH 12 0
BBX 8 17 2 -3
BITMAP
03
0F
09
01
01
01
1F
31
21
31
01
61
C1
81
C3
66
3C
ENDCHAR
STARTCHAR uni10E6
ENCODING 4326
SWIDTH 600 0
DWIDTH 12 0
BBX 8 12 2 -3
BITMAP
66
FF
99
99
99
99
C2
E0
B8
06
02
01
ENDCHAR
STARTCHAR uni10E7
ENCODING 4327
SWIDTH 600 0
DWIDTH 12 0
BBX 8 12 2 -3
BITMAP
20
21
41
43
27
19
61
C1
81
C3
66
3C
ENDCHAR
STARTCHAR uni10E8
ENCODING 4328
SWIDTH 600 0
DWIDTH 12 0
BBX 8 12 2 2
BITMAP
76
99
89
89
81
01
3F
61
41
41
23
1E
ENDCHAR
STARTCHAR uni10E9
ENCODING 4329
SWIDTH 600 0
DWIDTH 12 0
BBX 8 12 2 2
BITMAP
38
6C
44
CC
F8
C0
FC
C2
C3
C3
C2
C2
ENDCHAR
STARTCHAR uni10EA
ENCODING 4330
SWIDTH 600 0
DWIDTH 12 0
BBX 8 12 2 -3
BITMAP
0C
4C
C7
81
81
87
81
81
81
81
66
3C
ENDCHAR
STARTCHAR uni10EB
ENCODING 4331
SWIDTH 600 0
DWIDTH 12 0
BBX 8 12 2 2
BITMAP
03
03
03
03
03
1B
7F
43
C3
C3
66
3C
ENDCHAR
STARTCHAR uni10EC
ENCODING 4332
SWIDTH 600 0
DWIDTH 12 0
BBX 8 17 2 -3
BITMAP
7E
9B
99
9B
42
40
7E
7E
26
24
24
24
18
18
18
18
10
ENDCHAR
STARTCHAR uni10ED
ENCODING 4333
SWIDTH 600 0
DWIDTH 12 0
BBX 8 16 2 -3
BITMAP
70
7C
44
05
06
76
8C
CE
77
05
64
C2
81
83
C6
3C
ENDCHAR
STARTCHAR uni10EE
ENCODING 4334
SWIDTH 600 0
DWIDTH 12 0
BBX 8 12 2 2
BITMAP
C0
C0
C0
C8
D0
F8
FE
C2
C3
C3
66
3C
ENDCHAR
STARTCHAR uni10EF
ENCODING 4335
SWIDTH 600 0
DWIDTH 12 0
BBX 9 12 2 -3
BITMAP
4600
F780
9180
D300
1C00
1800
3800
6D00
7580
1700
9200
E000
ENDCHAR
STARTCHAR uni10F0
ENCODING 4336
SWIDTH 600 0
DWIDTH 12 0
BBX 8 12 2 2
BITMAP
20
3C
0E
03
0E
03
03
4E
42
C3
42
3C
ENDCHAR
STARTCHAR uni10F1
ENCODING 4337
SWIDTH 600 0
DWIDTH 12 0
BBX 10 12 1 2
BITMAP
0B00
1DC0
2440
2DC0
78C0
7040
C180
6080
2080
3080
1980
0F00
ENDCHAR
STARTCHAR uni10F2
ENCODING 4338
SWIDTH 600 0
DWIDTH 12 0
BBX 6 7 3 2
BITMAP
78
48
CC
CC
48
78
CC
ENDCHAR
STARTCHAR uni10F3
ENCODING 4339
SWIDTH 600 0
DWIDTH 12 0
BBX 8 12 2 -3
BITMAP
C2
7F
03
02
1C
1E
02
01
01
02
0E
78
ENDCHAR
STARTCHAR uni10F4
ENCODING 4340
SWIDTH 600 0
DWIDTH 12 0
BBX 6 15 3 -3
BITMAP
38
20
60
30
1C
04
04
04
38
C4
84
84
84
CC
30
ENDCHAR
STARTCHAR uni10F5
ENCODING 4341
SWIDTH 600 0
DWIDTH 12 0
BBX 8 12 2 2
BITMAP
38
44
C4
44
7F
1F
7F
84
84
84
CC
78
ENDCHAR
STARTCHAR uni10f9
ENCODING 4345
SWIDTH 600 0
DWIDTH 12 0
BBX 8 12 2 -4
BITMAP
3C
66
C3
81
C3
66
3C
10
13
13
1E
04
ENDCHAR
STARTCHAR uni10fb
ENCODING 4347
SWIDTH 600 0
DWIDTH 12 0
BBX 8 12 2 0
BITMAP
C0
C0
00
00
02
03
03
00
00
00
C0
C0
ENDCHAR
STARTCHAR uni10fc
ENCODING 4348
SWIDTH 600 0
DWIDTH 12 0
BBX 5 9 4 4
BITMAP
08
F8
80
80
80
F0
88
88
F0
ENDCHAR
STARTCHAR uni1E00
ENCODING 7680
SWIDTH 600 0
DWIDTH 12 0
BBX 12 16 0 -4
BITMAP
3E00
7F00
0F00
0F00
1980
1980
39C0
3FC0
3FC0
6060
F9F0
F9F0
0600
0F00
0B00
0600
ENDCHAR
STARTCHAR uni1E01
ENCODING 7681
SWIDTH 600 0
DWIDTH 12 0
BBX 10 13 1 -4
BITMAP
3E00
7F00
0180
1F80
7F80
E180
C380
FFC0
7FC0
0800
1C00
3400
1C00
ENDCHAR
STARTCHAR uni1E02
ENCODING 7682
SWIDTH 600 0
DWIDTH 12 0
BBX 11 15 0 0
BITMAP
0600
0600
0000
7F00
FFC0
30C0
3060
30C0
3FC0
3FC0
30E0
3060
3060
FFE0
FFC0
ENDCHAR
STARTCHAR uni1E03
ENCODING 7683
SWIDTH 600 0
DWIDTH 12 0
BBX 11 15 0 0
BITMAP
0600
0600
0000
E000
6000
6000
6F80
7FC0
78E0
7060
6060
7060
7060
FFC0
EF80
ENDCHAR
STARTCHAR uni1E04
ENCODING 7684
SWIDTH 600 0
DWIDTH 12 0
BBX 11 15 0 -3
BITMAP
7F00
FFC0
30C0
3060
30C0
3FC0
3FC0
30E0
3060
3060
FFE0
FFC0
0000
0600
0600
ENDCHAR
STARTCHAR uni1E05
ENCODING 7685
SWIDTH 600 0
DWIDTH 12 0
BBX 11 15 0 -3
BITMAP
E000
6000
6000
6F80
7FC0
78E0
7060
6060
7060
7060
FFC0
EF80
0000
0200
0700
ENDCHAR
STARTCHAR uni1E06
ENCODING 7686
SWIDTH 600 0
DWIDTH 12 0
BBX 11 15 0 -3
BITMAP
7F00
FFC0
30C0
3060
30C0
3FC0
3FC0
30E0
3060
3060
FFE0
FFC0
0000
3F80
3F80
ENDCHAR
STARTCHAR uni1E07
ENCODING 7687
SWIDTH 600 0
DWIDTH 12 0
BBX 11 15 0 -3
BITMAP
E000
6000
6000
6F80
7FC0
78E0
7060
6060
7060
7060
FFC0
EF80
0000
3F80
3F80
ENDCHAR
STARTCHAR uni1E08
ENCODING 7688
SWIDTH 600 0
DWIDTH 12 0
BBX 10 20 1 -4
BITMAP
0300
0600
0C00
0000
1EC0
7FC0
61C0
C0C0
C0C0
C000
C000
C000
C000
E0C0
7FC0
3F80
0C00
0600
1A00
1E00
ENDCHAR
STARTCHAR uni1E09
ENCODING 7689
SWIDTH 600 0
DWIDTH 12 0
BBX 10 17 1 -4
BITMAP
0300
0600
0C00
0000
1FC0
7FC0
61C0
C0C0
C000
C000
E040
7FC0
3F80
0C00
0600
1A00
1E00
ENDCHAR
STARTCHAR uni1E0A
ENCODING 7690
SWIDTH 600 0
DWIDTH 12 0
BBX 11 15 0 0
BITMAP
0600
0600
0000
7E00
FF80
61C0
60E0
6060
6060
6060
6060
6060
60C0
FFC0
FF00
ENDCHAR
STARTCHAR uni1E0B
ENCODING 7691
SWIDTH 600 0
DWIDTH 12 0
BBX 11 15 1 0
BITMAP
0C00
0C00
0000
03C0
01C0
00C0
3EC0
7FC0
E1C0
C1C0
C0C0
C1C0
C1C0
7FE0
3EE0
ENDCHAR
STARTCHAR uni1E0C
ENCODING 7692
SWIDTH 600 0
DWIDTH 12 0
BBX 11 15 0 -3
BITMAP
7E00
FF80
61C0
60E0
6060
6060
6060
6060
6060
60C0
FFC0
FF00
0000
0C00
0C00
ENDCHAR
STARTCHAR uni1E0D
ENCODING 7693
SWIDTH 600 0
DWIDTH 12 0
BBX 11 15 1 -3
BITMAP
03C0
01C0
00C0
3EC0
7FC0
E1C0
C1C0
C0C0
C1C0
C1C0
7FE0
3EE0
0000
0C00
1C00
ENDCHAR
STARTCHAR uni1E0E
ENCODING 7694
SWIDTH 600 0
DWIDTH 12 0
BBX 11 15 0 -3
BITMAP
7E00
FF80
61C0
60E0
6060
6060
6060
6060
6060
60C0
FFC0
FF00
0000
3F80
3F80
ENDCHAR
STARTCHAR uni1E0F
ENCODING 7695
SWIDTH 600 0
DWIDTH 12 0
BBX 11 15 1 -3
BITMAP
03C0
01C0
00C0
3EC0
7FC0
E1C0
C1C0
C0C0
C1C0
C1C0
7FE0
3EE0
0000
7F00
7F00
ENDCHAR
STARTCHAR uni1E10
ENCODING 7696
SWIDTH 600 0
DWIDTH 12 0
BBX 11 16 0 -4
BITMAP
7E00
FF80
61C0
60E0
6060
6060
6060
6060
6060
60C0
FFC0
FF00
0C00
0600
1600
1C00
ENDCHAR
STARTCHAR uni1E11
ENCODING 7697
SWIDTH 600 0
DWIDTH 12 0
BBX 11 16 1 -4
BITMAP
03C0
01C0
00C0
3EC0
7FC0
E1C0
C1C0
C0C0
C1C0
C1C0
7FE0
3EE0
0C00
0600
3600
1C00
ENDCHAR
STARTCHAR uni1E12
ENCODING 7698
SWIDTH 600 0
DWIDTH 12 0
BBX 11 16 0 -4
BITMAP
7E00
FF80
61C0
60E0
6060
6060
6060
6060
6060
60C0
FFC0
FF00
0000
0C00
3F00
6100
ENDCHAR
STARTCHAR uni1E13
ENCODING 7699
SWIDTH 600 0
DWIDTH 12 0
BBX 11 16 1 -4
BITMAP
03C0
01C0
00C0
3EC0
7FC0
E1C0
C1C0
C0C0
C1C0
C1C0
7FE0
3EE0
0000
0600
1F80
10C0
ENDCHAR
STARTCHAR uni1E14
ENCODING 7700
SWIDTH 600 0
DWIDTH 12 0
BBX 11 16 0 0
BITMAP
0800
0C00
0600
0000
1FC0
0000
FFE0
FFE0
3060
3240
3F00
3F00
3260
3060
7FE0
FFE0
ENDCHAR
STARTCHAR uni1E15
ENCODING 7701
SWIDTH 600 0
DWIDTH 12 0
BBX 10 16 1 0
BITMAP
3000
1800
0C00
0000
3F00
3F00
0000
3E00
7F80
E180
C0C0
FFC0
FFC0
C000
7FC0
3F80
ENDCHAR
STARTCHAR uni1E16
ENCODING 7702
SWIDTH 600 0
DWIDTH 12 0
BBX 11 16 0 0
BITMAP
0180
0300
0600
0000
1FC0
0000
FFE0
FFE0
3060
3240
3F00
3F00
3260
3060
7FE0
FFE0
ENDCHAR
STARTCHAR uni1E17
ENCODING 7703
SWIDTH 600 0
DWIDTH 12 0
BBX 10 16 1 0
BITMAP
0300
0600
0C00
0000
3F00
3F00
0000
3E00
7F80
E180
C0C0
FFC0
FFC0
C000
7FC0
3F80
ENDCHAR
STARTCHAR uni1E18
ENCODING 7704
SWIDTH 600 0
DWIDTH 12 0
BBX 11 16 0 -4
BITMAP
7FE0
FFE0
3060
3060
3340
3F00
3F00
3300
3260
3060
FFE0
FFE0
0000
0700
1F80
10C0
ENDCHAR
STARTCHAR uni1E19
ENCODING 7705
SWIDTH 600 0
DWIDTH 12 0
BBX 10 13 1 -4
BITMAP
3E00
7F80
E180
C0C0
FFC0
FFC0
C000
7FC0
3F80
0000
0C00
3F00
6100
ENDCHAR
STARTCHAR uni1E1A
ENCODING 7706
SWIDTH 600 0
DWIDTH 12 0
BBX 11 15 0 -3
BITMAP
7FE0
FFE0
3060
3060
3340
3F00
3F00
3300
3260
3060
FFE0
FFE0
0000
1EC0
1780
ENDCHAR
STARTCHAR uni1E1B
ENCODING 7707
SWIDTH 600 0
DWIDTH 12 0
BBX 10 13 1 -4
BITMAP
3E00
7F80
E180
C0C0
FFC0
FFC0
C000
7FC0
3F80
0000
3180
7F00
0200
ENDCHAR
STARTCHAR uni1E1C
ENCODING 7708
SWIDTH 600 0
DWIDTH 12 0
BBX 11 20 0 -4
BITMAP
10C0
1980
0F00
0000
7FE0
FFE0
3060
3060
3340
3F00
3F00
3300
3260
3060
FFE0
FFE0
0300
0100
0D00
0F00
ENDCHAR
STARTCHAR uni1E1D
ENCODING 7709
SWIDTH 600 0
DWIDTH 12 0
BBX 10 17 1 -4
BITMAP
6100
6300
3E00
0000
3E00
7F80
E180
C0C0
FFC0
FFC0
C000
7FC0
3F80
0C00
0600
1600
1C00
ENDCHAR
STARTCHAR uni1E1E
ENCODING 7710
SWIDTH 600 0
DWIDTH 12 0
BBX 11 15 0 0
BITMAP
0600
0600
0000
7FE0
FFE0
3060
3060
3360
3F00
3F00
3300
3200
3000
FE00
FE00
ENDCHAR
STARTCHAR uni1E1F
ENCODING 7711
SWIDTH 600 0
DWIDTH 12 0
BBX 9 15 2 0
BITMAP
0C00
0C00
0000
1F80
3F80
3000
FF00
FF00
3000
3000
3000
3000
3000
FF00
FF00
ENDCHAR
STARTCHAR uni1E20
ENCODING 7712
SWIDTH 600 0
DWIDTH 12 0
BBX 11 15 1 0
BITMAP
3F80
3F80
0000
1FC0
7FC0
61C0
C0C0
C000
C000
C7C0
C7E0
C0C0
E0C0
7FC0
3F80
ENDCHAR
STARTCHAR uni1E21
ENCODING 7713
SWIDTH 600 0
DWIDTH 12 0
BBX 11 16 1 -4
BITMAP
3F00
3F00
0000
3DC0
7FE0
E380
C180
C180
C180
C380
7F80
3F80
0180
0180
3F80
3E00
ENDCHAR
STARTCHAR uni1E22
ENCODING 7714
SWIDTH 600 0
DWIDTH 12 0
BBX 11 15 1 0
BITMAP
0C00
0C00
0000
F3C0
FBC0
6180
6180
6180
7F80
7F80
6180
6180
6180
F3E0
F3E0
ENDCHAR
STARTCHAR uni1E23
ENCODING 7715
SWIDTH 600 0
DWIDTH 12 0
BBX 12 15 0 0
BITMAP
0600
0600
0000
F000
7000
3000
3780
3FC0
38C0
30C0
30C0
30C0
30C0
79F0
79F0
ENDCHAR
STARTCHAR uni1E24
ENCODING 7716
SWIDTH 600 0
DWIDTH 12 0
BBX 11 15 1 -3
BITMAP
F3C0
FBC0
6180
6180
6180
7F80
7F80
6180
6180
6180
F3E0
F3E0
0000
0C00
0C00
ENDCHAR
STARTCHAR uni1E25
ENCODING 7717
SWIDTH 600 0
DWIDTH 12 0
BBX 12 15 0 -3
BITMAP
F000
7000
3000
3780
3FC0
38C0
30C0
30C0
30C0
30C0
79F0
79F0
0000
0600
0600
ENDCHAR
STARTCHAR uni1E26
ENCODING 7718
SWIDTH 600 0
DWIDTH 12 0
BBX 11 15 1 0
BITMAP
3300
3300
0000
F3C0
FBC0
6180
6180
6180
7F80
7F80
6180
6180
6180
F3E0
F3E0
ENDCHAR
STARTCHAR uni1E27
ENCODING 7719
SWIDTH 600 0
DWIDTH 12 0
BBX 12 16 0 0
BITMAP
1180
1980
1980
0000
F000
7000
3000
3780
3FC0
38C0
30C0
30C0
30C0
30C0
79F0
79F0
ENDCHAR
STARTCHAR uni1E28
ENCODING 7720
SWIDTH 600 0
DWIDTH 12 0
BBX 11 16 1 -4
BITMAP
F3C0
FBC0
6180
6180
6180
7F80
7F80
6180
6180
6180
F3E0
F3E0
6000
3000
B000
E000
ENDCHAR
STARTCHAR uni1E29
ENCODING 7721
SWIDTH 600 0
DWIDTH 12 0
BBX 12 16 0 -4
BITMAP
F000
7000
3000
3780
3FC0
38C0
30C0
30C0
30C0
30C0
79F0
79F0
3000
1800
5800
7000
ENDCHAR
STARTCHAR uni1E2A
ENCODING 7722
SWIDTH 600 0
DWIDTH 12 0
BBX 11 16 1 -4
BITMAP
F3C0
FBC0
6180
6180
6180
7F80
7F80
6180
6180
6180
F3E0
F3E0
0000
2180
3300
1E00
ENDCHAR
STARTCHAR uni1E2B
ENCODING 7723
SWIDTH 600 0
DWIDTH 12 0
BBX 12 16 0 -4
BITMAP
F000
7000
3000
3780
3FC0
38C0
30C0
30C0
30C0
30C0
79F0
79F0
0000
10C0
1980
0F00
ENDCHAR
STARTCHAR uni1E2C
ENCODING 7724
SWIDTH 600 0
DWIDTH 12 0
BBX 8 15 2 -3
BITMAP
FF
FF
18
18
18
18
18
18
18
18
FF
FF
00
73
DE
ENDCHAR
STARTCHAR uni1E2D
ENCODING 7725
SWIDTH 600 0
DWIDTH 12 0
BBX 10 15 1 -3
BITMAP
1C00
1C00
0000
7C00
7C00
0C00
0C00
0C00
0C00
0C00
FFC0
FFC0
0000
3980
6F00
ENDCHAR
STARTCHAR uni1E2E
ENCODING 7726
SWIDTH 600 0
DWIDTH 12 0
BBX 8 16 2 0
BITMAP
06
0C
18
66
E7
00
FF
FF
18
18
18
18
18
18
FF
FF
ENDCHAR
STARTCHAR uni1E2F
ENCODING 7727
SWIDTH 600 0
DWIDTH 12 0
BBX 10 15 1 0
BITMAP
0300
0600
0400
3300
3300
0000
7C00
7C00
0C00
0C00
0C00
0C00
0C00
FFC0
FFC0
ENDCHAR
STARTCHAR uni1E30
ENCODING 7728
SWIDTH 600 0
DWIDTH 12 0
BBX 12 16 0 0
BITMAP
0180
0300
0600
0000
79E0
FDE0
31C0
3380
3700
3E00
3F00
3380
3180
31C0
FCF0
FCF0
ENDCHAR
STARTCHAR uni1E31
ENCODING 7729
SWIDTH 600 0
DWIDTH 12 0
BBX 10 16 1 0
BITMAP
0200
0600
0C00
0000
E000
E000
6000
6780
6780
6E00
7C00
7C00
7E00
6700
E3C0
E3C0
ENDCHAR
STARTCHAR uni1E32
ENCODING 7730
SWIDTH 600 0
DWIDTH 12 0
BBX 12 15 0 -3
BITMAP
79E0
FDE0
31C0
3380
3700
3E00
3F00
3380
3180
31C0
FCF0
FCF0
0000
0600
0600
ENDCHAR
STARTCHAR uni1E33
ENCODING 7731
SWIDTH 600 0
DWIDTH 12 0
BBX 10 15 1 -3
BITMAP
E000
E000
6000
6780
6780
6E00
7C00
7C00
7E00
6700
E3C0
E3C0
0000
0C00
0C00
ENDCHAR
STARTCHAR uni1E34
ENCODING 7732
SWIDTH 600 0
DWIDTH 12 0
BBX 12 15 0 -3
BITMAP
79E0
FDE0
31C0
3380
3700
3E00
3F00
3380
3180
31C0
FCF0
FCF0
0000
1F80
1FC0
ENDCHAR
STARTCHAR uni1E35
ENCODING 7733
SWIDTH 600 0
DWIDTH 12 0
BBX 10 15 1 -3
BITMAP
E000
E000
6000
6780
6780
6E00
7C00
7C00
7E00
6700
E3C0
E3C0
0000
3F00
7F00
ENDCHAR
STARTCHAR uni1E36
ENCODING 7734
SWIDTH 600 0
DWIDTH 12 0
BBX 10 15 1 -3
BITMAP
FC00
FE00
3000
3000
3000
3000
3000
3040
30C0
30C0
FFC0
FFC0
0000
0600
0600
ENDCHAR
STARTCHAR uni1E37
ENCODING 7735
SWIDTH 600 0
DWIDTH 12 0
BBX 10 15 1 -3
BITMAP
7C00
3C00
0C00
0C00
0C00
0C00
0C00
0C00
0C00
0C00
FFC0
FFC0
0000
0C00
0C00
ENDCHAR
STARTCHAR uni1E38
ENCODING 7736
SWIDTH 600 0
DWIDTH 12 0
BBX 10 18 1 -3
BITMAP
FE00
FE00
0000
FC00
FE00
3000
3000
3000
3000
3000
3040
30C0
30C0
FFC0
FFC0
0000
0600
0600
ENDCHAR
STARTCHAR uni1E39
ENCODING 7737
SWIDTH 600 0
DWIDTH 12 0
BBX 10 18 1 -3
BITMAP
7F00
7E00
0000
7C00
3C00
0C00
0C00
0C00
0C00
0C00
0C00
0C00
0C00
FFC0
FFC0
0000
0C00
0C00
ENDCHAR
STARTCHAR uni1E3A
ENCODING 7738
SWIDTH 600 0
DWIDTH 12 0
BBX 10 15 1 -3
BITMAP
FC00
FE00
3000
3000
3000
3000
3000
3040
30C0
30C0
FFC0
FFC0
0000
0000
3F80
ENDCHAR
STARTCHAR uni1E3B
ENCODING 7739
SWIDTH 600 0
DWIDTH 12 0
BBX 10 15 1 -3
BITMAP
7C00
3C00
0C00
0C00
0C00
0C00
0C00
0C00
0C00
0C00
FFC0
FFC0
0000
0000
3F80
ENDCHAR
STARTCHAR uni1E3C
ENCODING 7740
SWIDTH 600 0
DWIDTH 12 0
BBX 10 16 1 -4
BITMAP
FC00
FE00
3000
3000
3000
3000
3000
3040
30C0
30C0
FFC0
FFC0
0000
0E00
1F80
3080
ENDCHAR
STARTCHAR uni1E3D
ENCODING 7741
SWIDTH 600 0
DWIDTH 12 0
BBX 10 16 1 -4
BITMAP
7C00
3C00
0C00
0C00
0C00
0C00
0C00
0C00
0C00
0C00
FFC0
FFC0
0000
0C00
3F00
2100
ENDCHAR
STARTCHAR uni1E3E
ENCODING 7742
SWIDTH 600 0
DWIDTH 12 0
BBX 12 16 0 0
BITMAP
0100
0300
0600
0000
E070
F0F0
70E0
79E0
79E0
7FE0
6F60
6F60
6660
6060
F9F0
F9F0
ENDCHAR
STARTCHAR uni1E3F
ENCODING 7743
SWIDTH 600 0
DWIDTH 12 0
BBX 12 13 0 0
BITMAP
0080
0180
0300
0000
FDC0
FFE0
6660
6660
6660
6660
6660
F770
F770
ENDCHAR
STARTCHAR uni1E40
ENCODING 7744
SWIDTH 600 0
DWIDTH 12 0
BBX 12 15 0 0
BITMAP
0600
0600
0000
E070
F0F0
70E0
79E0
79E0
7FE0
6F60
6F60
6660
6060
F9F0
F9F0
ENDCHAR
STARTCHAR uni1E41
ENCODING 7745
SWIDTH 600 0
DWIDTH 12 0
BBX 12 13 0 0
BITMAP
0200
0700
0200
0000
FDC0
FFE0
6660
6660
6660
6660
6660
F770
F770
ENDCHAR
STARTCHAR uni1E42
ENCODING 7746
SWIDTH 600 0
DWIDTH 12 0
BBX 12 15 0 -3
BITMAP
E070
F0F0
70E0
79E0
79E0
7FE0
6F60
6F60
6660
6060
F9F0
F9F0
0000
0600
0600
ENDCHAR
STARTCHAR uni1E43
ENCODING 7747
SWIDTH 600 0
DWIDTH 12 0
BBX 12 12 0 -3
BITMAP
FDC0
FFE0
6660
6660
6660
6660
6660
F770
F770
0000
0600
0600
ENDCHAR
STARTCHAR uni1E44
ENCODING 7748
SWIDTH 600 0
DWIDTH 12 0
BBX 12 15 0 0
BITMAP
0600
0600
0000
F1E0
F1F0
7860
7C60
6C60
6E60
6760
6360
63E0
61E0
F8E0
F8E0
ENDCHAR
STARTCHAR uni1E45
ENCODING 7749
SWIDTH 600 0
DWIDTH 12 0
BBX 10 12 1 0
BITMAP
0C00
0C00
0000
EF00
FF80
7180
6180
6180
6180
6180
F3C0
F3C0
ENDCHAR
STARTCHAR uni1E46
ENCODING 7750
SWIDTH 600 0
DWIDTH 12 0
BBX 12 15 0 -3
BITMAP
F1E0
F1F0
7860
7C60
6C60
6E60
6760
6360
63E0
61E0
F8E0
F8E0
0000
0600
0600
ENDCHAR
STARTCHAR uni1E47
ENCODING 7751
SWIDTH 600 0
DWIDTH 12 0
BBX 10 12 1 -3
BITMAP
EF00
FF80
7180
6180
6180
6180
6180
F3C0
F3C0
0000
0C00
0C00
ENDCHAR
STARTCHAR uni1E48
ENCODING 7752
SWIDTH 600 0
DWIDTH 12 0
BBX 12 15 0 -3
BITMAP
F1E0
F1F0
7860
7C60
6C60
6E60
6760
6360
63E0
61E0
F8E0
F8E0
0000
0000
1FC0
ENDCHAR
STARTCHAR uni1E49
ENCODING 7753
SWIDTH 600 0
DWIDTH 12 0
BBX 10 12 1 -3
BITMAP
EF00
FF80
7180
6180
6180
6180
6180
F3C0
F3C0
0000
0000
7F00
ENDCHAR
STARTCHAR uni1E4A
ENCODING 7754
SWIDTH 600 0
DWIDTH 12 0
BBX 12 16 0 -4
BITMAP
F1E0
F1F0
7860
7C60
6C60
6E60
6760
6360
63E0
61E0
F8E0
F8E0
0000
0600
1F80
10C0
ENDCHAR
STARTCHAR uni1E4B
ENCODING 7755
SWIDTH 600 0
DWIDTH 12 0
BBX 10 13 1 -4
BITMAP
EF00
FF80
7180
6180
6180
6180
6180
F3C0
F3C0
0000
0C00
3F00
6100
ENDCHAR
STARTCHAR uni1E4C
ENCODING 7756
SWIDTH 600 0
DWIDTH 12 0
BBX 12 16 0 0
BITMAP
00C0
0180
0300
0C40
1FC0
1180
1F80
3FC0
70E0
6060
C030
C030
6060
6060
39C0
1F80
ENDCHAR
STARTCHAR uni1E4D
ENCODING 7757
SWIDTH 600 0
DWIDTH 12 0
BBX 10 16 1 0
BITMAP
0300
0600
0C00
3100
7F00
0200
0000
1E00
7F80
E1C0
C0C0
C0C0
C0C0
E1C0
7F80
3F00
ENDCHAR
STARTCHAR uni1E4E
ENCODING 7758
SWIDTH 600 0
DWIDTH 12 0
BBX 12 16 0 0
BITMAP
1980
19C0
0000
1C40
13C0
0000
1F80
3FC0
70E0
6060
C030
C030
6060
6060
39C0
1F80
ENDCHAR
STARTCHAR uni1E4F
ENCODING 7759
SWIDTH 600 0
DWIDTH 12 0
BBX 10 16 1 0
BITMAP
3300
3300
3100
3100
7F00
0200
0000
1E00
7F80
E1C0
C0C0
C0C0
C0C0
E1C0
7F80
3F00
ENDCHAR
STARTCHAR uni1E50
ENCODING 7760
SWIDTH 600 0
DWIDTH 12 0
BBX 12 16 0 0
BITMAP
1800
0C00
0600
0000
1F80
0000
1F80
3FC0
70E0
6060
C030
C030
6060
6060
39C0
1F80
ENDCHAR
STARTCHAR uni1E51
ENCODING 7761
SWIDTH 600 0
DWIDTH 12 0
BBX 10 16 1 0
BITMAP
3000
1800
0C00
0000
3F00
3F00
0000
1E00
7F80
E1C0
C0C0
C0C0
C0C0
E1C0
7F80
3F00
ENDCHAR
STARTCHAR uni1E52
ENCODING 7762
SWIDTH 600 0
DWIDTH 12 0
BBX 12 16 0 0
BITMAP
0180
0300
0600
0000
1F80
0000
1F80
3FC0
70E0
6060
C030
C030
6060
6060
39C0
1F80
ENDCHAR
STARTCHAR uni1E53
ENCODING 7763
SWIDTH 600 0
DWIDTH 12 0
BBX 10 16 1 0
BITMAP
0300
0600
0C00
0000
3F00
3F00
0000
1E00
7F80
E1C0
C0C0
C0C0
C0C0
E1C0
7F80
3F00
ENDCHAR
STARTCHAR uni1E54
ENCODING 7764
SWIDTH 600 0
DWIDTH 12 0
BBX 11 16 0 0
BITMAP
0600
0C00
1800
0000
7F00
FF80
31C0
30E0
30E0
30C0
3FC0
3F00
3000
3000
FE00
FE00
ENDCHAR
STARTCHAR uni1E55
ENCODING 7765
SWIDTH 600 0
DWIDTH 12 0
BBX 12 17 0 -4
BITMAP
0180
0380
0200
0000
F780
FFC0
3860
3060
3030
3060
38E0
3FC0
3780
3000
3000
FC00
FC00
ENDCHAR
STARTCHAR uni1E56
ENCODING 7766
SWIDTH 600 0
DWIDTH 12 0
BBX 11 15 0 0
BITMAP
0C00
0C00
0000
7F00
FF80
31C0
30E0
30E0
30C0
3FC0
3F00
3000
3000
FE00
FE00
ENDCHAR
STARTCHAR uni1E57
ENCODING 7767
SWIDTH 600 0
DWIDTH 12 0
BBX 12 17 0 -4
BITMAP
0200
0700
0200
0000
F780
FFC0
3860
3060
3030
3060
38E0
3FC0
3780
3000
3000
FC00
FC00
ENDCHAR
STARTCHAR uni1E58
ENCODING 7768
SWIDTH 600 0
DWIDTH 12 0
BBX 12 15 0 0
BITMAP
0C00
0C00
0000
FE00
FF80
31C0
30C0
30C0
33C0
3F80
3F80
31C0
30C0
FCF0
FC70
ENDCHAR
STARTCHAR uni1E59
ENCODING 7769
SWIDTH 600 0
DWIDTH 12 0
BBX 10 12 1 0
BITMAP
0C00
0C00
0000
7BC0
7FC0
1E40
1800
1800
1800
1800
FF80
FF80
ENDCHAR
STARTCHAR uni1E5A
ENCODING 7770
SWIDTH 600 0
DWIDTH 12 0
BBX 12 15 0 -3
BITMAP
FE00
FF80
31C0
30C0
30C0
33C0
3F80
3F80
31C0
30C0
FCF0
FC70
0000
0600
0600
ENDCHAR
STARTCHAR uni1E5B
ENCODING 7771
SWIDTH 600 0
DWIDTH 12 0
BBX 10 12 1 -3
BITMAP
7BC0
7FC0
1E40
1800
1800
1800
1800
FF80
FF80
0000
0C00
0C00
ENDCHAR
STARTCHAR uni1E5C
ENCODING 7772
SWIDTH 600 0
DWIDTH 12 0
BBX 12 18 0 -3
BITMAP
3F80
3F80
0000
FE00
FF80
31C0
30C0
30C0
33C0
3F80
3F80
31C0
30C0
FCF0
FC70
0000
0600
0600
ENDCHAR
STARTCHAR uni1E5D
ENCODING 7773
SWIDTH 600 0
DWIDTH 12 0
BBX 10 15 1 -3
BITMAP
3F80
1F00
0000
7BC0
7FC0
1E40
1800
1800
1800
1800
FF80
FF80
0000
0C00
0C00
ENDCHAR
STARTCHAR uni1E5E
ENCODING 7774
SWIDTH 600 0
DWIDTH 12 0
BBX 12 15 0 -3
BITMAP
FE00
FF80
31C0
30C0
30C0
33C0
3F80
3F80
31C0
30C0
FCF0
FC70
0000
1FC0
1FC0
ENDCHAR
STARTCHAR uni1E5F
ENCODING 7775
SWIDTH 600 0
DWIDTH 12 0
BBX 10 12 1 -3
BITMAP
7BC0
7FC0
1E40
1800
1800
1800
1800
FF80
FF80
0000
7F00
7F00
ENDCHAR
STARTCHAR uni1E60
ENCODING 7776
SWIDTH 600 0
DWIDTH 12 0
BBX 10 15 1 0
BITMAP
0E00
0E00
0000
1E80
7F80
6180
6180
6000
7E00
1F80
03C0
C0C0
E1C0
FF80
FF00
ENDCHAR
STARTCHAR uni1E61
ENCODING 7777
SWIDTH 600 0
DWIDTH 12 0
BBX 10 12 1 0
BITMAP
0C00
0C00
0000
3F80
7F80
6180
7800
3F80
0780
C1C0
FF80
7F00
ENDCHAR
STARTCHAR uni1E62
ENCODING 7778
SWIDTH 600 0
DWIDTH 12 0
BBX 10 15 1 -3
BITMAP
1E80
7F80
6180
6180
6000
7E00
1F80
03C0
C0C0
E1C0
FF80
FF00
0000
0C00
0C00
ENDCHAR
STARTCHAR uni1E63
ENCODING 7779
SWIDTH 600 0
DWIDTH 12 0
BBX 10 12 1 -3
BITMAP
3F80
7F80
6180
7800
3F80
0780
C1C0
FF80
7F00
0000
0C00
0C00
ENDCHAR
STARTCHAR uni1E64
ENCODING 7780
SWIDTH 600 0
DWIDTH 12 0
BBX 10 16 1 0
BITMAP
1800
1C00
0200
0600
0C00
0000
3F80
7F80
6180
6080
7E00
1F80
01C0
C0C0
F380
FF00
ENDCHAR
STARTCHAR uni1E65
ENCODING 7781
SWIDTH 600 0
DWIDTH 12 0
BBX 10 16 1 0
BITMAP
0C00
0C00
0000
0200
0600
0C00
0000
3F80
7F80
6180
7800
3F80
0780
C1C0
FF80
7F00
ENDCHAR
STARTCHAR uni1E66
ENCODING 7782
SWIDTH 600 0
DWIDTH 12 0
BBX 10 16 1 0
BITMAP
0C00
0E00
2180
3F00
0E00
0000
3F80
7F80
6180
6080
7E00
1F80
01C0
C0C0
F380
FF00
ENDCHAR
STARTCHAR uni1E67
ENCODING 7783
SWIDTH 600 0
DWIDTH 12 0
BBX 10 16 1 0
BITMAP
0C00
0C00
0C00
3380
1E00
0400
0000
3F80
7F80
6180
7800
3F80
0780
C1C0
FF80
7F00
ENDCHAR
STARTCHAR uni1E68
ENCODING 7784
SWIDTH 600 0
DWIDTH 12 0
BBX 10 18 1 -3
BITMAP
0C00
0C00
0000
1E80
7F80
6180
6180
6000
7E00
1F80
03C0
C0C0
E1C0
FF80
FF00
0000
0C00
0C00
ENDCHAR
STARTCHAR uni1E69
ENCODING 7785
SWIDTH 600 0
DWIDTH 12 0
BBX 10 16 1 -3
BITMAP
0400
0E00
0400
0000
3F80
7F80
6180
7800
3F80
0780
C1C0
FF80
7F00
0000
0C00
0C00
ENDCHAR
STARTCHAR uni1E6A
ENCODING 7786
SWIDTH 600 0
DWIDTH 12 0
BBX 10 15 1 0
BITMAP
0C00
0C00
0000
FFC0
FFC0
CCC0
CCC0
CCC0
0C00
0C00
0C00
0C00
0C00
7F80
7F80
ENDCHAR
STARTCHAR uni1E6B
ENCODING 7787
SWIDTH 600 0
DWIDTH 12 0
BBX 11 15 0 0
BITMAP
3000
3000
0000
1000
3000
3000
7F80
FF80
3000
3000
3000
3000
3040
3FE0
1FC0
ENDCHAR
STARTCHAR uni1E6C
ENCODING 7788
SWIDTH 600 0
DWIDTH 12 0
BBX 10 15 1 -3
BITMAP
FFC0
FFC0
CCC0
CCC0
CCC0
0C00
0C00
0C00
0C00
0C00
7F80
7F80
0000
0C00
0C00
ENDCHAR
STARTCHAR uni1E6D
ENCODING 7789
SWIDTH 600 0
DWIDTH 12 0
BBX 11 15 0 -3
BITMAP
1000
3000
3000
7F80
FF80
3000
3000
3000
3000
3040
3FE0
1FC0
0000
0600
0600
ENDCHAR
STARTCHAR uni1E6E
ENCODING 7790
SWIDTH 600 0
DWIDTH 12 0
BBX 10 15 1 -3
BITMAP
FFC0
FFC0
CCC0
CCC0
CCC0
0C00
0C00
0C00
0C00
0C00
7F80
7F80
0000
3F00
3F00
ENDCHAR
STARTCHAR uni1E6F
ENCODING 7791
SWIDTH 600 0
DWIDTH 12 0
BBX 11 15 0 -3
BITMAP
1000
3000
3000
7F80
FF80
3000
3000
3000
3000
3040
3FE0
1FC0
0000
0000
3F80
ENDCHAR
STARTCHAR uni1E70
ENCODING 7792
SWIDTH 600 0
DWIDTH 12 0
BBX 10 16 1 -4
BITMAP
FFC0
FFC0
CCC0
CCC0
CCC0
0C00
0C00
0C00
0C00
0C00
7F80
7F80
0000
0C00
3F00
2100
ENDCHAR
STARTCHAR uni1E71
ENCODING 7793
SWIDTH 600 0
DWIDTH 12 0
BBX 11 16 0 -4
BITMAP
1000
3000
3000
7F80
FF80
3000
3000
3000
3000
3040
3FE0
1FC0
0000
0600
1F80
10C0
ENDCHAR
STARTCHAR uni1E72
ENCODING 7794
SWIDTH 600 0
DWIDTH 12 0
BBX 12 15 0 -3
BITMAP
79E0
F9F0
6060
6060
6060
6060
6060
6060
6060
30C0
3FC0
1F80
0000
1980
1980
ENDCHAR
STARTCHAR uni1E73
ENCODING 7795
SWIDTH 600 0
DWIDTH 12 0
BBX 11 12 0 -3
BITMAP
71C0
F3C0
30C0
30C0
30C0
30C0
30C0
3FE0
1FE0
0000
3100
3B80
ENDCHAR
STARTCHAR uni1E74
ENCODING 7796
SWIDTH 600 0
DWIDTH 12 0
BBX 12 16 0 -4
BITMAP
79E0
F9F0
6060
6060
6060
6060
6060
6060
6060
30C0
3FC0
1F80
0000
1C40
3F80
0100
ENDCHAR
STARTCHAR uni1E75
ENCODING 7797
SWIDTH 600 0
DWIDTH 12 0
BBX 11 13 0 -4
BITMAP
71C0
F3C0
30C0
30C0
30C0
30C0
30C0
3FE0
1FE0
0000
1CC0
3F80
0100
ENDCHAR
STARTCHAR uni1E76
ENCODING 7798
SWIDTH 600 0
DWIDTH 12 0
BBX 12 16 0 -4
BITMAP
79E0
F9F0
6060
6060
6060
6060
6060
6060
6060
30C0
3FC0
1F80
0000
0600
1F80
3080
ENDCHAR
STARTCHAR uni1E77
ENCODING 7799
SWIDTH 600 0
DWIDTH 12 0
BBX 11 13 0 -4
BITMAP
71C0
F3C0
30C0
30C0
30C0
30C0
30C0
3FE0
1FE0
0000
0600
1F80
1080
ENDCHAR
STARTCHAR uni1E78
ENCODING 7800
SWIDTH 600 0
DWIDTH 12 0
BBX 12 16 0 0
BITMAP
0080
0180
0300
1CC0
3780
0000
F9F0
F9F0
6060
6060
6060
6060
6060
30C0
3FC0
1F80
ENDCHAR
STARTCHAR uni1E79
ENCODING 7801
SWIDTH 600 0
DWIDTH 12 0
BBX 11 16 0 0
BITMAP
0180
0300
0600
1880
3F80
0100
0000
71C0
F3C0
30C0
30C0
30C0
30C0
30C0
3FE0
1FE0
ENDCHAR
STARTCHAR uni1E7A
ENCODING 7802
SWIDTH 600 0
DWIDTH 12 0
BBX 12 16 0 0
BITMAP
1980
1980
0000
1F80
1F80
0000
F9F0
F9F0
6060
6060
6060
6060
6060
30C0
3FC0
1F80
ENDCHAR
STARTCHAR uni1E7B
ENCODING 7803
SWIDTH 600 0
DWIDTH 12 0
BBX 11 15 0 0
BITMAP
1980
1980
0000
1F80
1F80
0000
71C0
F3C0
30C0
30C0
30C0
30C0
30C0
3FE0
1FE0
ENDCHAR
STARTCHAR uni1E7C
ENCODING 7804
SWIDTH 600 0
DWIDTH 12 0
BBX 12 15 0 0
BITMAP
1EC0
3380
0000
F0F0
F9F0
6060
70E0
30C0
38C0
1980
1980
0F00
0F00
0F00
0600
ENDCHAR
STARTCHAR uni1E7D
ENCODING 7805
SWIDTH 600 0
DWIDTH 12 0
BBX 12 13 0 0
BITMAP
0800
3F80
0100
0000
F9F0
F9F0
30C0
30C0
1980
1D80
0F00
0F00
0600
ENDCHAR
STARTCHAR uni1E7E
ENCODING 7806
SWIDTH 600 0
DWIDTH 12 0
BBX 12 15 0 -3
BITMAP
F0F0
F9F0
6060
70E0
30C0
38C0
1980
1980
0F00
0F00
0F00
0600
0000
0600
0600
ENDCHAR
STARTCHAR uni1E7F
ENCODING 7807
SWIDTH 600 0
DWIDTH 12 0
BBX 12 12 0 -3
BITMAP
F9F0
F9F0
30C0
30C0
1980
1D80
0F00
0F00
0600
0000
0600
0600
ENDCHAR
STARTCHAR Wgrave
ENCODING 7808
SWIDTH 600 0
DWIDTH 12 0
BBX 12 16 0 0
BITMAP
0800
0C00
0600
0000
F9F0
F9F0
6060
6660
6760
6F60
6F60
6FE0
39C0
39C0
39C0
30C0
ENDCHAR
STARTCHAR wgrave
ENCODING 7809
SWIDTH 600 0
DWIDTH 12 0
BBX 12 13 0 0
BITMAP
1800
0C00
0600
0000
F0F0
F0F0
6660
7660
3FC0
3FC0
3FC0
39C0
1980
ENDCHAR
STARTCHAR Wacute
ENCODING 7810
SWIDTH 600 0
DWIDTH 12 0
BBX 12 16 0 0
BITMAP
0100
0300
0600
0000
F9F0
F9F0
6060
6660
6760
6F60
6F60
6FE0
39C0
39C0
39C0
30C0
ENDCHAR
STARTCHAR wacute
ENCODING 7811
SWIDTH 600 0
DWIDTH 12 0
BBX 12 13 0 0
BITMAP
0180
0300
0600
0000
F0F0
F0F0
6660
7660
3FC0
3FC0
3FC0
39C0
1980
ENDCHAR
STARTCHAR Wdieresis
ENCODING 7812
SWIDTH 600 0
DWIDTH 12 0
BBX 12 15 0 0
BITMAP
1980
1980
0000
F9F0
F9F0
6060
6660
6760
6F60
6F60
6FE0
39C0
39C0
39C0
30C0
ENDCHAR
STARTCHAR wdieresis
ENCODING 7813
SWIDTH 600 0
DWIDTH 12 0
BBX 12 12 0 0
BITMAP
1980
1980
0000
F0F0
F0F0
6660
7660
3FC0
3FC0
3FC0
39C0
1980
ENDCHAR
STARTCHAR uni1E86
ENCODING 7814
SWIDTH 600 0
DWIDTH 12 0
BBX 12 15 0 0
BITMAP
0600
0600
0000
F9F0
F9F0
6060
6660
6760
6F60
6F60
6FE0
39C0
39C0
39C0
30C0
ENDCHAR
STARTCHAR uni1E87
ENCODING 7815
SWIDTH 600 0
DWIDTH 12 0
BBX 12 12 0 0
BITMAP
0600
0600
0000
F0F0
F0F0
6660
7660
3FC0
3FC0
3FC0
39C0
1980
ENDCHAR
STARTCHAR uni1E88
ENCODING 7816
SWIDTH 600 0
DWIDTH 12 0
BBX 12 15 0 -3
BITMAP
F9F0
F9F0
6060
6660
6760
6F60
6F60
6FE0
39C0
39C0
39C0
30C0
0000
0600
0600
ENDCHAR
STARTCHAR uni1E89
ENCODING 7817
SWIDTH 600 0
DWIDTH 12 0
BBX 12 12 0 -3
BITMAP
F0F0
F0F0
6660
7660
3FC0
3FC0
3FC0
39C0
1980
0000
0600
0600
ENDCHAR
STARTCHAR uni1E8A
ENCODING 7818
SWIDTH 600 0
DWIDTH 12 0
BBX 12 15 0 0
BITMAP
0600
0600
0000
70E0
F9F0
30C0
1980
1F80
0F00
0F00
1F80
1980
30C0
F9F0
F9F0
ENDCHAR
STARTCHAR uni1E8B
ENCODING 7819
SWIDTH 600 0
DWIDTH 12 0
BBX 10 12 1 0
BITMAP
0C00
0C00
0000
F3C0
F3C0
7380
3F00
1E00
3F00
7380
F3C0
F3C0
ENDCHAR
STARTCHAR uni1E8C
ENCODING 7820
SWIDTH 600 0
DWIDTH 12 0
BBX 12 15 0 0
BITMAP
1980
1980
0000
70E0
F9F0
30C0
1980
1F80
0F00
0F00
1F80
1980
30C0
F9F0
F9F0
ENDCHAR
STARTCHAR uni1E8D
ENCODING 7821
SWIDTH 600 0
DWIDTH 12 0
BBX 10 12 1 0
BITMAP
3300
3300
0000
F3C0
F3C0
7380
3F00
1E00
3F00
7380
F3C0
F3C0
ENDCHAR
STARTCHAR uni1E8E
ENCODING 7822
SWIDTH 600 0
DWIDTH 12 0
BBX 12 15 0 0
BITMAP
0600
0600
0000
70E0
F9F0
30C0
1980
1F80
0F00
0600
0600
0600
0600
3FC0
3FC0
ENDCHAR
STARTCHAR uni1E8F
ENCODING 7823
SWIDTH 600 0
DWIDTH 12 0
BBX 12 16 0 -4
BITMAP
0600
0600
0000
79E0
F9F0
30C0
30C0
1980
1980
0F00
0F00
0600
0600
0C00
7E00
7E00
ENDCHAR
STARTCHAR uni1E90
ENCODING 7824
SWIDTH 600 0
DWIDTH 12 0
BBX 10 16 1 0
BITMAP
0C00
1E00
3380
0000
7F80
7F80
6380
6300
6600
0E00
1C00
3880
30C0
60C0
FFC0
FFC0
ENDCHAR
STARTCHAR uni1E91
ENCODING 7825
SWIDTH 600 0
DWIDTH 12 0
BBX 8 13 2 0
BITMAP
18
7E
67
00
FF
FF
C6
CC
18
30
63
FF
FF
ENDCHAR
STARTCHAR uni1E92
ENCODING 7826
SWIDTH 600 0
DWIDTH 12 0
BBX 10 15 1 -3
BITMAP
7F80
7F80
6380
6300
6600
0E00
1C00
3880
30C0
60C0
FFC0
FFC0
0000
0C00
0C00
ENDCHAR
STARTCHAR uni1E93
ENCODING 7827
SWIDTH 600 0
DWIDTH 12 0
BBX 8 12 2 -3
BITMAP
FF
FF
C6
CC
18
30
63
FF
FF
00
18
18
ENDCHAR
STARTCHAR uni1E94
ENCODING 7828
SWIDTH 600 0
DWIDTH 12 0
BBX 10 15 1 -3
BITMAP
7F80
7F80
6380
6300
6600
0E00
1C00
3880
30C0
60C0
FFC0
FFC0
0000
0000
7F00
ENDCHAR
STARTCHAR uni1E95
ENCODING 7829
SWIDTH 600 0
DWIDTH 12 0
BBX 8 12 2 -3
BITMAP
FF
FF
C6
CC
18
30
63
FF
FF
00
00
FE
ENDCHAR
STARTCHAR uni1E96
ENCODING 7830
SWIDTH 600 0
DWIDTH 12 0
BBX 12 15 0 -3
BITMAP
F000
7000
3000
3780
3FC0
38C0
30C0
30C0
30C0
30C0
79F0
79F0
0000
0000
1FC0
ENDCHAR
STARTCHAR uni1E97
ENCODING 7831
SWIDTH 600 0
DWIDTH 12 0
BBX 11 15 0 0
BITMAP
CC00
CE00
0000
1000
3000
3000
7F80
FF80
3000
3000
3000
3000
3040
3FE0
1FC0
ENDCHAR
STARTCHAR uni1E98
ENCODING 7832
SWIDTH 600 0
DWIDTH 12 0
BBX 12 14 0 0
BITMAP
0600
0F00
0B00
0600
0000
F0F0
F0F0
6660
7660
3FC0
3FC0
3FC0
39C0
1980
ENDCHAR
STARTCHAR uni1E99
ENCODING 7833
SWIDTH 600 0
DWIDTH 12 0
BBX 12 18 0 -4
BITMAP
0600
0F00
0B00
0600
0000
79E0
F9F0
30C0
30C0
1980
1980
0F00
0F00
0600
0600
0C00
7E00
7E00
ENDCHAR
STARTCHAR uni1e9a
ENCODING 7834
SWIDTH 600 0
DWIDTH 12 0
BBX 10 13 1 0
BITMAP
00C0
0040
00C0
0000
3E00
7F00
0180
1F80
7F80
E180
C380
FFC0
7FC0
ENDCHAR
STARTCHAR uni1E9B
ENCODING 7835
SWIDTH 600 0
DWIDTH 12 0
BBX 9 16 2 0
BITMAP
0400
0600
0600
0000
1F80
3F80
3000
F000
F000
3000
3000
3000
3000
3000
FF00
FF00
ENDCHAR
STARTCHAR uni1EA0
ENCODING 7840
SWIDTH 600 0
DWIDTH 12 0
BBX 12 15 0 -3
BITMAP
3E00
7F00
0F00
0F00
1980
1980
39C0
3FC0
3FC0
6060
F9F0
F9F0
0000
0600
0600
ENDCHAR
STARTCHAR uni1EA1
ENCODING 7841
SWIDTH 600 0
DWIDTH 12 0
BBX 10 12 1 -3
BITMAP
3E00
7F00
0180
1F80
7F80
E180
C380
FFC0
7FC0
0000
0C00
0C00
ENDCHAR
STARTCHAR uni1EA2
ENCODING 7842
SWIDTH 600 0
DWIDTH 12 0
BBX 12 16 0 0
BITMAP
0E00
0B00
0200
0400
3E00
7F00
0F00
0F00
1980
1980
39C0
3FC0
3FC0
6060
F9F0
F9F0
ENDCHAR
STARTCHAR uni1EA3
ENCODING 7843
SWIDTH 600 0
DWIDTH 12 0
BBX 10 14 1 0
BITMAP
0E00
0A00
0200
0400
0000
3E00
7F00
0180
1F80
7F80
E180
C380
FFC0
7FC0
ENDCHAR
STARTCHAR uni1EA4
ENCODING 7844
SWIDTH 600 0
DWIDTH 12 0
BBX 12 16 0 0
BITMAP
0810
1E30
7360
0100
3E00
7F00
0F00
0F00
1980
1980
39C0
3FC0
3FC0
6060
F9F0
F9F0
ENDCHAR
STARTCHAR uni1EA5
ENCODING 7845
SWIDTH 600 0
DWIDTH 12 0
BBX 11 15 1 0
BITMAP
0060
00C0
0D80
3E00
6300
0000
3E00
7F00
0180
1F80
7F80
E180
C380
FFC0
7FC0
ENDCHAR
STARTCHAR uni1EA6
ENCODING 7846
SWIDTH 600 0
DWIDTH 12 0
BBX 12 16 0 0
BITMAP
8100
C780
6CE0
0000
3E00
7F00
0F00
0F00
1980
1980
39C0
3FC0
3FC0
6060
F9F0
F9F0
ENDCHAR
STARTCHAR uni1EA7
ENCODING 7847
SWIDTH 600 0
DWIDTH 12 0
BBX 11 15 0 0
BITMAP
C000
6000
2600
1F00
3180
0000
1F00
3F80
00C0
0FC0
3FC0
70C0
61C0
7FE0
3FE0
ENDCHAR
STARTCHAR uni1EA8
ENCODING 7848
SWIDTH 600 0
DWIDTH 12 0
BBX 12 16 0 0
BITMAP
0860
3C90
6730
0020
3E00
7F00
0F00
0F00
1980
1980
39C0
3FC0
3FC0
6060
F9F0
F9F0
ENDCHAR
STARTCHAR uni1EA9
ENCODING 7849
SWIDTH 600 0
DWIDTH 12 0
BBX 11 15 1 0
BITMAP
00C0
0120
0C60
3EC0
6300
0000
3E00
7F00
0180
1F80
7F80
E180
C380
FFC0
7FC0
ENDCHAR
STARTCHAR uni1EAA
ENCODING 7850
SWIDTH 600 0
DWIDTH 12 0
BBX 12 16 0 0
BITMAP
1CC0
3F80
0000
0F00
1B80
0080
3E00
3F00
0F00
1B80
1980
31C0
3FC0
60E0
F9F0
F9F0
ENDCHAR
STARTCHAR uni1EAB
ENCODING 7851
SWIDTH 600 0
DWIDTH 12 0
BBX 10 16 1 0
BITMAP
1000
7F00
4200
0C00
3E00
6300
0000
3E00
7F00
0180
1F80
7F80
E180
C380
FFC0
7FC0
ENDCHAR
STARTCHAR uni1EAC
ENCODING 7852
SWIDTH 600 0
DWIDTH 12 0
BBX 12 19 0 -3
BITMAP
0400
0F00
3980
0080
3E00
7F00
0F00
0F00
1980
1980
39C0
3FC0
3FC0
6060
F9F0
F9F0
0000
0600
0600
ENDCHAR
STARTCHAR uni1EAD
ENCODING 7853
SWIDTH 600 0
DWIDTH 12 0
BBX 10 16 1 -3
BITMAP
0C00
3E00
6300
0000
3E00
7F00
0180
1F80
7F80
E180
C380
FFC0
7FC0
0000
0C00
0C00
ENDCHAR
STARTCHAR uni1EAE
ENCODING 7854
SWIDTH 600 0
DWIDTH 12 0
BBX 12 16 0 0
BITMAP
0200
0600
0C00
6100
3F00
0C00
3E00
3F00
0F00
1B80
1980
31C0
3FC0
60E0
F9F0
F9F0
ENDCHAR
STARTCHAR uni1EAF
ENCODING 7855
SWIDTH 600 0
DWIDTH 12 0
BBX 10 16 1 0
BITMAP
0200
0600
0C00
6100
3F00
1C00
0000
3E00
7F00
0180
1F80
7F80
E180
C380
FFC0
7FC0
ENDCHAR
STARTCHAR uni1EB0
ENCODING 7856
SWIDTH 600 0
DWIDTH 12 0
BBX 12 16 0 0
BITMAP
1000
1800
0C00
2180
3F00
0C00
3E00
3F00
0F00
1B80
1980
31C0
3FC0
60E0
F9F0
F9F0
ENDCHAR
STARTCHAR uni1EB1
ENCODING 7857
SWIDTH 600 0
DWIDTH 12 0
BBX 10 16 1 0
BITMAP
1000
1800
0C00
6100
3F00
1C00
0000
3E00
7F00
0180
1F80
7F80
E180
C380
FFC0
7FC0
ENDCHAR
STARTCHAR uni1EB2
ENCODING 7858
SWIDTH 600 0
DWIDTH 12 0
BBX 12 16 0 0
BITMAP
0C00
1200
0600
6D00
3F00
1C00
3E00
3F00
0F00
1B80
1980
31C0
3FC0
60E0
F9F0
F9F0
ENDCHAR
STARTCHAR uni1EB3
ENCODING 7859
SWIDTH 600 0
DWIDTH 12 0
BBX 10 16 1 0
BITMAP
0C00
1200
0600
6D00
3F00
1C00
0000
3E00
7F00
0180
1F80
7F80
E180
C380
FFC0
7FC0
ENDCHAR
STARTCHAR uni1EB4
ENCODING 7860
SWIDTH 600 0
DWIDTH 12 0
BBX 12 16 0 0
BITMAP
1880
3F80
0000
3080
1F80
0E00
3E00
3F00
0F00
1B80
1980
31C0
3FC0
60E0
F9F0
F9F0
ENDCHAR
STARTCHAR uni1EB5
ENCODING 7861
SWIDTH 600 0
DWIDTH 12 0
BBX 10 16 1 0
BITMAP
3900
6F00
0000
6100
3F00
1C00
0000
3E00
7F00
0180
1F80
7F80
E180
C380
FFC0
7FC0
ENDCHAR
STARTCHAR uni1EB6
ENCODING 7862
SWIDTH 600 0
DWIDTH 12 0
BBX 12 19 0 -3
BITMAP
3080
1980
0F00
0000
3E00
7F00
0F00
0F00
1980
1980
39C0
3FC0
3FC0
6060
F9F0
F9F0
0000
0600
0600
ENDCHAR
STARTCHAR uni1EB7
ENCODING 7863
SWIDTH 600 0
DWIDTH 12 0
BBX 10 16 1 -3
BITMAP
6100
3F00
1C00
0000
3E00
7F00
0180
1F80
7F80
E180
C380
FFC0
7FC0
0000
0C00
0C00
ENDCHAR
STARTCHAR uni1EB8
ENCODING 7864
SWIDTH 600 0
DWIDTH 12 0
BBX 11 15 0 -3
BITMAP
7FE0
FFE0
3060
3060
3340
3F00
3F00
3300
3260
3060
FFE0
FFE0
0000
0600
0600
ENDCHAR
STARTCHAR uni1EB9
ENCODING 7865
SWIDTH 600 0
DWIDTH 12 0
BBX 10 12 1 -3
BITMAP
3E00
7F80
E180
C0C0
FFC0
FFC0
C000
7FC0
3F80
0000
0C00
0C00
ENDCHAR
STARTCHAR uni1EBA
ENCODING 7866
SWIDTH 600 0
DWIDTH 12 0
BBX 11 16 0 0
BITMAP
0600
0900
0300
0200
7FE0
FFE0
3060
3060
3340
3F00
3F00
3300
3260
3060
FFE0
FFE0
ENDCHAR
STARTCHAR uni1EBB
ENCODING 7867
SWIDTH 600 0
DWIDTH 12 0
BBX 10 14 1 0
BITMAP
0C00
1200
0600
0800
0000
3E00
7F80
E180
C0C0
FFC0
FFC0
C000
7FC0
3F80
ENDCHAR
STARTCHAR uni1EBC
ENCODING 7868
SWIDTH 600 0
DWIDTH 12 0
BBX 11 15 0 0
BITMAP
1EC0
3380
0000
7FE0
FFE0
3060
3060
3340
3F00
3F00
3300
3260
3060
FFE0
FFE0
ENDCHAR
STARTCHAR uni1EBD
ENCODING 7869
SWIDTH 600 0
DWIDTH 12 0
BBX 10 12 1 0
BITMAP
3D00
6700
0000
3E00
7F80
E180
C0C0
FFC0
FFC0
C000
7FC0
3F80
ENDCHAR
STARTCHAR uni1EBE
ENCODING 7870
SWIDTH 600 0
DWIDTH 12 0
BBX 12 16 0 0
BITMAP
0830
3C60
77C0
0000
7FE0
FFE0
3060
3060
3340
3F00
3F00
3300
3260
3060
FFE0
FFE0
ENDCHAR
STARTCHAR uni1EBF
ENCODING 7871
SWIDTH 600 0
DWIDTH 12 0
BBX 11 15 1 0
BITMAP
0060
00C0
0D80
3E00
6300
0000
3E00
7F80
E180
C0C0
FFC0
FFC0
C000
7FC0
3F80
ENDCHAR
STARTCHAR uni1EC0
ENCODING 7872
SWIDTH 600 0
DWIDTH 12 0
BBX 11 16 0 0
BITMAP
C100
63C0
3E60
0020
7FE0
FFE0
3060
3060
3340
3F00
3F00
3300
3260
3060
FFE0
FFE0
ENDCHAR
STARTCHAR uni1EC1
ENCODING 7873
SWIDTH 600 0
DWIDTH 12 0
BBX 11 15 0 0
BITMAP
C000
6000
3600
1F00
3180
0000
1F00
3FC0
70C0
6060
7FE0
7FE0
6000
3FE0
1FC0
ENDCHAR
STARTCHAR uni1EC2
ENCODING 7874
SWIDTH 600 0
DWIDTH 12 0
BBX 12 16 0 0
BITMAP
0060
1C90
3730
6120
7FE0
FFE0
3060
3060
3340
3F00
3F00
3300
3260
3060
FFE0
FFE0
ENDCHAR
STARTCHAR uni1EC3
ENCODING 7875
SWIDTH 600 0
DWIDTH 12 0
BBX 11 15 1 0
BITMAP
00E0
0120
0C60
3E40
6300
0000
3E00
7F80
E180
C0C0
FFC0
FFC0
C000
7FC0
3F80
ENDCHAR
STARTCHAR uni1EC4
ENCODING 7876
SWIDTH 600 0
DWIDTH 12 0
BBX 11 16 0 0
BITMAP
1CC0
3780
0000
0F00
1F80
1080
FFE0
FFE0
3060
3240
3F00
3F00
3260
3060
7FE0
FFE0
ENDCHAR
STARTCHAR uni1EC5
ENCODING 7877
SWIDTH 600 0
DWIDTH 12 0
BBX 10 16 1 0
BITMAP
1880
3F80
0200
0C00
3E00
6300
0000
3E00
7F80
E180
C0C0
FFC0
FFC0
C000
7FC0
3F80
ENDCHAR
STARTCHAR uni1EC6
ENCODING 7878
SWIDTH 600 0
DWIDTH 12 0
BBX 11 19 0 -3
BITMAP
0200
0F00
19C0
0000
7FE0
FFE0
3060
3060
3340
3F00
3F00
3300
3260
3060
FFE0
FFE0
0000
0600
0600
ENDCHAR
STARTCHAR uni1EC7
ENCODING 7879
SWIDTH 600 0
DWIDTH 12 0
BBX 10 16 1 -3
BITMAP
0C00
3E00
6300
0000
3E00
7F80
E180
C0C0
FFC0
FFC0
C000
7FC0
3F80
0000
0C00
0C00
ENDCHAR
STARTCHAR uni1EC8
ENCODING 7880
SWIDTH 600 0
DWIDTH 12 0
BBX 8 16 2 0
BITMAP
18
24
0C
10
FF
FF
18
18
18
18
18
18
18
18
FF
FF
ENDCHAR
STARTCHAR uni1EC9
ENCODING 7881
SWIDTH 600 0
DWIDTH 12 0
BBX 10 14 1 0
BITMAP
1C00
1600
0400
0800
0000
7C00
7C00
0C00
0C00
0C00
0C00
0C00
FFC0
FFC0
ENDCHAR
STARTCHAR uni1ECA
ENCODING 7882
SWIDTH 600 0
DWIDTH 12 0
BBX 8 15 2 -3
BITMAP
FF
FF
18
18
18
18
18
18
18
18
FF
FF
00
18
18
ENDCHAR
STARTCHAR uni1ECB
ENCODING 7883
SWIDTH 600 0
DWIDTH 12 0
BBX 10 15 1 -3
BITMAP
1C00
1C00
0000
7C00
7C00
0C00
0C00
0C00
0C00
0C00
FFC0
FFC0
0000
0C00
0C00
ENDCHAR
STARTCHAR uni1ECC
ENCODING 7884
SWIDTH 600 0
DWIDTH 12 0
BBX 12 15 0 -3
BITMAP
0F00
3FC0
30E0
6060
6060
C030
C030
6060
6060
70E0
3FC0
1F80
0000
0600
0600
ENDCHAR
STARTCHAR uni1ECD
ENCODING 7885
SWIDTH 600 0
DWIDTH 12 0
BBX 10 12 1 -3
BITMAP
1E00
7F80
E1C0
C0C0
C0C0
C0C0
E1C0
7F80
3F00
0000
0C00
0C00
ENDCHAR
STARTCHAR uni1ECE
ENCODING 7886
SWIDTH 600 0
DWIDTH 12 0
BBX 12 16 0 0
BITMAP
0700
0D00
0100
0200
0F00
3FC0
30E0
6060
6060
C030
C030
6060
6060
70E0
3FC0
1F80
ENDCHAR
STARTCHAR uni1ECF
ENCODING 7887
SWIDTH 600 0
DWIDTH 12 0
BBX 10 14 1 0
BITMAP
0E00
1A00
0600
0400
0000
1E00
7F80
E1C0
C0C0
C0C0
C0C0
E1C0
7F80
3F00
ENDCHAR
STARTCHAR uni1ED0
ENCODING 7888
SWIDTH 600 0
DWIDTH 12 0
BBX 12 16 0 0
BITMAP
0830
3C60
77C0
0000
0F00
3FC0
30E0
6060
6060
C030
C030
6060
6060
70E0
3FC0
1F80
ENDCHAR
STARTCHAR uni1ED1
ENCODING 7889
SWIDTH 600 0
DWIDTH 12 0
BBX 11 15 1 0
BITMAP
0060
00C0
0D80
3E00
6300
0000
1E00
7F80
E1C0
C0C0
C0C0
C0C0
E1C0
7F80
3F00
ENDCHAR
STARTCHAR uni1ED2
ENCODING 7890
SWIDTH 600 0
DWIDTH 12 0
BBX 12 16 0 0
BITMAP
C100
63C0
3E60
0020
0F00
3FC0
30E0
6060
6060
C030
C030
6060
6060
70E0
3FC0
1F80
ENDCHAR
STARTCHAR uni1ED3
ENCODING 7891
SWIDTH 600 0
DWIDTH 12 0
BBX 11 15 0 0
BITMAP
C000
6000
3600
1F00
3180
0000
0F00
3FC0
70E0
6060
6060
6060
70E0
3FC0
1F80
ENDCHAR
STARTCHAR uni1ED4
ENCODING 7892
SWIDTH 600 0
DWIDTH 12 0
BBX 12 16 0 0
BITMAP
0860
3E90
7730
0020
0F00
3FC0
30E0
6060
6060
C030
C030
6060
6060
70E0
3FC0
1F80
ENDCHAR
STARTCHAR uni1ED5
ENCODING 7893
SWIDTH 600 0
DWIDTH 12 0
BBX 11 15 1 0
BITMAP
00E0
0120
0C60
3E40
6300
0000
1E00
7F80
E1C0
C0C0
C0C0
C0C0
E1C0
7F80
3F00
ENDCHAR
STARTCHAR uni1ED6
ENCODING 7894
SWIDTH 600 0
DWIDTH 12 0
BBX 12 16 0 0
BITMAP
0C40
1FC0
0000
0F00
1F80
1080
1F80
3FC0
70E0
6060
C030
C030
6060
6060
39C0
1F80
ENDCHAR
STARTCHAR uni1ED7
ENCODING 7895
SWIDTH 600 0
DWIDTH 12 0
BBX 10 16 1 0
BITMAP
3980
6F00
0000
0C00
3E00
6300
0000
1E00
7F80
E1C0
C0C0
C0C0
C0C0
E1C0
7F80
3F00
ENDCHAR
STARTCHAR uni1ED8
ENCODING 7896
SWIDTH 600 0
DWIDTH 12 0
BBX 12 18 0 -3
BITMAP
0F00
1F80
1080
0F00
3FC0
30E0
6060
6060
C030
C030
6060
6060
70E0
3FC0
1F80
0000
0600
0600
ENDCHAR
STARTCHAR uni1ED9
ENCODING 7897
SWIDTH 600 0
DWIDTH 12 0
BBX 10 16 1 -3
BITMAP
0C00
1F00
3180
0000
1E00
7F80
E1C0
C0C0
C0C0
C0C0
E1C0
7F80
3F00
0000
0C00
0C00
ENDCHAR
STARTCHAR uni1EDA
ENCODING 7898
SWIDTH 600 0
DWIDTH 12 0
BBX 12 16 0 0
BITMAP
0300
0600
0C00
0070
0F30
3FF0
30E0
6060
6060
C030
C030
6060
6060
70E0
3FC0
1F80
ENDCHAR
STARTCHAR uni1EDB
ENCODING 7899
SWIDTH 600 0
DWIDTH 12 0
BBX 11 13 1 0
BITMAP
0200
0600
0C00
00E0
1E60
7FE0
E1C0
C0C0
C0C0
C0C0
E1C0
7F80
3F00
ENDCHAR
STARTCHAR uni1EDC
ENCODING 7900
SWIDTH 600 0
DWIDTH 12 0
BBX 12 16 0 0
BITMAP
0C00
0E00
0300
0070
0F30
3FF0
30E0
6060
6060
C030
C030
6060
6060
70E0
3FC0
1F80
ENDCHAR
STARTCHAR uni1EDD
ENCODING 7901
SWIDTH 600 0
DWIDTH 12 0
BBX 11 13 1 0
BITMAP
1000
1C00
0400
00E0
1E60
7FE0
E1C0
C0C0
C0C0
C0C0
E1C0
7F80
3F00
ENDCHAR
STARTCHAR uni1EDE
ENCODING 7902
SWIDTH 600 0
DWIDTH 12 0
BBX 12 16 0 0
BITMAP
0700
0500
0100
0270
0F30
3FF0
30E0
6060
6060
C030
C030
6060
6060
70E0
3FC0
1F80
ENDCHAR
STARTCHAR uni1EDF
ENCODING 7903
SWIDTH 600 0
DWIDTH 12 0
BBX 11 14 1 0
BITMAP
0E00
1A00
0600
0400
00E0
1E60
7FE0
E1C0
C0C0
C0C0
C0C0
E1C0
7F80
3F00
ENDCHAR
STARTCHAR uni1EE0
ENCODING 7904
SWIDTH 600 0
DWIDTH 12 0
BBX 12 16 0 0
BITMAP
0800
3F80
2300
0070
0F30
3FF0
30E0
6060
6060
C030
C030
6060
6060
70E0
3FC0
1F80
ENDCHAR
STARTCHAR uni1EE1
ENCODING 7905
SWIDTH 600 0
DWIDTH 12 0
BBX 11 13 1 0
BITMAP
3100
7F00
0200
00E0
1E60
7FE0
E1C0
C0C0
C0C0
C0C0
E1C0
7F80
3F00
ENDCHAR
STARTCHAR uni1EE2
ENCODING 7906
SWIDTH 600 0
DWIDTH 12 0
BBX 12 16 0 -3
BITMAP
0070
0F30
3FF0
30E0
6060
6060
C030
C030
6060
6060
70E0
3FC0
1F80
0000
0600
0600
ENDCHAR
STARTCHAR uni1EE3
ENCODING 7907
SWIDTH 600 0
DWIDTH 12 0
BBX 11 13 1 -3
BITMAP
00E0
1E60
7FE0
E1C0
C0C0
C0C0
C0C0
E1C0
7F80
3F00
0000
0C00
0C00
ENDCHAR
STARTCHAR uni1EE4
ENCODING 7908
SWIDTH 600 0
DWIDTH 12 0
BBX 12 15 0 -3
BITMAP
79E0
F9F0
6060
6060
6060
6060
6060
6060
6060
30C0
3FC0
1F80
0000
0600
0600
ENDCHAR
STARTCHAR uni1EE5
ENCODING 7909
SWIDTH 600 0
DWIDTH 12 0
BBX 11 12 0 -3
BITMAP
71C0
F3C0
30C0
30C0
30C0
30C0
30C0
3FE0
1FE0
0000
0400
0E00
ENDCHAR
STARTCHAR uni1EE6
ENCODING 7910
SWIDTH 600 0
DWIDTH 12 0
BBX 12 16 0 0
BITMAP
0600
0D00
0100
0200
79E0
F9F0
6060
6060
6060
6060
6060
6060
6060
30C0
3FC0
1F80
ENDCHAR
STARTCHAR uni1EE7
ENCODING 7911
SWIDTH 600 0
DWIDTH 12 0
BBX 11 14 0 0
BITMAP
0E00
0A00
0200
0400
0000
71C0
F3C0
30C0
30C0
30C0
30C0
30C0
3FE0
1FE0
ENDCHAR
STARTCHAR uni1EE8
ENCODING 7912
SWIDTH 600 0
DWIDTH 12 0
BBX 12 16 0 0
BITMAP
0100
0700
0620
0030
F9F0
FBF0
60C0
60C0
60C0
60C0
60C0
60C0
60C0
30C0
3FC0
1F00
ENDCHAR
STARTCHAR uni1EE9
ENCODING 7913
SWIDTH 600 0
DWIDTH 12 0
BBX 12 13 0 0
BITMAP
0300
0600
0420
0030
F3F0
F3F0
30C0
30C0
30C0
30C0
31C0
3FE0
1EE0
ENDCHAR
STARTCHAR uni1EEA
ENCODING 7914
SWIDTH 600 0
DWIDTH 12 0
BBX 12 16 0 0
BITMAP
0800
0E00
0320
0030
F9F0
FBF0
60C0
60C0
60C0
60C0
60C0
60C0
60C0
30C0
3FC0
1F00
ENDCHAR
STARTCHAR uni1EEB
ENCODING 7915
SWIDTH 600 0
DWIDTH 12 0
BBX 12 13 0 0
BITMAP
1800
0C00
0620
0030
F3F0
F3F0
30C0
30C0
30C0
30C0
31C0
3FE0
1EE0
ENDCHAR
STARTCHAR uni1EEC
ENCODING 7916
SWIDTH 600 0
DWIDTH 12 0
BBX 12 16 0 0
BITMAP
0700
0D00
0120
0230
F9F0
FBF0
60C0
60C0
60C0
60C0
60C0
60C0
60C0
30C0
3FC0
1F00
ENDCHAR
STARTCHAR uni1EED
ENCODING 7917
SWIDTH 600 0
DWIDTH 12 0
BBX 12 14 0 0
BITMAP
0C00
1200
0600
0420
0030
F3F0
F3F0
30C0
30C0
30C0
30C0
31C0
3FE0
1EE0
ENDCHAR
STARTCHAR uni1EEE
ENCODING 7918
SWIDTH 600 0
DWIDTH 12 0
BBX 12 16 0 0
BITMAP
0800
1FC0
23A0
0030
F9F0
FBF0
60C0
60C0
60C0
60C0
60C0
60C0
60C0
30C0
3FC0
1F00
ENDCHAR
STARTCHAR uni1EEF
ENCODING 7919
SWIDTH 600 0
DWIDTH 12 0
BBX 12 13 0 0
BITMAP
1880
3F80
0120
0030
F3F0
F3F0
30C0
30C0
30C0
30C0
31C0
3FE0
1EE0
ENDCHAR
STARTCHAR uni1EF0
ENCODING 7920
SWIDTH 600 0
DWIDTH 12 0
BBX 12 17 0 -3
BITMAP
0020
0030
F9F0
FBF0
60C0
60C0
60C0
60C0
60C0
60C0
60C0
30C0
3FC0
1F00
0000
0600
0600
ENDCHAR
STARTCHAR uni1EF1
ENCODING 7921
SWIDTH 600 0
DWIDTH 12 0
BBX 12 14 0 -3
BITMAP
0020
0030
F3F0
F3F0
30C0
30C0
30C0
30C0
31C0
3FE0
1EE0
0000
0400
0E00
ENDCHAR
STARTCHAR Ygrave
ENCODING 7922
SWIDTH 600 0
DWIDTH 12 0
BBX 12 16 0 0
BITMAP
1800
0C00
0600
0000
70E0
F9F0
30C0
1980
1F80
0F00
0600
0600
0600
0600
3FC0
3FC0
ENDCHAR
STARTCHAR ygrave
ENCODING 7923
SWIDTH 600 0
DWIDTH 12 0
BBX 12 17 0 -4
BITMAP
1800
0C00
0600
0000
79E0
F9F0
30C0
30C0
1980
1980
0F00
0F00
0600
0600
0C00
7E00
7E00
ENDCHAR
STARTCHAR uni1EF4
ENCODING 7924
SWIDTH 600 0
DWIDTH 12 0
BBX 12 15 0 -3
BITMAP
70E0
F9F0
30C0
1980
1F80
0F00
0600
0600
0600
0600
3FC0
3FC0
0000
0600
0600
ENDCHAR
STARTCHAR uni1EF5
ENCODING 7925
SWIDTH 600 0
DWIDTH 12 0
BBX 12 13 0 -4
BITMAP
79E0
F9F0
30C0
30C0
1980
1980
0F00
0F00
0600
0600
0C60
7E60
7E00
ENDCHAR
STARTCHAR uni1EF6
ENCODING 7926
SWIDTH 600 0
DWIDTH 12 0
BBX 12 16 0 0
BITMAP
0600
0D00
0300
0200
70E0
F9F0
30C0
1980
1F80
0F00
0600
0600
0600
0600
3FC0
3FC0
ENDCHAR
STARTCHAR uni1EF7
ENCODING 7927
SWIDTH 600 0
DWIDTH 12 0
BBX 12 18 0 -4
BITMAP
0600
0900
0300
0200
0000
79E0
F9F0
30C0
30C0
1980
1980
0F00
0F00
0600
0600
0C00
7E00
7E00
ENDCHAR
STARTCHAR uni1EF8
ENCODING 7928
SWIDTH 600 0
DWIDTH 12 0
BBX 12 15 0 0
BITMAP
1EC0
3380
0000
70E0
F9F0
30C0
1980
1F80
0F00
0600
0600
0600
0600
3FC0
3FC0
ENDCHAR
STARTCHAR uni1EF9
ENCODING 7929
SWIDTH 600 0
DWIDTH 12 0
BBX 12 17 0 -4
BITMAP
1880
3F80
0100
0000
79E0
F9F0
30C0
30C0
1980
1980
0F00
0F00
0600
0600
0C00
7E00
7E00
ENDCHAR
STARTCHAR enquad
ENCODING 8192
SWIDTH 600 0
DWIDTH 12 0
BBX 1 1 0 0
BITMAP
00
ENDCHAR
STARTCHAR emquad
ENCODING 8193
SWIDTH 600 0
DWIDTH 12 0
BBX 1 1 0 0
BITMAP
00
ENDCHAR
ENDFONT
